<ttFont>
    <TTGlyph name=".notdef" xMin="-76" yMin="-303" xMax="1168" yMax="1513">
      <contour>
        <pt x="287" y="1513" on="1"/>
        <pt x="1168" y="1513" on="1"/>
        <pt x="805" y="-303" on="1"/>
        <pt x="-76" y="-303" on="1"/>
      </contour>
      <contour>
        <pt x="578" y="-58" on="1"/>
        <pt x="843" y="1268" on="1"/>
        <pt x="514" y="1268" on="1"/>
        <pt x="249" y="-58" on="1"/>
      </contour>
    </TTGlyph>
    <TTGlyph name="A" xMin="13" yMin="0" xMax="837" yMax="1362">
      <contour>
        <pt x="682" y="1362" on="1"/>
        <pt x="714" y="1362" on="1"/>
        <pt x="837" y="0" on="1"/>
        <pt x="803" y="0" on="1"/>
        <pt x="764" y="440" on="1"/>
        <pt x="259" y="440" on="1"/>
        <pt x="43" y="0" on="1"/>
        <pt x="13" y="0" on="1"/>
      </contour>
      <contour>
        <pt x="762" y="468" on="1"/>
        <pt x="688" y="1313" on="1"/>
        <pt x="273" y="468" on="1"/>
      </contour>
    </TTGlyph>
    <TTGlyph name="A.hex" xMin="-34" yMin="0" xMax="883" yMax="1210">
      <contour>
        <pt x="592" y="1210" on="1"/>
        <pt x="749" y="1210" on="1"/>
        <pt x="883" y="0" on="1"/>
        <pt x="715" y="0" on="1"/>
        <pt x="686" y="310" on="1"/>
        <pt x="275" y="310" on="1"/>
        <pt x="117" y="0" on="1"/>
        <pt x="-34" y="0" on="1"/>
      </contour>
      <contour>
        <pt x="673" y="446" on="1"/>
        <pt x="622" y="990" on="1"/>
        <pt x="344" y="446" on="1"/>
      </contour>
    </TTGlyph>
    <TTGlyph name="Aacute" xMin="-91" yMin="0" xMax="1008" yMax="1870">
      <component glyphName="A" x="-104" y="0" flags="0x0"/>
      <component glyphName="acutecomb.case" x="-104" y="0" flags="0x0"/>
    </TTGlyph>
    <TTGlyph name="Abreve" xMin="-91" yMin="0" xMax="977" yMax="1815">
      <component glyphName="A" x="-104" y="0" flags="0x0"/>
      <component glyphName="uni0306.case" x="-104" y="0" flags="0x0"/>
    </TTGlyph>
    <TTGlyph name="Acircumflex" xMin="-91" yMin="0" xMax="932" yMax="1870">
      <component glyphName="A" x="-104" y="0" flags="0x0"/>
      <component glyphName="uni0302.case" x="-104" y="0" flags="0x0"/>
    </TTGlyph>
    <TTGlyph name="Adieresis" xMin="-91" yMin="0" xMax="859" yMax="1576">
      <component glyphName="A" x="-104" y="0" flags="0x0"/>
      <component glyphName="uni0308.case" x="-104" y="0" flags="0x0"/>
    </TTGlyph>
    <TTGlyph name="Agrave" xMin="-91" yMin="0" xMax="733" yMax="1870">
      <component glyphName="A" x="-104" y="0" flags="0x0"/>
      <component glyphName="gravecomb.case" x="-104" y="0" flags="0x0"/>
    </TTGlyph>
    <TTGlyph name="Amacron" xMin="-91" yMin="0" xMax="957" yMax="1710">
      <component glyphName="A" x="-104" y="0" flags="0x0"/>
      <component glyphName="uni0304.case" x="-104" y="0" flags="0x0"/>
    </TTGlyph>
    <TTGlyph name="Aogonek" xMin="13" yMin="-303" xMax="884" yMax="1362">
      <contour>
        <pt x="669" y="-303" on="0"/>
        <pt x="613" y="-258" on="0"/>
        <pt x="613" y="-216" on="1"/>
        <pt x="613" y="-202" on="0"/>
        <pt x="616" y="-187" on="1"/>
        <pt x="630" y="-122" on="0"/>
        <pt x="747" y="-28" on="0"/>
        <pt x="835" y="0" on="1"/>
        <pt x="803" y="0" on="1"/>
        <pt x="764" y="440" on="1"/>
        <pt x="259" y="440" on="1"/>
        <pt x="43" y="0" on="1"/>
        <pt x="13" y="0" on="1"/>
        <pt x="682" y="1362" on="1"/>
        <pt x="714" y="1362" on="1"/>
        <pt x="837" y="0" on="1"/>
        <pt x="881" y="13" on="1"/>
        <pt x="884" y="0" on="1"/>
        <pt x="786" y="-25" on="0"/>
        <pt x="660" y="-117" on="0"/>
        <pt x="648" y="-182" on="1"/>
        <pt x="645" y="-196" on="0"/>
        <pt x="645" y="-208" on="1"/>
        <pt x="645" y="-241" on="0"/>
        <pt x="689" y="-274" on="0"/>
        <pt x="730" y="-275" on="1"/>
        <pt x="768" y="-273" on="0"/>
        <pt x="807" y="-255" on="1"/>
        <pt x="808" y="-283" on="1"/>
        <pt x="763" y="-303" on="0"/>
        <pt x="719" y="-303" on="1"/>
      </contour>
      <contour>
        <pt x="762" y="468" on="1"/>
        <pt x="688" y="1313" on="1"/>
        <pt x="273" y="468" on="1"/>
      </contour>
    </TTGlyph>
    <TTGlyph name="Aring" xMin="-91" yMin="0" xMax="903" yMax="1902">
      <component glyphName="A" x="-104" y="0" flags="0x0"/>
      <component glyphName="uni030A.case" x="-104" y="0" flags="0x0"/>
    </TTGlyph>
    <TTGlyph name="Atilde" xMin="-91" yMin="0" xMax="1003" yMax="1789">
      <component glyphName="A" x="-104" y="0" flags="0x0"/>
      <component glyphName="tildecomb.case" x="-104" y="0" flags="0x0"/>
    </TTGlyph>
    <TTGlyph name="B" xMin="94" yMin="0" xMax="958" yMax="1362">
      <contour>
        <pt x="366" y="1362" on="1"/>
        <pt x="621" y="1362" on="1"/>
        <pt x="790" y="1362" on="0"/>
        <pt x="958" y="1226" on="0"/>
        <pt x="958" y="1102" on="1"/>
        <pt x="958" y="1062" on="0"/>
        <pt x="949" y="1017" on="1"/>
        <pt x="923" y="888" on="0"/>
        <pt x="735" y="712" on="0"/>
        <pt x="597" y="690" on="1"/>
        <pt x="718" y="674" on="0"/>
        <pt x="850" y="537" on="0"/>
        <pt x="850" y="430" on="1"/>
        <pt x="850" y="396" on="0"/>
        <pt x="842" y="353" on="1"/>
        <pt x="809" y="185" on="0"/>
        <pt x="574" y="0" on="0"/>
        <pt x="377" y="0" on="1"/>
        <pt x="94" y="0" on="1"/>
      </contour>
      <contour>
        <pt x="562" y="26" on="0"/>
        <pt x="781" y="202" on="0"/>
        <pt x="813" y="359" on="1"/>
        <pt x="821" y="399" on="0"/>
        <pt x="821" y="431" on="1"/>
        <pt x="821" y="546" on="0"/>
        <pt x="660" y="675" on="0"/>
        <pt x="515" y="675" on="1"/>
        <pt x="259" y="675" on="1"/>
        <pt x="129" y="27" on="1"/>
        <pt x="381" y="27" on="1"/>
      </contour>
      <contour>
        <pt x="616" y="702" on="0"/>
        <pt x="787" y="781" on="0"/>
        <pt x="899" y="923" on="0"/>
        <pt x="917" y="1016" on="1"/>
        <pt x="926" y="1061" on="0"/>
        <pt x="926" y="1099" on="1"/>
        <pt x="926" y="1212" on="0"/>
        <pt x="773" y="1335" on="0"/>
        <pt x="619" y="1335" on="1"/>
        <pt x="391" y="1335" on="1"/>
        <pt x="264" y="702" on="1"/>
        <pt x="513" y="702" on="1"/>
      </contour>
    </TTGlyph>
    <TTGlyph name="B.hex" xMin="47" yMin="0" xMax="978" yMax="1210">
      <contour>
        <pt x="289" y="1210" on="1"/>
        <pt x="591" y="1210" on="1"/>
        <pt x="784" y="1210" on="0"/>
        <pt x="978" y="1081" on="0"/>
        <pt x="978" y="963" on="1"/>
        <pt x="978" y="929" on="0"/>
        <pt x="971" y="897" on="1"/>
        <pt x="952" y="804" on="0"/>
        <pt x="820" y="660" on="0"/>
        <pt x="718" y="621" on="1"/>
        <pt x="800" y="590" on="0"/>
        <pt x="889" y="471" on="0"/>
        <pt x="889" y="388" on="1"/>
        <pt x="889" y="353" on="0"/>
        <pt x="882" y="319" on="1"/>
        <pt x="852" y="168" on="0"/>
        <pt x="597" y="0" on="0"/>
        <pt x="377" y="0" on="1"/>
        <pt x="47" y="0" on="1"/>
      </contour>
      <contour>
        <pt x="546" y="132" on="0"/>
        <pt x="709" y="244" on="0"/>
        <pt x="728" y="343" on="1"/>
        <pt x="733" y="371" on="0"/>
        <pt x="733" y="390" on="1"/>
        <pt x="733" y="467" on="0"/>
        <pt x="614" y="545" on="0"/>
        <pt x="500" y="545" on="1"/>
        <pt x="308" y="545" on="1"/>
        <pt x="225" y="132" on="1"/>
        <pt x="405" y="132" on="1"/>
      </contour>
      <contour>
        <pt x="629" y="681" on="0"/>
        <pt x="790" y="782" on="0"/>
        <pt x="810" y="882" on="1"/>
        <pt x="815" y="909" on="0"/>
        <pt x="815" y="927" on="1"/>
        <pt x="815" y="999" on="0"/>
        <pt x="697" y="1078" on="0"/>
        <pt x="570" y="1078" on="1"/>
        <pt x="414" y="1078" on="1"/>
        <pt x="335" y="681" on="1"/>
        <pt x="496" y="681" on="1"/>
      </contour>
    </TTGlyph>
    <TTGlyph name="C" xMin="171" yMin="-21" xMax="1003" yMax="1382">
      <contour>
        <pt x="314" y="-21" on="0"/>
        <pt x="171" y="170" on="0"/>
        <pt x="171" y="365" on="1"/>
        <pt x="171" y="499" on="0"/>
        <pt x="207" y="682" on="1"/>
        <pt x="278" y="1032" on="0"/>
        <pt x="556" y="1382" on="0"/>
        <pt x="753" y="1382" on="1"/>
        <pt x="885" y="1382" on="0"/>
        <pt x="1003" y="1266" on="1"/>
        <pt x="988" y="1246" on="1"/>
        <pt x="878" y="1354" on="0"/>
        <pt x="749" y="1355" on="1"/>
        <pt x="568" y="1354" on="0"/>
        <pt x="306" y="1022" on="0"/>
        <pt x="238" y="680" on="1"/>
        <pt x="201" y="496" on="0"/>
        <pt x="201" y="362" on="1"/>
        <pt x="201" y="9" on="0"/>
        <pt x="457" y="7" on="1"/>
        <pt x="515" y="7" on="0"/>
        <pt x="616" y="39" on="0"/>
        <pt x="699" y="86" on="0"/>
        <pt x="761" y="127" on="1"/>
        <pt x="771" y="103" on="1"/>
        <pt x="707" y="60" on="0"/>
        <pt x="620" y="11" on="0"/>
        <pt x="513" y="-21" on="0"/>
        <pt x="449" y="-21" on="1"/>
      </contour>
    </TTGlyph>
    <TTGlyph name="C.hex" xMin="119" yMin="-21" xMax="1020" yMax="1231">
      <contour>
        <pt x="290" y="-21" on="0"/>
        <pt x="119" y="170" on="0"/>
        <pt x="119" y="363" on="1"/>
        <pt x="119" y="468" on="0"/>
        <pt x="146" y="606" on="1"/>
        <pt x="208" y="918" on="0"/>
        <pt x="503" y="1231" on="0"/>
        <pt x="723" y="1231" on="1"/>
        <pt x="810" y="1231" on="0"/>
        <pt x="954" y="1169" on="0"/>
        <pt x="1020" y="1115" on="1"/>
        <pt x="936" y="1009" on="1"/>
        <pt x="881" y="1048" on="0"/>
        <pt x="765" y="1095" on="0"/>
        <pt x="691" y="1095" on="1"/>
        <pt x="557" y="1095" on="0"/>
        <pt x="355" y="877" on="0"/>
        <pt x="300" y="604" on="1"/>
        <pt x="275" y="479" on="0"/>
        <pt x="275" y="384" on="1"/>
        <pt x="275" y="246" on="0"/>
        <pt x="387" y="115" on="0"/>
        <pt x="500" y="115" on="1"/>
        <pt x="567" y="115" on="0"/>
        <pt x="687" y="161" on="0"/>
        <pt x="777" y="209" on="1"/>
        <pt x="817" y="103" on="1"/>
        <pt x="743" y="59" on="0"/>
        <pt x="645" y="11" on="0"/>
        <pt x="523" y="-21" on="0"/>
        <pt x="449" y="-21" on="1"/>
      </contour>
    </TTGlyph>
    <TTGlyph name="Cacute" xMin="67" yMin="-21" xMax="1052" yMax="1870">
      <component glyphName="C" x="-104" y="0" flags="0x0"/>
      <component glyphName="acutecomb.case" x="-60" y="0" flags="0x0"/>
    </TTGlyph>
    <TTGlyph name="Ccaron" xMin="67" yMin="-21" xMax="1055" yMax="1870">
      <component glyphName="C" x="-104" y="0" flags="0x0"/>
      <component glyphName="uni030C.case" x="-60" y="0" flags="0x0"/>
    </TTGlyph>
    <TTGlyph name="Ccedilla" xMin="171" yMin="-303" xMax="1003" yMax="1382">
      <contour>
        <pt x="314" y="-21" on="0"/>
        <pt x="171" y="170" on="0"/>
        <pt x="171" y="365" on="1"/>
        <pt x="171" y="499" on="0"/>
        <pt x="207" y="682" on="1"/>
        <pt x="278" y="1032" on="0"/>
        <pt x="556" y="1382" on="0"/>
        <pt x="753" y="1382" on="1"/>
        <pt x="885" y="1382" on="0"/>
        <pt x="1003" y="1266" on="1"/>
        <pt x="988" y="1246" on="1"/>
        <pt x="878" y="1354" on="0"/>
        <pt x="749" y="1355" on="1"/>
        <pt x="568" y="1354" on="0"/>
        <pt x="306" y="1022" on="0"/>
        <pt x="238" y="680" on="1"/>
        <pt x="201" y="496" on="0"/>
        <pt x="201" y="362" on="1"/>
        <pt x="201" y="9" on="0"/>
        <pt x="457" y="7" on="1"/>
        <pt x="475" y="7" on="0"/>
        <pt x="484" y="8" on="1"/>
        <pt x="487" y="26" on="1"/>
        <pt x="576" y="26" on="1"/>
        <pt x="620" y="40" on="0"/>
        <pt x="702" y="87" on="0"/>
        <pt x="761" y="127" on="1"/>
        <pt x="771" y="103" on="1"/>
        <pt x="720" y="69" on="0"/>
        <pt x="656" y="30" on="0"/>
        <pt x="620" y="14" on="1"/>
        <pt x="620" y="-40" on="0"/>
        <pt x="611" y="-84" on="1"/>
        <pt x="590" y="-192" on="0"/>
        <pt x="435" y="-303" on="0"/>
        <pt x="330" y="-303" on="1"/>
        <pt x="266" y="-303" on="0"/>
        <pt x="208" y="-287" on="1"/>
        <pt x="246" y="-161" on="1"/>
        <pt x="281" y="-166" on="0"/>
        <pt x="324" y="-166" on="1"/>
        <pt x="392" y="-166" on="0"/>
        <pt x="466" y="-110" on="0"/>
        <pt x="478" y="-50" on="1"/>
        <pt x="483" y="-20" on="1"/>
        <pt x="472" y="-21" on="0"/>
        <pt x="449" y="-21" on="1"/>
      </contour>
    </TTGlyph>
    <TTGlyph name="Ccircumflex" xMin="67" yMin="-21" xMax="976" yMax="1870">
      <component glyphName="C" x="-104" y="0" flags="0x0"/>
      <component glyphName="uni0302.case" x="-60" y="0" flags="0x0"/>
    </TTGlyph>
    <TTGlyph name="Cdotaccent" xMin="67" yMin="-21" xMax="899" yMax="1839">
      <component glyphName="C" x="-104" y="0" flags="0x0"/>
      <component glyphName="uni0307" x="3" y="318" flags="0x4"/>
    </TTGlyph>
    <TTGlyph name="D" xMin="94" yMin="0" xMax="971" yMax="1362">
      <contour>
        <pt x="971" y="1362" on="0"/>
        <pt x="971" y="968" on="1"/>
        <pt x="971" y="846" on="0"/>
        <pt x="939" y="684" on="1"/>
        <pt x="894" y="462" on="0"/>
        <pt x="728" y="155" on="0"/>
        <pt x="505" y="0" on="0"/>
        <pt x="377" y="0" on="1"/>
        <pt x="94" y="0" on="1"/>
        <pt x="366" y="1362" on="1"/>
        <pt x="636" y="1362" on="1"/>
      </contour>
      <contour>
        <pt x="391" y="1334" on="1"/>
        <pt x="129" y="28" on="1"/>
        <pt x="382" y="28" on="1"/>
        <pt x="502" y="28" on="0"/>
        <pt x="708" y="174" on="0"/>
        <pt x="865" y="468" on="0"/>
        <pt x="908" y="685" on="1"/>
        <pt x="941" y="847" on="0"/>
        <pt x="941" y="969" on="1"/>
        <pt x="941" y="1151" on="0"/>
        <pt x="790" y="1333" on="0"/>
        <pt x="634" y="1334" on="1"/>
      </contour>
    </TTGlyph>
    <TTGlyph name="D.hex" xMin="47" yMin="0" xMax="994" yMax="1210">
      <contour>
        <pt x="804" y="1210" on="0"/>
        <pt x="994" y="1017" on="0"/>
        <pt x="994" y="827" on="1"/>
        <pt x="994" y="728" on="0"/>
        <pt x="970" y="608" on="1"/>
        <pt x="930" y="410" on="0"/>
        <pt x="759" y="137" on="0"/>
        <pt x="520" y="0" on="0"/>
        <pt x="377" y="0" on="1"/>
        <pt x="47" y="0" on="1"/>
        <pt x="289" y="1210" on="1"/>
        <pt x="606" y="1210" on="1"/>
      </contour>
      <contour>
        <pt x="414" y="1074" on="1"/>
        <pt x="226" y="136" on="1"/>
        <pt x="410" y="136" on="1"/>
        <pt x="560" y="136" on="0"/>
        <pt x="761" y="353" on="0"/>
        <pt x="811" y="604" on="1"/>
        <pt x="835" y="726" on="0"/>
        <pt x="835" y="811" on="1"/>
        <pt x="835" y="950" on="0"/>
        <pt x="712" y="1074" on="0"/>
        <pt x="589" y="1074" on="1"/>
      </contour>
    </TTGlyph>
    <TTGlyph name="Dcaron" xMin="-10" yMin="0" xMax="996" yMax="1870">
      <component glyphName="D" x="-104" y="0" flags="0x0"/>
      <component glyphName="uni030C.case" x="-119" y="0" flags="0x0"/>
    </TTGlyph>
    <TTGlyph name="Dcroat" xMin="-26" yMin="0" xMax="867" yMax="1362">
      <component glyphName="Eth" x="-104" y="0" flags="0x0"/>
    </TTGlyph>
    <TTGlyph name="E" xMin="117" yMin="0" xMax="1005" yMax="1362">
      <contour>
        <pt x="389" y="1362" on="1"/>
        <pt x="1005" y="1362" on="1"/>
        <pt x="1000" y="1334" on="1"/>
        <pt x="414" y="1334" on="1"/>
        <pt x="286" y="698" on="1"/>
        <pt x="803" y="698" on="1"/>
        <pt x="798" y="671" on="1"/>
        <pt x="281" y="671" on="1"/>
        <pt x="152" y="28" on="1"/>
        <pt x="745" y="28" on="1"/>
        <pt x="740" y="0" on="1"/>
        <pt x="117" y="0" on="1"/>
      </contour>
    </TTGlyph>
    <TTGlyph name="E.hex" xMin="70" yMin="0" xMax="1021" yMax="1210">
      <contour>
        <pt x="312" y="1210" on="1"/>
        <pt x="1021" y="1210" on="1"/>
        <pt x="994" y="1074" on="1"/>
        <pt x="436" y="1074" on="1"/>
        <pt x="356" y="677" on="1"/>
        <pt x="846" y="677" on="1"/>
        <pt x="819" y="541" on="1"/>
        <pt x="329" y="541" on="1"/>
        <pt x="248" y="136" on="1"/>
        <pt x="814" y="136" on="1"/>
        <pt x="787" y="0" on="1"/>
        <pt x="70" y="0" on="1"/>
      </contour>
    </TTGlyph>
    <TTGlyph name="Eacute" xMin="13" yMin="0" xMax="1018" yMax="1870">
      <component glyphName="E" x="-104" y="0" flags="0x0"/>
      <component glyphName="acutecomb.case" x="-94" y="0" flags="0x0"/>
    </TTGlyph>
    <TTGlyph name="Ebreve" xMin="13" yMin="0" xMax="987" yMax="1815">
      <component glyphName="E" x="-104" y="0" flags="0x0"/>
      <component glyphName="uni0306.case" x="-94" y="0" flags="0x0"/>
    </TTGlyph>
    <TTGlyph name="Ecaron" xMin="13" yMin="0" xMax="1021" yMax="1870">
      <component glyphName="E" x="-104" y="0" flags="0x0"/>
      <component glyphName="uni030C.case" x="-94" y="0" flags="0x0"/>
    </TTGlyph>
    <TTGlyph name="Ecircumflex" xMin="13" yMin="0" xMax="942" yMax="1870">
      <component glyphName="E" x="-104" y="0" flags="0x0"/>
      <component glyphName="uni0302.case" x="-94" y="0" flags="0x0"/>
    </TTGlyph>
    <TTGlyph name="Edieresis" xMin="13" yMin="0" xMax="901" yMax="1576">
      <component glyphName="E" x="-104" y="0" flags="0x0"/>
      <component glyphName="uni0308.case" x="-94" y="0" flags="0x0"/>
    </TTGlyph>
    <TTGlyph name="Edotaccent" xMin="13" yMin="0" xMax="901" yMax="1839">
      <component glyphName="E" x="-104" y="0" flags="0x0"/>
      <component glyphName="uni0307" x="-31" y="318" flags="0x4"/>
    </TTGlyph>
    <TTGlyph name="Egrave" xMin="13" yMin="0" xMax="901" yMax="1870">
      <component glyphName="E" x="-104" y="0" flags="0x0"/>
      <component glyphName="gravecomb.case" x="-94" y="0" flags="0x0"/>
    </TTGlyph>
    <TTGlyph name="Emacron" xMin="13" yMin="0" xMax="967" yMax="1710">
      <component glyphName="E" x="-104" y="0" flags="0x0"/>
      <component glyphName="uni0304.case" x="-94" y="0" flags="0x0"/>
    </TTGlyph>
    <TTGlyph name="Eogonek" xMin="117" yMin="-303" xMax="1005" yMax="1362">
      <contour>
        <pt x="389" y="1362" on="1"/>
        <pt x="1005" y="1362" on="1"/>
        <pt x="1000" y="1334" on="1"/>
        <pt x="414" y="1334" on="1"/>
        <pt x="286" y="698" on="1"/>
        <pt x="803" y="698" on="1"/>
        <pt x="798" y="671" on="1"/>
        <pt x="281" y="671" on="1"/>
        <pt x="152" y="28" on="1"/>
        <pt x="745" y="28" on="1"/>
        <pt x="740" y="0" on="1"/>
        <pt x="740" y="0" on="1"/>
        <pt x="642" y="-25" on="0"/>
        <pt x="516" y="-117" on="0"/>
        <pt x="504" y="-182" on="1"/>
        <pt x="501" y="-196" on="0"/>
        <pt x="501" y="-208" on="1"/>
        <pt x="501" y="-241" on="0"/>
        <pt x="545" y="-274" on="0"/>
        <pt x="586" y="-275" on="1"/>
        <pt x="624" y="-273" on="0"/>
        <pt x="663" y="-255" on="1"/>
        <pt x="664" y="-283" on="1"/>
        <pt x="619" y="-303" on="0"/>
        <pt x="575" y="-303" on="1"/>
        <pt x="525" y="-303" on="0"/>
        <pt x="469" y="-258" on="0"/>
        <pt x="469" y="-216" on="1"/>
        <pt x="469" y="-202" on="0"/>
        <pt x="472" y="-187" on="1"/>
        <pt x="486" y="-122" on="0"/>
        <pt x="603" y="-28" on="0"/>
        <pt x="691" y="0" on="1"/>
        <pt x="117" y="0" on="1"/>
      </contour>
    </TTGlyph>
    <TTGlyph name="Eth" xMin="78" yMin="0" xMax="971" yMax="1362">
      <contour>
        <pt x="83" y="702" on="1"/>
        <pt x="234" y="702" on="1"/>
        <pt x="366" y="1362" on="1"/>
        <pt x="636" y="1362" on="1"/>
        <pt x="971" y="1362" on="0"/>
        <pt x="971" y="968" on="1"/>
        <pt x="971" y="846" on="0"/>
        <pt x="939" y="684" on="1"/>
        <pt x="894" y="462" on="0"/>
        <pt x="728" y="155" on="0"/>
        <pt x="505" y="0" on="0"/>
        <pt x="377" y="0" on="1"/>
        <pt x="94" y="0" on="1"/>
        <pt x="229" y="675" on="1"/>
        <pt x="78" y="675" on="1"/>
      </contour>
      <contour>
        <pt x="391" y="1334" on="1"/>
        <pt x="264" y="702" on="1"/>
        <pt x="553" y="702" on="1"/>
        <pt x="548" y="675" on="1"/>
        <pt x="259" y="675" on="1"/>
        <pt x="129" y="28" on="1"/>
        <pt x="382" y="28" on="1"/>
        <pt x="502" y="28" on="0"/>
        <pt x="708" y="174" on="0"/>
        <pt x="865" y="468" on="0"/>
        <pt x="908" y="685" on="1"/>
        <pt x="941" y="847" on="0"/>
        <pt x="941" y="969" on="1"/>
        <pt x="941" y="1151" on="0"/>
        <pt x="790" y="1333" on="0"/>
        <pt x="634" y="1334" on="1"/>
      </contour>
    </TTGlyph>
    <TTGlyph name="F" xMin="132" yMin="0" xMax="1029" yMax="1362">
      <contour>
        <pt x="404" y="1362" on="1"/>
        <pt x="1029" y="1362" on="1"/>
        <pt x="1024" y="1334" on="1"/>
        <pt x="429" y="1334" on="1"/>
        <pt x="301" y="697" on="1"/>
        <pt x="745" y="697" on="1"/>
        <pt x="740" y="670" on="1"/>
        <pt x="296" y="670" on="1"/>
        <pt x="162" y="0" on="1"/>
        <pt x="132" y="0" on="1"/>
      </contour>
    </TTGlyph>
    <TTGlyph name="F.hex" xMin="85" yMin="0" xMax="1046" yMax="1210">
      <contour>
        <pt x="327" y="1210" on="1"/>
        <pt x="1046" y="1210" on="1"/>
        <pt x="1019" y="1074" on="1"/>
        <pt x="451" y="1074" on="1"/>
        <pt x="367" y="654" on="1"/>
        <pt x="783" y="654" on="1"/>
        <pt x="755" y="518" on="1"/>
        <pt x="339" y="518" on="1"/>
        <pt x="236" y="0" on="1"/>
        <pt x="85" y="0" on="1"/>
      </contour>
    </TTGlyph>
    <TTGlyph name="G" xMin="172" yMin="-21" xMax="1004" yMax="1382">
      <contour>
        <pt x="172" y="-21" on="0"/>
        <pt x="172" y="370" on="1"/>
        <pt x="172" y="501" on="0"/>
        <pt x="207" y="682" on="1"/>
        <pt x="278" y="1030" on="0"/>
        <pt x="556" y="1382" on="0"/>
        <pt x="761" y="1382" on="1"/>
        <pt x="827" y="1382" on="0"/>
        <pt x="944" y="1341" on="0"/>
        <pt x="1004" y="1296" on="1"/>
        <pt x="990" y="1274" on="1"/>
        <pt x="882" y="1353" on="0"/>
        <pt x="758" y="1355" on="1"/>
        <pt x="566" y="1354" on="0"/>
        <pt x="305" y="1015" on="0"/>
        <pt x="238" y="680" on="1"/>
        <pt x="202" y="500" on="0"/>
        <pt x="202" y="369" on="1"/>
        <pt x="202" y="188" on="0"/>
        <pt x="341" y="8" on="0"/>
        <pt x="481" y="7" on="1"/>
        <pt x="612" y="9" on="0"/>
        <pt x="739" y="64" on="1"/>
        <pt x="831" y="523" on="1"/>
        <pt x="518" y="523" on="1"/>
        <pt x="524" y="551" on="1"/>
        <pt x="867" y="551" on="1"/>
        <pt x="767" y="46" on="1"/>
        <pt x="618" y="-21" on="0"/>
        <pt x="475" y="-21" on="1"/>
      </contour>
    </TTGlyph>
    <TTGlyph name="Gbreve" xMin="68" yMin="-21" xMax="1039" yMax="1906">
      <component glyphName="G" x="-104" y="0" flags="0x0"/>
      <component glyphName="uni0306" x="3" y="318" flags="0x4"/>
    </TTGlyph>
    <TTGlyph name="Gcaron" xMin="68" yMin="-21" xMax="1055" yMax="1870">
      <component glyphName="G" x="-104" y="0" flags="0x0"/>
      <component glyphName="uni030C.case" x="-60" y="0" flags="0x0"/>
    </TTGlyph>
    <TTGlyph name="Gcircumflex" xMin="68" yMin="-21" xMax="976" yMax="1870">
      <component glyphName="G" x="-104" y="0" flags="0x0"/>
      <component glyphName="uni0302.case" x="-60" y="0" flags="0x0"/>
    </TTGlyph>
    <TTGlyph name="Gdotaccent" xMin="68" yMin="-21" xMax="900" yMax="1839">
      <component glyphName="G" x="-104" y="0" flags="0x0"/>
      <component glyphName="uni0307" x="3" y="318" flags="0x4"/>
    </TTGlyph>
    <TTGlyph name="H" xMin="94" yMin="0" xMax="1029" yMax="1362">
      <contour>
        <pt x="366" y="1362" on="1"/>
        <pt x="396" y="1362" on="1"/>
        <pt x="264" y="702" on="1"/>
        <pt x="867" y="702" on="1"/>
        <pt x="999" y="1362" on="1"/>
        <pt x="1029" y="1362" on="1"/>
        <pt x="757" y="0" on="1"/>
        <pt x="727" y="0" on="1"/>
        <pt x="862" y="675" on="1"/>
        <pt x="259" y="675" on="1"/>
        <pt x="124" y="0" on="1"/>
        <pt x="94" y="0" on="1"/>
      </contour>
    </TTGlyph>
    <TTGlyph name="Hbar" xMin="94" yMin="0" xMax="1139" yMax="1362">
      <contour>
        <pt x="319" y="1128" on="1"/>
        <pt x="168" y="1128" on="1"/>
        <pt x="174" y="1156" on="1"/>
        <pt x="325" y="1156" on="1"/>
        <pt x="366" y="1362" on="1"/>
        <pt x="396" y="1362" on="1"/>
        <pt x="355" y="1156" on="1"/>
        <pt x="958" y="1156" on="1"/>
        <pt x="999" y="1362" on="1"/>
        <pt x="1029" y="1362" on="1"/>
        <pt x="988" y="1156" on="1"/>
        <pt x="1139" y="1156" on="1"/>
        <pt x="1133" y="1128" on="1"/>
        <pt x="982" y="1128" on="1"/>
        <pt x="757" y="0" on="1"/>
        <pt x="727" y="0" on="1"/>
        <pt x="862" y="675" on="1"/>
        <pt x="259" y="675" on="1"/>
        <pt x="124" y="0" on="1"/>
        <pt x="94" y="0" on="1"/>
      </contour>
      <contour>
        <pt x="867" y="702" on="1"/>
        <pt x="952" y="1128" on="1"/>
        <pt x="349" y="1128" on="1"/>
        <pt x="264" y="702" on="1"/>
      </contour>
    </TTGlyph>
    <TTGlyph name="Hcircumflex" xMin="-10" yMin="0" xMax="932" yMax="1870">
      <component glyphName="H" x="-104" y="0" flags="0x0"/>
      <component glyphName="uni0302.case" x="-104" y="0" flags="0x0"/>
    </TTGlyph>
    <TTGlyph name="I" xMin="170" yMin="0" xMax="954" yMax="1362">
      <contour>
        <pt x="175" y="25" on="1"/>
        <pt x="416" y="28" on="1"/>
        <pt x="678" y="1334" on="1"/>
        <pt x="437" y="1337" on="1"/>
        <pt x="442" y="1362" on="1"/>
        <pt x="954" y="1362" on="1"/>
        <pt x="949" y="1337" on="1"/>
        <pt x="708" y="1334" on="1"/>
        <pt x="446" y="28" on="1"/>
        <pt x="687" y="25" on="1"/>
        <pt x="682" y="0" on="1"/>
        <pt x="170" y="0" on="1"/>
      </contour>
    </TTGlyph>
    <TTGlyph name="I.sans" xMin="410" yMin="0" xMax="713" yMax="1362">
      <contour>
        <pt x="682" y="1362" on="1"/>
        <pt x="713" y="1362" on="1"/>
        <pt x="441" y="0" on="1"/>
        <pt x="410" y="0" on="1"/>
      </contour>
    </TTGlyph>
    <TTGlyph name="I.sans.prop" xMin="127" yMin="0" xMax="429" yMax="1362">
      <contour>
        <pt x="399" y="1362" on="1"/>
        <pt x="429" y="1362" on="1"/>
        <pt x="157" y="0" on="1"/>
        <pt x="127" y="0" on="1"/>
      </contour>
    </TTGlyph>
    <TTGlyph name="Iacute" xMin="66" yMin="0" xMax="1009" yMax="1870">
      <component glyphName="I" x="-104" y="0" flags="0x0"/>
      <component glyphName="acutecomb.case" x="-103" y="0" flags="0x0"/>
    </TTGlyph>
    <TTGlyph name="Ibreve" xMin="66" yMin="0" xMax="978" yMax="1815">
      <component glyphName="I" x="-104" y="0" flags="0x0"/>
      <component glyphName="uni0306.case" x="-103" y="0" flags="0x0"/>
    </TTGlyph>
    <TTGlyph name="Icircumflex" xMin="66" yMin="0" xMax="933" yMax="1870">
      <component glyphName="I" x="-104" y="0" flags="0x0"/>
      <component glyphName="uni0302.case" x="-103" y="0" flags="0x0"/>
    </TTGlyph>
    <TTGlyph name="Idieresis" xMin="66" yMin="0" xMax="860" yMax="1576">
      <component glyphName="I" x="-104" y="0" flags="0x0"/>
      <component glyphName="uni0308.case" x="-103" y="0" flags="0x0"/>
    </TTGlyph>
    <TTGlyph name="Idotaccent" xMin="66" yMin="0" xMax="850" yMax="1839">
      <component glyphName="I" x="-104" y="0" flags="0x0"/>
      <component glyphName="uni0307" x="-40" y="318" flags="0x4"/>
    </TTGlyph>
    <TTGlyph name="Igrave" xMin="66" yMin="0" xMax="850" yMax="1870">
      <component glyphName="I" x="-104" y="0" flags="0x0"/>
      <component glyphName="gravecomb.case" x="-103" y="0" flags="0x0"/>
    </TTGlyph>
    <TTGlyph name="Imacron" xMin="66" yMin="0" xMax="958" yMax="1710">
      <component glyphName="I" x="-104" y="0" flags="0x0"/>
      <component glyphName="uni0304.case" x="-103" y="0" flags="0x0"/>
    </TTGlyph>
    <TTGlyph name="Iogonek" xMin="170" yMin="-303" xMax="954" yMax="1362">
      <contour>
        <pt x="175" y="25" on="1"/>
        <pt x="416" y="28" on="1"/>
        <pt x="678" y="1334" on="1"/>
        <pt x="437" y="1337" on="1"/>
        <pt x="442" y="1362" on="1"/>
        <pt x="954" y="1362" on="1"/>
        <pt x="949" y="1337" on="1"/>
        <pt x="708" y="1334" on="1"/>
        <pt x="446" y="28" on="1"/>
        <pt x="687" y="25" on="1"/>
        <pt x="682" y="0" on="1"/>
        <pt x="682" y="0" on="1"/>
        <pt x="584" y="-25" on="0"/>
        <pt x="458" y="-117" on="0"/>
        <pt x="446" y="-182" on="1"/>
        <pt x="443" y="-196" on="0"/>
        <pt x="443" y="-208" on="1"/>
        <pt x="443" y="-241" on="0"/>
        <pt x="487" y="-274" on="0"/>
        <pt x="528" y="-275" on="1"/>
        <pt x="566" y="-273" on="0"/>
        <pt x="605" y="-255" on="1"/>
        <pt x="606" y="-283" on="1"/>
        <pt x="561" y="-303" on="0"/>
        <pt x="517" y="-303" on="1"/>
        <pt x="467" y="-303" on="0"/>
        <pt x="411" y="-258" on="0"/>
        <pt x="411" y="-216" on="1"/>
        <pt x="411" y="-202" on="0"/>
        <pt x="414" y="-187" on="1"/>
        <pt x="428" y="-122" on="0"/>
        <pt x="545" y="-28" on="0"/>
        <pt x="633" y="0" on="1"/>
        <pt x="170" y="0" on="1"/>
      </contour>
    </TTGlyph>
    <TTGlyph name="Itilde" xMin="66" yMin="0" xMax="1004" yMax="1789">
      <component glyphName="I" x="-104" y="0" flags="0x0"/>
      <component glyphName="tildecomb.case" x="-103" y="0" flags="0x0"/>
    </TTGlyph>
    <TTGlyph name="J" xMin="108" yMin="-23" xMax="969" yMax="1362">
      <contour>
        <pt x="283" y="-23" on="0"/>
        <pt x="155" y="85" on="0"/>
        <pt x="108" y="190" on="1"/>
        <pt x="130" y="206" on="1"/>
        <pt x="174" y="106" on="0"/>
        <pt x="293" y="6" on="0"/>
        <pt x="383" y="5" on="1"/>
        <pt x="468" y="5" on="0"/>
        <pt x="614" y="95" on="0"/>
        <pt x="719" y="262" on="0"/>
        <pt x="742" y="375" on="1"/>
        <pt x="934" y="1334" on="1"/>
        <pt x="436" y="1334" on="1"/>
        <pt x="441" y="1362" on="1"/>
        <pt x="969" y="1362" on="1"/>
        <pt x="773" y="383" on="1"/>
        <pt x="747" y="258" on="0"/>
        <pt x="633" y="74" on="0"/>
        <pt x="473" y="-23" on="0"/>
        <pt x="380" y="-23" on="1"/>
      </contour>
    </TTGlyph>
    <TTGlyph name="Jcircumflex" xMin="4" yMin="-23" xMax="963" yMax="1870">
      <component glyphName="J" x="-104" y="0" flags="0x0"/>
      <component glyphName="uni0302.case" x="-73" y="0" flags="0x0"/>
    </TTGlyph>
    <TTGlyph name="K" xMin="94" yMin="0" xMax="1059" yMax="1362">
      <contour>
        <pt x="366" y="1362" on="1"/>
        <pt x="396" y="1362" on="1"/>
        <pt x="264" y="702" on="1"/>
        <pt x="1021" y="1362" on="1"/>
        <pt x="1059" y="1362" on="1"/>
        <pt x="291" y="696" on="1"/>
        <pt x="817" y="0" on="1"/>
        <pt x="777" y="0" on="1"/>
        <pt x="261" y="687" on="1"/>
        <pt x="124" y="0" on="1"/>
        <pt x="94" y="0" on="1"/>
      </contour>
    </TTGlyph>
    <TTGlyph name="L" xMin="94" yMin="0" xMax="762" yMax="1362">
      <contour>
        <pt x="366" y="1362" on="1"/>
        <pt x="396" y="1362" on="1"/>
        <pt x="129" y="28" on="1"/>
        <pt x="762" y="28" on="1"/>
        <pt x="757" y="0" on="1"/>
        <pt x="94" y="0" on="1"/>
      </contour>
    </TTGlyph>
    <TTGlyph name="Lacute" xMin="-10" yMin="0" xMax="725" yMax="1870">
      <component glyphName="L" x="-104" y="0" flags="0x0"/>
      <component glyphName="acutecomb.case" x="-387" y="0" flags="0x0"/>
    </TTGlyph>
    <TTGlyph name="M" xMin="-79" yMin="0" xMax="1069" yMax="1362">
      <contour>
        <pt x="434" y="38" on="1"/>
        <pt x="1027" y="1362" on="1"/>
        <pt x="1069" y="1362" on="1"/>
        <pt x="930" y="0" on="1"/>
        <pt x="901" y="0" on="1"/>
        <pt x="1036" y="1319" on="1"/>
        <pt x="445" y="0" on="1"/>
        <pt x="407" y="0" on="1"/>
        <pt x="344" y="1319" on="1"/>
        <pt x="-50" y="0" on="1"/>
        <pt x="-79" y="0" on="1"/>
        <pt x="328" y="1362" on="1"/>
        <pt x="372" y="1362" on="1"/>
      </contour>
    </TTGlyph>
    <TTGlyph name="N" xMin="94" yMin="0" xMax="1029" yMax="1362">
      <contour>
        <pt x="366" y="1362" on="1"/>
        <pt x="399" y="1362" on="1"/>
        <pt x="744" y="78" on="1"/>
        <pt x="1001" y="1362" on="1"/>
        <pt x="1029" y="1362" on="1"/>
        <pt x="757" y="0" on="1"/>
        <pt x="732" y="0" on="1"/>
        <pt x="382" y="1300" on="1"/>
        <pt x="122" y="0" on="1"/>
        <pt x="94" y="0" on="1"/>
      </contour>
    </TTGlyph>
    <TTGlyph name="Nacute" xMin="-10" yMin="0" xMax="1008" yMax="1870">
      <component glyphName="N" x="-104" y="0" flags="0x0"/>
      <component glyphName="acutecomb.case" x="-104" y="0" flags="0x0"/>
    </TTGlyph>
    <TTGlyph name="Ncaron" xMin="-10" yMin="0" xMax="1011" yMax="1870">
      <component glyphName="N" x="-104" y="0" flags="0x0"/>
      <component glyphName="uni030C.case" x="-104" y="0" flags="0x0"/>
    </TTGlyph>
    <TTGlyph name="Ntilde" xMin="-10" yMin="0" xMax="1003" yMax="1789">
      <component glyphName="N" x="-104" y="0" flags="0x0"/>
      <component glyphName="tildecomb.case" x="-104" y="0" flags="0x0"/>
    </TTGlyph>
    <TTGlyph name="O" xMin="143" yMin="-19" xMax="981" yMax="1380">
      <contour>
        <pt x="143" y="-19" on="0"/>
        <pt x="143" y="354" on="1"/>
        <pt x="143" y="489" on="0"/>
        <pt x="181" y="682" on="1"/>
        <pt x="250" y="1025" on="0"/>
        <pt x="513" y="1380" on="0"/>
        <pt x="700" y="1380" on="1"/>
        <pt x="842" y="1380" on="0"/>
        <pt x="981" y="1199" on="0"/>
        <pt x="981" y="1014" on="1"/>
        <pt x="981" y="875" on="0"/>
        <pt x="942" y="680" on="1"/>
        <pt x="898" y="460" on="0"/>
        <pt x="745" y="146" on="0"/>
        <pt x="542" y="-19" on="0"/>
        <pt x="422" y="-19" on="1"/>
      </contour>
      <contour>
        <pt x="537" y="8" on="0"/>
        <pt x="726" y="165" on="0"/>
        <pt x="868" y="467" on="0"/>
        <pt x="911" y="682" on="1"/>
        <pt x="951" y="885" on="0"/>
        <pt x="951" y="1017" on="1"/>
        <pt x="951" y="1188" on="0"/>
        <pt x="826" y="1354" on="0"/>
        <pt x="697" y="1354" on="1"/>
        <pt x="523" y="1354" on="0"/>
        <pt x="279" y="1016" on="0"/>
        <pt x="212" y="680" on="1"/>
        <pt x="173" y="488" on="0"/>
        <pt x="173" y="351" on="1"/>
        <pt x="173" y="178" on="0"/>
        <pt x="298" y="8" on="0"/>
        <pt x="425" y="8" on="1"/>
      </contour>
    </TTGlyph>
    <TTGlyph name="Oacute" xMin="39" yMin="-19" xMax="1008" yMax="1870">
      <component glyphName="O" x="-104" y="0" flags="0x0"/>
      <component glyphName="acutecomb.case" x="-104" y="0" flags="0x0"/>
    </TTGlyph>
    <TTGlyph name="Obreve" xMin="39" yMin="-19" xMax="977" yMax="1815">
      <component glyphName="O" x="-104" y="0" flags="0x0"/>
      <component glyphName="uni0306.case" x="-104" y="0" flags="0x0"/>
    </TTGlyph>
    <TTGlyph name="Ocircumflex" xMin="39" yMin="-19" xMax="932" yMax="1870">
      <component glyphName="O" x="-104" y="0" flags="0x0"/>
      <component glyphName="uni0302.case" x="-104" y="0" flags="0x0"/>
    </TTGlyph>
    <TTGlyph name="Odieresis" xMin="39" yMin="-19" xMax="877" yMax="1576">
      <component glyphName="O" x="-104" y="0" flags="0x0"/>
      <component glyphName="uni0308.case" x="-104" y="0" flags="0x0"/>
    </TTGlyph>
    <TTGlyph name="Ograve" xMin="39" yMin="-19" xMax="877" yMax="1870">
      <component glyphName="O" x="-104" y="0" flags="0x0"/>
      <component glyphName="gravecomb.case" x="-104" y="0" flags="0x0"/>
    </TTGlyph>
    <TTGlyph name="Omacron" xMin="39" yMin="-19" xMax="957" yMax="1710">
      <component glyphName="O" x="-104" y="0" flags="0x0"/>
      <component glyphName="uni0304.case" x="-104" y="0" flags="0x0"/>
    </TTGlyph>
    <TTGlyph name="Otilde" xMin="39" yMin="-19" xMax="1003" yMax="1789">
      <component glyphName="O" x="-104" y="0" flags="0x0"/>
      <component glyphName="tildecomb.case" x="-104" y="0" flags="0x0"/>
    </TTGlyph>
    <TTGlyph name="P" xMin="94" yMin="0" xMax="949" yMax="1362">
      <contour>
        <pt x="366" y="1362" on="1"/>
        <pt x="625" y="1362" on="1"/>
        <pt x="788" y="1362" on="0"/>
        <pt x="949" y="1204" on="0"/>
        <pt x="949" y="1060" on="1"/>
        <pt x="949" y="999" on="0"/>
        <pt x="936" y="934" on="1"/>
        <pt x="898" y="746" on="0"/>
        <pt x="642" y="524" on="0"/>
        <pt x="435" y="523" on="1"/>
        <pt x="325" y="525" on="0"/>
        <pt x="231" y="531" on="1"/>
        <pt x="124" y="0" on="1"/>
        <pt x="94" y="0" on="1"/>
      </contour>
      <contour>
        <pt x="322" y="551" on="0"/>
        <pt x="407" y="551" on="1"/>
        <pt x="440" y="551" on="1"/>
        <pt x="634" y="551" on="0"/>
        <pt x="870" y="757" on="0"/>
        <pt x="905" y="934" on="1"/>
        <pt x="919" y="1004" on="0"/>
        <pt x="919" y="1058" on="1"/>
        <pt x="919" y="1190" on="0"/>
        <pt x="771" y="1333" on="0"/>
        <pt x="622" y="1334" on="1"/>
        <pt x="391" y="1334" on="1"/>
        <pt x="234" y="558" on="1"/>
      </contour>
    </TTGlyph>
    <TTGlyph name="Q" xMin="143" yMin="-310" xMax="981" yMax="1380">
      <contour>
        <pt x="404" y="-310" on="0"/>
        <pt x="404" y="-86" on="1"/>
        <pt x="404" y="-67" on="0"/>
        <pt x="408" y="-19" on="1"/>
        <pt x="143" y="-9" on="0"/>
        <pt x="143" y="353" on="1"/>
        <pt x="143" y="489" on="0"/>
        <pt x="181" y="682" on="1"/>
        <pt x="250" y="1025" on="0"/>
        <pt x="513" y="1380" on="0"/>
        <pt x="700" y="1380" on="1"/>
        <pt x="842" y="1380" on="0"/>
        <pt x="981" y="1199" on="0"/>
        <pt x="981" y="1014" on="1"/>
        <pt x="981" y="875" on="0"/>
        <pt x="942" y="680" on="1"/>
        <pt x="899" y="464" on="0"/>
        <pt x="751" y="154" on="0"/>
        <pt x="553" y="-14" on="0"/>
        <pt x="435" y="-20" on="1"/>
        <pt x="432" y="-55" on="0"/>
        <pt x="432" y="-84" on="1"/>
        <pt x="432" y="-188" on="0"/>
        <pt x="510" y="-282" on="0"/>
        <pt x="589" y="-283" on="1"/>
        <pt x="652" y="-282" on="0"/>
        <pt x="707" y="-258" on="1"/>
        <pt x="709" y="-285" on="1"/>
        <pt x="652" y="-310" on="0"/>
        <pt x="580" y="-310" on="1"/>
      </contour>
      <contour>
        <pt x="537" y="8" on="0"/>
        <pt x="726" y="165" on="0"/>
        <pt x="868" y="467" on="0"/>
        <pt x="911" y="682" on="1"/>
        <pt x="951" y="885" on="0"/>
        <pt x="951" y="1017" on="1"/>
        <pt x="951" y="1188" on="0"/>
        <pt x="826" y="1354" on="0"/>
        <pt x="697" y="1354" on="1"/>
        <pt x="523" y="1354" on="0"/>
        <pt x="279" y="1016" on="0"/>
        <pt x="212" y="680" on="1"/>
        <pt x="173" y="488" on="0"/>
        <pt x="173" y="351" on="1"/>
        <pt x="173" y="178" on="0"/>
        <pt x="298" y="8" on="0"/>
        <pt x="425" y="8" on="1"/>
      </contour>
    </TTGlyph>
    <TTGlyph name="R" xMin="94" yMin="0" xMax="958" yMax="1362">
      <contour>
        <pt x="366" y="1362" on="1"/>
        <pt x="625" y="1362" on="1"/>
        <pt x="791" y="1362" on="0"/>
        <pt x="958" y="1219" on="0"/>
        <pt x="958" y="1089" on="1"/>
        <pt x="958" y="1041" on="0"/>
        <pt x="948" y="992" on="1"/>
        <pt x="914" y="829" on="0"/>
        <pt x="699" y="630" on="0"/>
        <pt x="526" y="623" on="1"/>
        <pt x="789" y="0" on="1"/>
        <pt x="751" y="0" on="1"/>
        <pt x="492" y="622" on="1"/>
        <pt x="248" y="622" on="1"/>
        <pt x="124" y="0" on="1"/>
        <pt x="94" y="0" on="1"/>
      </contour>
      <contour>
        <pt x="672" y="649" on="0"/>
        <pt x="885" y="834" on="0"/>
        <pt x="916" y="993" on="1"/>
        <pt x="926" y="1040" on="0"/>
        <pt x="926" y="1087" on="1"/>
        <pt x="926" y="1205" on="0"/>
        <pt x="775" y="1333" on="0"/>
        <pt x="622" y="1334" on="1"/>
        <pt x="391" y="1334" on="1"/>
        <pt x="254" y="649" on="1"/>
        <pt x="502" y="649" on="1"/>
      </contour>
    </TTGlyph>
    <TTGlyph name="Racute" xMin="-10" yMin="0" xMax="974" yMax="1870">
      <component glyphName="R" x="-104" y="0" flags="0x0"/>
      <component glyphName="acutecomb.case" x="-138" y="0" flags="0x0"/>
    </TTGlyph>
    <TTGlyph name="Rcaron" xMin="-10" yMin="0" xMax="977" yMax="1870">
      <component glyphName="R" x="-104" y="0" flags="0x0"/>
      <component glyphName="uni030C.case" x="-138" y="0" flags="0x0"/>
    </TTGlyph>
    <TTGlyph name="S" xMin="121" yMin="-17" xMax="971" yMax="1380">
      <contour>
        <pt x="311" y="-17" on="0"/>
        <pt x="185" y="31" on="0"/>
        <pt x="121" y="82" on="1"/>
        <pt x="134" y="104" on="1"/>
        <pt x="194" y="56" on="0"/>
        <pt x="317" y="11" on="0"/>
        <pt x="385" y="11" on="1"/>
        <pt x="472" y="11" on="0"/>
        <pt x="623" y="84" on="0"/>
        <pt x="726" y="216" on="0"/>
        <pt x="743" y="299" on="1"/>
        <pt x="750" y="338" on="0"/>
        <pt x="750" y="363" on="1"/>
        <pt x="750" y="428" on="0"/>
        <pt x="696" y="536" on="0"/>
        <pt x="617" y="618" on="0"/>
        <pt x="550" y="677" on="1"/>
        <pt x="483" y="736" on="0"/>
        <pt x="401" y="821" on="0"/>
        <pt x="346" y="933" on="0"/>
        <pt x="346" y="1000" on="1"/>
        <pt x="346" y="1033" on="0"/>
        <pt x="353" y="1067" on="1"/>
        <pt x="371" y="1157" on="0"/>
        <pt x="475" y="1300" on="0"/>
        <pt x="624" y="1380" on="0"/>
        <pt x="707" y="1380" on="1"/>
        <pt x="775" y="1380" on="0"/>
        <pt x="916" y="1332" on="0"/>
        <pt x="971" y="1291" on="1"/>
        <pt x="957" y="1269" on="1"/>
        <pt x="906" y="1308" on="0"/>
        <pt x="770" y="1352" on="0"/>
        <pt x="705" y="1353" on="1"/>
        <pt x="630" y="1353" on="0"/>
        <pt x="495" y="1278" on="0"/>
        <pt x="400" y="1148" on="0"/>
        <pt x="384" y="1067" on="1"/>
        <pt x="378" y="1034" on="0"/>
        <pt x="378" y="1005" on="1"/>
        <pt x="378" y="942" on="0"/>
        <pt x="431" y="838" on="0"/>
        <pt x="508" y="757" on="0"/>
        <pt x="573" y="700" on="1"/>
        <pt x="642" y="640" on="0"/>
        <pt x="724" y="554" on="0"/>
        <pt x="780" y="439" on="0"/>
        <pt x="780" y="369" on="1"/>
        <pt x="780" y="333" on="0"/>
        <pt x="773" y="298" on="1"/>
        <pt x="755" y="208" on="0"/>
        <pt x="642" y="64" on="0"/>
        <pt x="477" y="-17" on="0"/>
        <pt x="383" y="-17" on="1"/>
      </contour>
    </TTGlyph>
    <TTGlyph name="Sacute" xMin="17" yMin="-17" xMax="1018" yMax="1870">
      <component glyphName="S" x="-104" y="0" flags="0x0"/>
      <component glyphName="acutecomb.case" x="-94" y="0" flags="0x0"/>
    </TTGlyph>
    <TTGlyph name="Scaron" xMin="17" yMin="-17" xMax="1021" yMax="1870">
      <component glyphName="S" x="-104" y="0" flags="0x0"/>
      <component glyphName="uni030C.case" x="-94" y="0" flags="0x0"/>
    </TTGlyph>
    <TTGlyph name="Scedilla" xMin="121" yMin="-303" xMax="971" yMax="1380">
      <contour>
        <pt x="311" y="-17" on="0"/>
        <pt x="185" y="31" on="0"/>
        <pt x="121" y="82" on="1"/>
        <pt x="134" y="104" on="1"/>
        <pt x="194" y="56" on="0"/>
        <pt x="317" y="11" on="0"/>
        <pt x="385" y="11" on="1"/>
        <pt x="398" y="11" on="0"/>
        <pt x="422" y="13" on="1"/>
        <pt x="424" y="26" on="1"/>
        <pt x="491" y="26" on="1"/>
        <pt x="587" y="54" on="0"/>
        <pt x="723" y="200" on="0"/>
        <pt x="743" y="299" on="1"/>
        <pt x="750" y="338" on="0"/>
        <pt x="750" y="363" on="1"/>
        <pt x="750" y="428" on="0"/>
        <pt x="696" y="536" on="0"/>
        <pt x="617" y="618" on="0"/>
        <pt x="550" y="677" on="1"/>
        <pt x="483" y="736" on="0"/>
        <pt x="401" y="821" on="0"/>
        <pt x="346" y="933" on="0"/>
        <pt x="346" y="1000" on="1"/>
        <pt x="346" y="1033" on="0"/>
        <pt x="353" y="1067" on="1"/>
        <pt x="371" y="1157" on="0"/>
        <pt x="475" y="1300" on="0"/>
        <pt x="624" y="1380" on="0"/>
        <pt x="707" y="1380" on="1"/>
        <pt x="775" y="1380" on="0"/>
        <pt x="916" y="1332" on="0"/>
        <pt x="971" y="1291" on="1"/>
        <pt x="957" y="1269" on="1"/>
        <pt x="906" y="1308" on="0"/>
        <pt x="770" y="1352" on="0"/>
        <pt x="705" y="1353" on="1"/>
        <pt x="630" y="1353" on="0"/>
        <pt x="495" y="1278" on="0"/>
        <pt x="400" y="1148" on="0"/>
        <pt x="384" y="1067" on="1"/>
        <pt x="378" y="1034" on="0"/>
        <pt x="378" y="1005" on="1"/>
        <pt x="378" y="942" on="0"/>
        <pt x="431" y="838" on="0"/>
        <pt x="508" y="757" on="0"/>
        <pt x="573" y="700" on="1"/>
        <pt x="642" y="640" on="0"/>
        <pt x="724" y="554" on="0"/>
        <pt x="780" y="439" on="0"/>
        <pt x="780" y="369" on="1"/>
        <pt x="780" y="333" on="0"/>
        <pt x="773" y="298" on="1"/>
        <pt x="754" y="206" on="0"/>
        <pt x="641" y="62" on="0"/>
        <pt x="557" y="22" on="1"/>
        <pt x="559" y="-28" on="0"/>
        <pt x="548" y="-84" on="1"/>
        <pt x="527" y="-192" on="0"/>
        <pt x="372" y="-303" on="0"/>
        <pt x="267" y="-303" on="1"/>
        <pt x="203" y="-303" on="0"/>
        <pt x="145" y="-287" on="1"/>
        <pt x="183" y="-161" on="1"/>
        <pt x="218" y="-166" on="0"/>
        <pt x="261" y="-166" on="1"/>
        <pt x="329" y="-166" on="0"/>
        <pt x="403" y="-110" on="0"/>
        <pt x="415" y="-50" on="1"/>
        <pt x="421" y="-15" on="1"/>
        <pt x="399" y="-17" on="0"/>
        <pt x="383" y="-17" on="1"/>
      </contour>
    </TTGlyph>
    <TTGlyph name="Scircumflex" xMin="17" yMin="-17" xMax="942" yMax="1870">
      <component glyphName="S" x="-104" y="0" flags="0x0"/>
      <component glyphName="uni0302.case" x="-94" y="0" flags="0x0"/>
    </TTGlyph>
    <TTGlyph name="T" xMin="324" yMin="0" xMax="1066" yMax="1362">
      <contour>
        <pt x="677" y="1334" on="1"/>
        <pt x="324" y="1334" on="1"/>
        <pt x="329" y="1362" on="1"/>
        <pt x="1066" y="1362" on="1"/>
        <pt x="1061" y="1334" on="1"/>
        <pt x="708" y="1334" on="1"/>
        <pt x="441" y="0" on="1"/>
        <pt x="410" y="0" on="1"/>
      </contour>
    </TTGlyph>
    <TTGlyph name="Tcaron" xMin="220" yMin="0" xMax="1011" yMax="1870">
      <component glyphName="T" x="-104" y="0" flags="0x0"/>
      <component glyphName="uni030C.case" x="-104" y="0" flags="0x0"/>
    </TTGlyph>
    <TTGlyph name="Thorn" xMin="94" yMin="0" xMax="898" yMax="1362">
      <contour>
        <pt x="366" y="1362" on="1"/>
        <pt x="396" y="1362" on="1"/>
        <pt x="331" y="1036" on="1"/>
        <pt x="560" y="1036" on="1"/>
        <pt x="725" y="1036" on="0"/>
        <pt x="898" y="903" on="0"/>
        <pt x="898" y="779" on="1"/>
        <pt x="898" y="741" on="0"/>
        <pt x="889" y="697" on="1"/>
        <pt x="868" y="594" on="0"/>
        <pt x="739" y="443" on="0"/>
        <pt x="534" y="361" on="0"/>
        <pt x="403" y="361" on="1"/>
        <pt x="288" y="361" on="0"/>
        <pt x="199" y="369" on="1"/>
        <pt x="124" y="0" on="1"/>
        <pt x="94" y="0" on="1"/>
      </contour>
      <contour>
        <pt x="271" y="391" on="0"/>
        <pt x="404" y="389" on="1"/>
        <pt x="592" y="390" on="0"/>
        <pt x="829" y="552" on="0"/>
        <pt x="857" y="698" on="1"/>
        <pt x="866" y="740" on="0"/>
        <pt x="866" y="778" on="1"/>
        <pt x="866" y="891" on="0"/>
        <pt x="709" y="1010" on="0"/>
        <pt x="557" y="1009" on="1"/>
        <pt x="326" y="1009" on="1"/>
        <pt x="202" y="396" on="1"/>
      </contour>
    </TTGlyph>
    <TTGlyph name="U" xMin="154" yMin="-23" xMax="1023" yMax="1362">
      <contour>
        <pt x="290" y="-23" on="0"/>
        <pt x="154" y="113" on="0"/>
        <pt x="154" y="242" on="1"/>
        <pt x="154" y="301" on="0"/>
        <pt x="167" y="366" on="1"/>
        <pt x="366" y="1362" on="1"/>
        <pt x="396" y="1362" on="1"/>
        <pt x="197" y="365" on="1"/>
        <pt x="184" y="301" on="0"/>
        <pt x="184" y="245" on="1"/>
        <pt x="184" y="127" on="0"/>
        <pt x="307" y="6" on="0"/>
        <pt x="426" y="6" on="1"/>
        <pt x="511" y="6" on="0"/>
        <pt x="662" y="89" on="0"/>
        <pt x="774" y="259" on="0"/>
        <pt x="799" y="383" on="1"/>
        <pt x="995" y="1362" on="1"/>
        <pt x="1023" y="1362" on="1"/>
        <pt x="827" y="381" on="1"/>
        <pt x="800" y="249" on="0"/>
        <pt x="679" y="67" on="0"/>
        <pt x="514" y="-23" on="0"/>
        <pt x="421" y="-23" on="1"/>
      </contour>
    </TTGlyph>
    <TTGlyph name="Uacute" xMin="50" yMin="-23" xMax="1018" yMax="1870">
      <component glyphName="U" x="-104" y="0" flags="0x0"/>
      <component glyphName="acutecomb.case" x="-94" y="0" flags="0x0"/>
    </TTGlyph>
    <TTGlyph name="Ubreve" xMin="50" yMin="-23" xMax="987" yMax="1815">
      <component glyphName="U" x="-104" y="0" flags="0x0"/>
      <component glyphName="uni0306.case" x="-94" y="0" flags="0x0"/>
    </TTGlyph>
    <TTGlyph name="Ucircumflex" xMin="50" yMin="-23" xMax="942" yMax="1870">
      <component glyphName="U" x="-104" y="0" flags="0x0"/>
      <component glyphName="uni0302.case" x="-94" y="0" flags="0x0"/>
    </TTGlyph>
    <TTGlyph name="Udieresis" xMin="50" yMin="-23" xMax="919" yMax="1576">
      <component glyphName="U" x="-104" y="0" flags="0x0"/>
      <component glyphName="uni0308.case" x="-94" y="0" flags="0x0"/>
    </TTGlyph>
    <TTGlyph name="Ugrave" xMin="50" yMin="-23" xMax="919" yMax="1870">
      <component glyphName="U" x="-104" y="0" flags="0x0"/>
      <component glyphName="gravecomb.case" x="-94" y="0" flags="0x0"/>
    </TTGlyph>
    <TTGlyph name="Umacron" xMin="50" yMin="-23" xMax="967" yMax="1710">
      <component glyphName="U" x="-104" y="0" flags="0x0"/>
      <component glyphName="uni0304.case" x="-94" y="0" flags="0x0"/>
    </TTGlyph>
    <TTGlyph name="Uogonek" xMin="154" yMin="-303" xMax="1023" yMax="1362">
      <contour>
        <pt x="290" y="-23" on="0"/>
        <pt x="154" y="113" on="0"/>
        <pt x="154" y="242" on="1"/>
        <pt x="154" y="301" on="0"/>
        <pt x="167" y="366" on="1"/>
        <pt x="366" y="1362" on="1"/>
        <pt x="396" y="1362" on="1"/>
        <pt x="197" y="365" on="1"/>
        <pt x="184" y="301" on="0"/>
        <pt x="184" y="245" on="1"/>
        <pt x="184" y="127" on="0"/>
        <pt x="307" y="6" on="0"/>
        <pt x="426" y="6" on="1"/>
        <pt x="511" y="6" on="0"/>
        <pt x="662" y="89" on="0"/>
        <pt x="774" y="259" on="0"/>
        <pt x="799" y="383" on="1"/>
        <pt x="995" y="1362" on="1"/>
        <pt x="1023" y="1362" on="1"/>
        <pt x="827" y="381" on="1"/>
        <pt x="793" y="213" on="0"/>
        <pt x="617" y="11" on="0"/>
        <pt x="499" y="-15" on="1"/>
        <pt x="421" y="-42" on="0"/>
        <pt x="323" y="-126" on="0"/>
        <pt x="312" y="-182" on="1"/>
        <pt x="309" y="-196" on="0"/>
        <pt x="309" y="-208" on="1"/>
        <pt x="309" y="-241" on="0"/>
        <pt x="353" y="-274" on="0"/>
        <pt x="394" y="-275" on="1"/>
        <pt x="432" y="-273" on="0"/>
        <pt x="471" y="-255" on="1"/>
        <pt x="472" y="-283" on="1"/>
        <pt x="427" y="-303" on="0"/>
        <pt x="383" y="-303" on="1"/>
        <pt x="333" y="-303" on="0"/>
        <pt x="277" y="-258" on="0"/>
        <pt x="277" y="-216" on="1"/>
        <pt x="277" y="-202" on="0"/>
        <pt x="280" y="-187" on="1"/>
        <pt x="291" y="-133" on="0"/>
        <pt x="376" y="-50" on="0"/>
        <pt x="442" y="-23" on="1"/>
        <pt x="421" y="-23" on="1"/>
      </contour>
    </TTGlyph>
    <TTGlyph name="Uring" xMin="50" yMin="-23" xMax="919" yMax="1902">
      <component glyphName="U" x="-104" y="0" flags="0x0"/>
      <component glyphName="uni030A.case" x="-94" y="0" flags="0x0"/>
    </TTGlyph>
    <TTGlyph name="Utilde" xMin="50" yMin="-23" xMax="1013" yMax="1789">
      <component glyphName="U" x="-104" y="0" flags="0x0"/>
      <component glyphName="tildecomb.case" x="-94" y="0" flags="0x0"/>
    </TTGlyph>
    <TTGlyph name="V" xMin="281" yMin="0" xMax="1113" yMax="1362">
      <contour>
        <pt x="281" y="1362" on="1"/>
        <pt x="315" y="1362" on="1"/>
        <pt x="434" y="45" on="1"/>
        <pt x="1083" y="1362" on="1"/>
        <pt x="1113" y="1362" on="1"/>
        <pt x="440" y="0" on="1"/>
        <pt x="409" y="0" on="1"/>
      </contour>
    </TTGlyph>
    <TTGlyph name="W" xMin="120" yMin="0" xMax="1256" yMax="1362">
      <contour>
        <pt x="687" y="1315" on="1"/>
        <pt x="161" y="0" on="1"/>
        <pt x="120" y="0" on="1"/>
        <pt x="139" y="1362" on="1"/>
        <pt x="168" y="1362" on="1"/>
        <pt x="149" y="36" on="1"/>
        <pt x="679" y="1362" on="1"/>
        <pt x="716" y="1362" on="1"/>
        <pt x="717" y="39" on="1"/>
        <pt x="1227" y="1362" on="1"/>
        <pt x="1256" y="1362" on="1"/>
        <pt x="731" y="0" on="1"/>
        <pt x="688" y="0" on="1"/>
      </contour>
    </TTGlyph>
    <TTGlyph name="Wacute" xMin="16" yMin="0" xMax="1152" yMax="1870">
      <component glyphName="W" x="-104" y="0" flags="0x0"/>
      <component glyphName="acutecomb.case" x="-103" y="0" flags="0x0"/>
    </TTGlyph>
    <TTGlyph name="Wcircumflex" xMin="16" yMin="0" xMax="1152" yMax="1870">
      <component glyphName="W" x="-104" y="0" flags="0x0"/>
      <component glyphName="uni0302.case" x="-103" y="0" flags="0x0"/>
    </TTGlyph>
    <TTGlyph name="Wdieresis" xMin="16" yMin="0" xMax="1152" yMax="1576">
      <component glyphName="W" x="-104" y="0" flags="0x0"/>
      <component glyphName="uni0308.case" x="-103" y="0" flags="0x0"/>
    </TTGlyph>
    <TTGlyph name="Wgrave" xMin="16" yMin="0" xMax="1152" yMax="1870">
      <component glyphName="W" x="-104" y="0" flags="0x0"/>
      <component glyphName="gravecomb.case" x="-103" y="0" flags="0x0"/>
    </TTGlyph>
    <TTGlyph name="X" xMin="52" yMin="0" xMax="1063" yMax="1362">
      <contour>
        <pt x="579" y="679" on="1"/>
        <pt x="84" y="0" on="1"/>
        <pt x="52" y="0" on="1"/>
        <pt x="571" y="708" on="1"/>
        <pt x="391" y="1362" on="1"/>
        <pt x="424" y="1362" on="1"/>
        <pt x="598" y="731" on="1"/>
        <pt x="1032" y="1362" on="1"/>
        <pt x="1063" y="1362" on="1"/>
        <pt x="606" y="701" on="1"/>
        <pt x="799" y="0" on="1"/>
        <pt x="766" y="0" on="1"/>
      </contour>
    </TTGlyph>
    <TTGlyph name="Y" xMin="317" yMin="0" xMax="1090" yMax="1362">
      <contour>
        <pt x="532" y="605" on="1"/>
        <pt x="317" y="1362" on="1"/>
        <pt x="351" y="1362" on="1"/>
        <pt x="555" y="636" on="1"/>
        <pt x="1059" y="1362" on="1"/>
        <pt x="1090" y="1362" on="1"/>
        <pt x="562" y="605" on="1"/>
        <pt x="441" y="0" on="1"/>
        <pt x="411" y="0" on="1"/>
      </contour>
    </TTGlyph>
    <TTGlyph name="Yacute" xMin="213" yMin="0" xMax="1018" yMax="1870">
      <component glyphName="Y" x="-104" y="0" flags="0x0"/>
      <component glyphName="acutecomb.case" x="-94" y="0" flags="0x0"/>
    </TTGlyph>
    <TTGlyph name="Ycircumflex" xMin="213" yMin="0" xMax="986" yMax="1870">
      <component glyphName="Y" x="-104" y="0" flags="0x0"/>
      <component glyphName="uni0302.case" x="-94" y="0" flags="0x0"/>
    </TTGlyph>
    <TTGlyph name="Ydieresis" xMin="213" yMin="0" xMax="986" yMax="1576">
      <component glyphName="Y" x="-104" y="0" flags="0x0"/>
      <component glyphName="uni0308.case" x="-94" y="0" flags="0x0"/>
    </TTGlyph>
    <TTGlyph name="Ygrave" xMin="213" yMin="0" xMax="986" yMax="1870">
      <component glyphName="Y" x="-104" y="0" flags="0x0"/>
      <component glyphName="gravecomb.case" x="-94" y="0" flags="0x0"/>
    </TTGlyph>
    <TTGlyph name="Z" xMin="124" yMin="0" xMax="999" yMax="1362">
      <contour>
        <pt x="128" y="24" on="1"/>
        <pt x="959" y="1334" on="1"/>
        <pt x="391" y="1334" on="1"/>
        <pt x="396" y="1362" on="1"/>
        <pt x="999" y="1362" on="1"/>
        <pt x="994" y="1337" on="1"/>
        <pt x="164" y="28" on="1"/>
        <pt x="732" y="28" on="1"/>
        <pt x="727" y="0" on="1"/>
        <pt x="124" y="0" on="1"/>
      </contour>
    </TTGlyph>
    <TTGlyph name="Zacute" xMin="20" yMin="0" xMax="1018" yMax="1870">
      <component glyphName="Z" x="-104" y="0" flags="0x0"/>
      <component glyphName="acutecomb.case" x="-94" y="0" flags="0x0"/>
    </TTGlyph>
    <TTGlyph name="Zcaron" xMin="20" yMin="0" xMax="1021" yMax="1870">
      <component glyphName="Z" x="-104" y="0" flags="0x0"/>
      <component glyphName="uni030C.case" x="-94" y="0" flags="0x0"/>
    </TTGlyph>
    <TTGlyph name="Zdotaccent" xMin="20" yMin="0" xMax="895" yMax="1839">
      <component glyphName="Z" x="-104" y="0" flags="0x0"/>
      <component glyphName="uni0307" x="-31" y="318" flags="0x4"/>
    </TTGlyph>
    <TTGlyph name="a" xMin="100" yMin="-15" xMax="886" yMax="1070">
      <contour>
        <pt x="196" y="-15" on="0"/>
        <pt x="100" y="86" on="0"/>
        <pt x="100" y="171" on="1"/>
        <pt x="100" y="195" on="0"/>
        <pt x="107" y="235" on="1"/>
        <pt x="128" y="337" on="0"/>
        <pt x="277" y="484" on="0"/>
        <pt x="519" y="561" on="0"/>
        <pt x="677" y="561" on="1"/>
        <pt x="812" y="561" on="1"/>
        <pt x="843" y="716" on="1"/>
        <pt x="855" y="778" on="0"/>
        <pt x="855" y="828" on="1"/>
        <pt x="855" y="1042" on="0"/>
        <pt x="635" y="1042" on="1"/>
        <pt x="519" y="1042" on="0"/>
        <pt x="330" y="979" on="1"/>
        <pt x="326" y="1004" on="1"/>
        <pt x="524" y="1070" on="0"/>
        <pt x="644" y="1070" on="1"/>
        <pt x="764" y="1070" on="0"/>
        <pt x="886" y="949" on="0"/>
        <pt x="886" y="832" on="1"/>
        <pt x="886" y="779" on="0"/>
        <pt x="874" y="716" on="1"/>
        <pt x="731" y="0" on="1"/>
        <pt x="700" y="0" on="1"/>
        <pt x="760" y="301" on="1"/>
        <pt x="607" y="160" on="1"/>
        <pt x="498" y="61" on="0"/>
        <pt x="354" y="-15" on="0"/>
        <pt x="280" y="-15" on="1"/>
      </contour>
      <contour>
        <pt x="356" y="13" on="0"/>
        <pt x="493" y="89" on="0"/>
        <pt x="605" y="188" on="1"/>
        <pt x="766" y="334" on="1"/>
        <pt x="807" y="536" on="1"/>
        <pt x="676" y="536" on="1"/>
        <pt x="527" y="536" on="0"/>
        <pt x="298" y="464" on="0"/>
        <pt x="156" y="329" on="0"/>
        <pt x="138" y="235" on="1"/>
        <pt x="131" y="197" on="0"/>
        <pt x="131" y="173" on="1"/>
        <pt x="131" y="99" on="0"/>
        <pt x="214" y="13" on="0"/>
        <pt x="288" y="12" on="1"/>
      </contour>
    </TTGlyph>
    <TTGlyph name="aacute" xMin="-4" yMin="-15" xMax="962" yMax="1643">
      <component glyphName="a" x="-104" y="0" flags="0x0"/>
      <component glyphName="acutecomb" x="-104" y="0" flags="0x0"/>
    </TTGlyph>
    <TTGlyph name="abreve" xMin="-4" yMin="-15" xMax="932" yMax="1588">
      <component glyphName="a" x="-104" y="0" flags="0x0"/>
      <component glyphName="uni0306" x="-104" y="0" flags="0x0"/>
    </TTGlyph>
    <TTGlyph name="acircumflex" xMin="-4" yMin="-15" xMax="886" yMax="1643">
      <component glyphName="a" x="-104" y="0" flags="0x0"/>
      <component glyphName="uni0302" x="-104" y="0" flags="0x0"/>
    </TTGlyph>
    <TTGlyph name="acute" xMin="393" yMin="756" xMax="926" yMax="1362">
      <contour>
        <pt x="393" y="756" on="1"/>
        <pt x="652" y="1362" on="1"/>
        <pt x="926" y="1362" on="1"/>
        <pt x="520" y="756" on="1"/>
      </contour>
    </TTGlyph>
    <TTGlyph name="acutecomb" xMin="582" yMin="1248" xMax="1066" yMax="1643">
      <contour>
        <pt x="806" y="1643" on="1"/>
        <pt x="1066" y="1643" on="1"/>
        <pt x="724" y="1248" on="1"/>
        <pt x="582" y="1248" on="1"/>
      </contour>
    </TTGlyph>
    <TTGlyph name="acutecomb.case" xMin="628" yMin="1475" xMax="1112" yMax="1870">
      <contour>
        <pt x="852" y="1870" on="1"/>
        <pt x="1112" y="1870" on="1"/>
        <pt x="770" y="1475" on="1"/>
        <pt x="628" y="1475" on="1"/>
      </contour>
    </TTGlyph>
    <TTGlyph name="adieresis" xMin="-4" yMin="-15" xMax="848" yMax="1519">
      <component glyphName="a" x="-104" y="0" flags="0x0"/>
      <component glyphName="uni0308" x="-104" y="0" flags="0x0"/>
    </TTGlyph>
    <TTGlyph name="agrave" xMin="-4" yMin="-15" xMax="782" yMax="1643">
      <component glyphName="a" x="-104" y="0" flags="0x0"/>
      <component glyphName="gravecomb" x="-104" y="0" flags="0x0"/>
    </TTGlyph>
    <TTGlyph name="amacron" xMin="-4" yMin="-15" xMax="869" yMax="1505">
      <component glyphName="a" x="-104" y="0" flags="0x0"/>
      <component glyphName="uni0304" x="-104" y="0" flags="0x0"/>
    </TTGlyph>
    <TTGlyph name="ampersand" xMin="-10" yMin="-17" xMax="1070" yMax="1377">
      <contour>
        <pt x="173" y="-17" on="0"/>
        <pt x="-10" y="120" on="0"/>
        <pt x="-10" y="246" on="1"/>
        <pt x="-10" y="279" on="0"/>
        <pt x="-2" y="322" on="1"/>
        <pt x="22" y="439" on="0"/>
        <pt x="164" y="605" on="0"/>
        <pt x="277" y="678" on="1"/>
        <pt x="248" y="735" on="0"/>
        <pt x="221" y="842" on="0"/>
        <pt x="221" y="900" on="1"/>
        <pt x="221" y="958" on="0"/>
        <pt x="234" y="1022" on="1"/>
        <pt x="256" y="1132" on="0"/>
        <pt x="377" y="1293" on="0"/>
        <pt x="543" y="1377" on="0"/>
        <pt x="631" y="1377" on="1"/>
        <pt x="713" y="1377" on="0"/>
        <pt x="827" y="1317" on="0"/>
        <pt x="884" y="1213" on="0"/>
        <pt x="884" y="1147" on="1"/>
        <pt x="884" y="1111" on="0"/>
        <pt x="877" y="1079" on="1"/>
        <pt x="858" y="985" on="0"/>
        <pt x="746" y="841" on="0"/>
        <pt x="605" y="741" on="0"/>
        <pt x="491" y="674" on="1"/>
        <pt x="468" y="661" on="1"/>
        <pt x="511" y="596" on="0"/>
        <pt x="580" y="513" on="1"/>
        <pt x="742" y="320" on="1"/>
        <pt x="807" y="405" on="0"/>
        <pt x="897" y="628" on="0"/>
        <pt x="919" y="757" on="1"/>
        <pt x="1070" y="755" on="1"/>
        <pt x="1041" y="595" on="0"/>
        <pt x="918" y="321" on="0"/>
        <pt x="827" y="217" on="1"/>
        <pt x="1008" y="0" on="1"/>
        <pt x="804" y="0" on="1"/>
        <pt x="713" y="110" on="1"/>
        <pt x="544" y="-17" on="0"/>
        <pt x="339" y="-17" on="1"/>
      </contour>
      <contour>
        <pt x="149" y="300" on="0"/>
        <pt x="149" y="280" on="1"/>
        <pt x="149" y="206" on="0"/>
        <pt x="257" y="119" on="0"/>
        <pt x="364" y="119" on="1"/>
        <pt x="510" y="119" on="0"/>
        <pt x="630" y="209" on="1"/>
        <pt x="451" y="428" on="1"/>
        <pt x="381" y="513" on="0"/>
        <pt x="337" y="575" on="1"/>
        <pt x="263" y="521" on="0"/>
        <pt x="169" y="403" on="0"/>
        <pt x="154" y="328" on="1"/>
      </contour>
      <contour>
        <pt x="375" y="961" on="0"/>
        <pt x="375" y="923" on="1"/>
        <pt x="375" y="842" on="0"/>
        <pt x="413" y="762" on="1"/>
        <pt x="503" y="816" on="0"/>
        <pt x="617" y="899" on="0"/>
        <pt x="702" y="1007" on="0"/>
        <pt x="716" y="1075" on="1"/>
        <pt x="720" y="1095" on="0"/>
        <pt x="720" y="1118" on="1"/>
        <pt x="720" y="1176" on="0"/>
        <pt x="656" y="1244" on="0"/>
        <pt x="600" y="1244" on="1"/>
        <pt x="522" y="1244" on="0"/>
        <pt x="408" y="1126" on="0"/>
        <pt x="385" y="1014" on="1"/>
      </contour>
    </TTGlyph>
    <TTGlyph name="aogonek" xMin="100" yMin="-303" xMax="886" yMax="1070">
      <contour>
        <pt x="196" y="-15" on="0"/>
        <pt x="100" y="86" on="0"/>
        <pt x="100" y="171" on="1"/>
        <pt x="100" y="195" on="0"/>
        <pt x="107" y="235" on="1"/>
        <pt x="128" y="337" on="0"/>
        <pt x="277" y="484" on="0"/>
        <pt x="519" y="561" on="0"/>
        <pt x="677" y="561" on="1"/>
        <pt x="812" y="561" on="1"/>
        <pt x="843" y="716" on="1"/>
        <pt x="855" y="778" on="0"/>
        <pt x="855" y="828" on="1"/>
        <pt x="855" y="1042" on="0"/>
        <pt x="635" y="1042" on="1"/>
        <pt x="519" y="1042" on="0"/>
        <pt x="330" y="979" on="1"/>
        <pt x="326" y="1004" on="1"/>
        <pt x="524" y="1070" on="0"/>
        <pt x="644" y="1070" on="1"/>
        <pt x="764" y="1070" on="0"/>
        <pt x="886" y="949" on="0"/>
        <pt x="886" y="832" on="1"/>
        <pt x="886" y="779" on="0"/>
        <pt x="874" y="716" on="1"/>
        <pt x="731" y="0" on="1"/>
        <pt x="731" y="0" on="1"/>
        <pt x="633" y="-25" on="0"/>
        <pt x="507" y="-117" on="0"/>
        <pt x="495" y="-182" on="1"/>
        <pt x="492" y="-196" on="0"/>
        <pt x="492" y="-208" on="1"/>
        <pt x="492" y="-241" on="0"/>
        <pt x="536" y="-274" on="0"/>
        <pt x="577" y="-275" on="1"/>
        <pt x="615" y="-273" on="0"/>
        <pt x="654" y="-255" on="1"/>
        <pt x="655" y="-283" on="1"/>
        <pt x="610" y="-303" on="0"/>
        <pt x="566" y="-303" on="1"/>
        <pt x="516" y="-303" on="0"/>
        <pt x="460" y="-258" on="0"/>
        <pt x="460" y="-216" on="1"/>
        <pt x="460" y="-202" on="0"/>
        <pt x="463" y="-187" on="1"/>
        <pt x="477" y="-119" on="0"/>
        <pt x="605" y="-22" on="0"/>
        <pt x="700" y="6" on="1"/>
        <pt x="760" y="301" on="1"/>
        <pt x="607" y="160" on="1"/>
        <pt x="498" y="61" on="0"/>
        <pt x="354" y="-15" on="0"/>
        <pt x="280" y="-15" on="1"/>
      </contour>
      <contour>
        <pt x="356" y="13" on="0"/>
        <pt x="493" y="89" on="0"/>
        <pt x="605" y="188" on="1"/>
        <pt x="766" y="334" on="1"/>
        <pt x="807" y="536" on="1"/>
        <pt x="676" y="536" on="1"/>
        <pt x="527" y="536" on="0"/>
        <pt x="298" y="464" on="0"/>
        <pt x="156" y="329" on="0"/>
        <pt x="138" y="235" on="1"/>
        <pt x="131" y="197" on="0"/>
        <pt x="131" y="173" on="1"/>
        <pt x="131" y="99" on="0"/>
        <pt x="214" y="13" on="0"/>
        <pt x="288" y="12" on="1"/>
      </contour>
    </TTGlyph>
    <TTGlyph name="aring" xMin="-4" yMin="-15" xMax="857" yMax="1675">
      <component glyphName="a" x="-104" y="0" flags="0x0"/>
      <component glyphName="uni030A" x="-104" y="0" flags="0x0"/>
    </TTGlyph>
    <TTGlyph name="arrowdown" xMin="36" yMin="-43" xMax="973" yMax="1362">
      <contour>
        <pt x="36" y="399" on="1"/>
        <pt x="139" y="488" on="1"/>
        <pt x="387" y="189" on="1"/>
        <pt x="622" y="1362" on="1"/>
        <pt x="773" y="1362" on="1"/>
        <pt x="538" y="189" on="1"/>
        <pt x="906" y="488" on="1"/>
        <pt x="973" y="399" on="1"/>
        <pt x="454" y="-43" on="1"/>
        <pt x="379" y="-43" on="1"/>
      </contour>
    </TTGlyph>
    <TTGlyph name="arrowleft" xMin="-19" yMin="202" xMax="1102" yMax="1140">
      <contour>
        <pt x="-19" y="643" on="1"/>
        <pt x="-7" y="700" on="1"/>
        <pt x="523" y="1140" on="1"/>
        <pt x="595" y="1055" on="1"/>
        <pt x="226" y="738" on="1"/>
        <pt x="1102" y="738" on="1"/>
        <pt x="1076" y="605" on="1"/>
        <pt x="200" y="605" on="1"/>
        <pt x="441" y="287" on="1"/>
        <pt x="335" y="202" on="1"/>
      </contour>
    </TTGlyph>
    <TTGlyph name="arrowright" xMin="17" yMin="202" xMax="1138" yMax="1140">
      <contour>
        <pt x="524" y="287" on="1"/>
        <pt x="893" y="605" on="1"/>
        <pt x="17" y="605" on="1"/>
        <pt x="43" y="738" on="1"/>
        <pt x="919" y="738" on="1"/>
        <pt x="678" y="1055" on="1"/>
        <pt x="784" y="1140" on="1"/>
        <pt x="1138" y="700" on="1"/>
        <pt x="1126" y="643" on="1"/>
        <pt x="596" y="202" on="1"/>
      </contour>
    </TTGlyph>
    <TTGlyph name="arrowup" xMin="149" yMin="0" xMax="1086" yMax="1405">
      <contour>
        <pt x="584" y="1172" on="1"/>
        <pt x="217" y="874" on="1"/>
        <pt x="149" y="963" on="1"/>
        <pt x="669" y="1405" on="1"/>
        <pt x="744" y="1405" on="1"/>
        <pt x="1086" y="963" on="1"/>
        <pt x="984" y="874" on="1"/>
        <pt x="735" y="1172" on="1"/>
        <pt x="501" y="0" on="1"/>
        <pt x="350" y="0" on="1"/>
      </contour>
    </TTGlyph>
    <TTGlyph name="asciicircum" xMin="111" yMin="303" xMax="867" yMax="1210">
      <contour>
        <pt x="255" y="303" on="1"/>
        <pt x="627" y="1027" on="1"/>
        <pt x="709" y="303" on="1"/>
        <pt x="867" y="303" on="1"/>
        <pt x="747" y="1210" on="1"/>
        <pt x="596" y="1210" on="1"/>
        <pt x="111" y="303" on="1"/>
      </contour>
    </TTGlyph>
    <TTGlyph name="asciitilde" xMin="3" yMin="458" xMax="1123" yMax="904">
      <contour>
        <pt x="39" y="696" on="0"/>
        <pt x="233" y="904" on="0"/>
        <pt x="385" y="904" on="1"/>
        <pt x="457" y="904" on="0"/>
        <pt x="553" y="853" on="0"/>
        <pt x="608" y="780" on="0"/>
        <pt x="639" y="723" on="1"/>
        <pt x="662" y="680" on="0"/>
        <pt x="697" y="631" on="0"/>
        <pt x="747" y="598" on="0"/>
        <pt x="782" y="598" on="1"/>
        <pt x="856" y="598" on="0"/>
        <pt x="955" y="734" on="0"/>
        <pt x="984" y="901" on="1"/>
        <pt x="1123" y="899" on="1"/>
        <pt x="1086" y="667" on="0"/>
        <pt x="888" y="458" on="0"/>
        <pt x="737" y="458" on="1"/>
        <pt x="665" y="458" on="0"/>
        <pt x="570" y="510" on="0"/>
        <pt x="514" y="582" on="0"/>
        <pt x="482" y="640" on="1"/>
        <pt x="458" y="684" on="0"/>
        <pt x="424" y="732" on="0"/>
        <pt x="375" y="764" on="0"/>
        <pt x="341" y="764" on="1"/>
        <pt x="289" y="764" on="0"/>
        <pt x="214" y="707" on="0"/>
        <pt x="160" y="574" on="0"/>
        <pt x="143" y="460" on="1"/>
        <pt x="3" y="462" on="1"/>
      </contour>
    </TTGlyph>
    <TTGlyph name="asterisk" xMin="46" yMin="179" xMax="1101" yMax="1184">
      <contour>
        <pt x="125" y="893" on="1"/>
        <pt x="504" y="752" on="1"/>
        <pt x="583" y="1184" on="1"/>
        <pt x="742" y="1184" on="1"/>
        <pt x="647" y="753" on="1"/>
        <pt x="1083" y="894" on="1"/>
        <pt x="1101" y="743" on="1"/>
        <pt x="664" y="618" on="1"/>
        <pt x="855" y="273" on="1"/>
        <pt x="708" y="179" on="1"/>
        <pt x="532" y="533" on="1"/>
        <pt x="214" y="180" on="1"/>
        <pt x="104" y="273" on="1"/>
        <pt x="433" y="617" on="1"/>
        <pt x="46" y="742" on="1"/>
      </contour>
    </TTGlyph>
    <TTGlyph name="at" xMin="99" yMin="-172" xMax="986" yMax="1231">
      <contour>
        <pt x="99" y="-172" on="0"/>
        <pt x="99" y="243" on="1"/>
        <pt x="99" y="360" on="0"/>
        <pt x="128" y="502" on="1"/>
        <pt x="202" y="873" on="0"/>
        <pt x="482" y="1231" on="0"/>
        <pt x="688" y="1231" on="1"/>
        <pt x="840" y="1231" on="0"/>
        <pt x="986" y="1089" on="0"/>
        <pt x="986" y="963" on="1"/>
        <pt x="986" y="911" on="0"/>
        <pt x="974" y="852" on="1"/>
        <pt x="865" y="301" on="1"/>
        <pt x="809" y="285" on="0"/>
        <pt x="685" y="265" on="0"/>
        <pt x="631" y="265" on="1"/>
        <pt x="528" y="265" on="0"/>
        <pt x="428" y="345" on="0"/>
        <pt x="428" y="435" on="1"/>
        <pt x="428" y="473" on="0"/>
        <pt x="439" y="530" on="1"/>
        <pt x="491" y="794" on="0"/>
        <pt x="726" y="794" on="1"/>
        <pt x="769" y="794" on="0"/>
        <pt x="809" y="791" on="1"/>
        <pt x="824" y="863" on="1"/>
        <pt x="833" y="910" on="0"/>
        <pt x="833" y="946" on="1"/>
        <pt x="833" y="1025" on="0"/>
        <pt x="745" y="1099" on="0"/>
        <pt x="656" y="1099" on="1"/>
        <pt x="571" y="1099" on="0"/>
        <pt x="438" y="992" on="0"/>
        <pt x="326" y="729" on="0"/>
        <pt x="280" y="500" on="1"/>
        <pt x="251" y="358" on="0"/>
        <pt x="251" y="251" on="1"/>
        <pt x="251" y="96" on="0"/>
        <pt x="381" y="-40" on="0"/>
        <pt x="511" y="-40" on="1"/>
        <pt x="611" y="-40" on="0"/>
        <pt x="753" y="-11" on="1"/>
        <pt x="749" y="-132" on="1"/>
        <pt x="587" y="-172" on="0"/>
        <pt x="478" y="-172" on="1"/>
      </contour>
      <contour>
        <pt x="580" y="486" on="0"/>
        <pt x="580" y="459" on="1"/>
        <pt x="580" y="420" on="0"/>
        <pt x="618" y="393" on="0"/>
        <pt x="663" y="393" on="1"/>
        <pt x="697" y="393" on="0"/>
        <pt x="730" y="399" on="1"/>
        <pt x="784" y="664" on="1"/>
        <pt x="726" y="666" on="1"/>
        <pt x="685" y="666" on="0"/>
        <pt x="633" y="642" on="0"/>
        <pt x="600" y="582" on="0"/>
        <pt x="589" y="528" on="1"/>
      </contour>
    </TTGlyph>
    <TTGlyph name="atilde" xMin="-4" yMin="-15" xMax="958" yMax="1562">
      <component glyphName="a" x="-104" y="0" flags="0x0"/>
      <component glyphName="tildecomb" x="-104" y="0" flags="0x0"/>
    </TTGlyph>
    <TTGlyph name="b" xMin="102" yMin="-21" xMax="946" yMax="1513">
      <contour>
        <pt x="245" y="-21" on="0"/>
        <pt x="102" y="34" on="1"/>
        <pt x="396" y="1513" on="1"/>
        <pt x="426" y="1513" on="1"/>
        <pt x="275" y="755" on="1"/>
        <pt x="403" y="881" on="1"/>
        <pt x="489" y="966" on="0"/>
        <pt x="647" y="1059" on="0"/>
        <pt x="731" y="1059" on="1"/>
        <pt x="838" y="1059" on="0"/>
        <pt x="946" y="920" on="0"/>
        <pt x="946" y="786" on="1"/>
        <pt x="946" y="707" on="0"/>
        <pt x="924" y="594" on="1"/>
        <pt x="885" y="397" on="0"/>
        <pt x="718" y="119" on="0"/>
        <pt x="498" y="-21" on="0"/>
        <pt x="379" y="-21" on="1"/>
      </contour>
      <contour>
        <pt x="490" y="6" on="0"/>
        <pt x="698" y="140" on="0"/>
        <pt x="856" y="405" on="0"/>
        <pt x="894" y="594" on="1"/>
        <pt x="915" y="702" on="0"/>
        <pt x="915" y="783" on="1"/>
        <pt x="915" y="906" on="0"/>
        <pt x="819" y="1031" on="0"/>
        <pt x="724" y="1031" on="1"/>
        <pt x="646" y="1031" on="0"/>
        <pt x="493" y="938" on="0"/>
        <pt x="406" y="853" on="1"/>
        <pt x="268" y="720" on="1"/>
        <pt x="133" y="52" on="1"/>
        <pt x="183" y="32" on="0"/>
        <pt x="312" y="6" on="0"/>
        <pt x="377" y="5" on="1"/>
      </contour>
    </TTGlyph>
    <TTGlyph name="backslash" xMin="344" yMin="-303" xMax="748" yMax="1513">
      <contour>
        <pt x="344" y="1513" on="1"/>
        <pt x="504" y="1513" on="1"/>
        <pt x="748" y="-303" on="1"/>
        <pt x="590" y="-303" on="1"/>
      </contour>
    </TTGlyph>
    <TTGlyph name="bar" xMin="454" yMin="-303" xMax="605" yMax="1513">
      <contour>
        <pt x="454" y="1513" on="1"/>
        <pt x="605" y="1513" on="1"/>
        <pt x="605" y="-303" on="1"/>
        <pt x="454" y="-303" on="1"/>
      </contour>
    </TTGlyph>
    <TTGlyph name="block" xMin="-165" yMin="-303" xMax="1257" yMax="1513">
      <contour>
        <pt x="198" y="1513" on="1"/>
        <pt x="1257" y="1513" on="1"/>
        <pt x="894" y="-303" on="1"/>
        <pt x="-165" y="-303" on="1"/>
      </contour>
    </TTGlyph>
    <TTGlyph name="braceleft" xMin="113" yMin="-290" xMax="1101" yMax="1500">
      <contour>
        <pt x="266" y="677" on="0"/>
        <pt x="414" y="724" on="0"/>
        <pt x="492" y="806" on="0"/>
        <pt x="506" y="877" on="1"/>
        <pt x="511" y="898" on="0"/>
        <pt x="519" y="968" on="1"/>
        <pt x="530" y="1053" on="0"/>
        <pt x="537" y="1088" on="1"/>
        <pt x="567" y="1237" on="0"/>
        <pt x="716" y="1408" on="0"/>
        <pt x="938" y="1485" on="0"/>
        <pt x="1101" y="1500" on="1"/>
        <pt x="1092" y="1379" on="1"/>
        <pt x="959" y="1361" on="0"/>
        <pt x="812" y="1313" on="0"/>
        <pt x="712" y="1197" on="0"/>
        <pt x="689" y="1084" on="1"/>
        <pt x="683" y="1052" on="0"/>
        <pt x="671" y="971" on="1"/>
        <pt x="664" y="919" on="0"/>
        <pt x="658" y="890" on="1"/>
        <pt x="633" y="766" on="0"/>
        <pt x="475" y="634" on="0"/>
        <pt x="323" y="605" on="1"/>
        <pt x="441" y="581" on="0"/>
        <pt x="551" y="480" on="0"/>
        <pt x="551" y="392" on="1"/>
        <pt x="551" y="361" on="0"/>
        <pt x="543" y="318" on="1"/>
        <pt x="535" y="277" on="0"/>
        <pt x="522" y="227" on="1"/>
        <pt x="504" y="157" on="0"/>
        <pt x="497" y="124" on="1"/>
        <pt x="487" y="75" on="0"/>
        <pt x="487" y="34" on="1"/>
        <pt x="487" y="-39" on="0"/>
        <pt x="555" y="-118" on="0"/>
        <pt x="673" y="-154" on="0"/>
        <pt x="780" y="-169" on="1"/>
        <pt x="745" y="-290" on="1"/>
        <pt x="610" y="-277" on="0"/>
        <pt x="432" y="-218" on="0"/>
        <pt x="333" y="-93" on="0"/>
        <pt x="333" y="11" on="1"/>
        <pt x="333" y="61" on="0"/>
        <pt x="345" y="124" on="1"/>
        <pt x="354" y="172" on="0"/>
        <pt x="377" y="253" on="1"/>
        <pt x="394" y="314" on="0"/>
        <pt x="398" y="335" on="1"/>
        <pt x="404" y="364" on="0"/>
        <pt x="404" y="387" on="1"/>
        <pt x="404" y="437" on="0"/>
        <pt x="346" y="498" on="0"/>
        <pt x="223" y="536" on="0"/>
        <pt x="113" y="552" on="1"/>
        <pt x="132" y="658" on="1"/>
      </contour>
    </TTGlyph>
    <TTGlyph name="braceright" xMin="-8" yMin="-290" xMax="979" yMax="1500">
      <contour>
        <pt x="826" y="533" on="0"/>
        <pt x="678" y="486" on="0"/>
        <pt x="601" y="404" on="0"/>
        <pt x="586" y="333" on="1"/>
        <pt x="583" y="317" on="0"/>
        <pt x="574" y="251" on="1"/>
        <pt x="566" y="174" on="0"/>
        <pt x="555" y="122" on="1"/>
        <pt x="525" y="-27" on="0"/>
        <pt x="376" y="-198" on="0"/>
        <pt x="155" y="-275" on="0"/>
        <pt x="-8" y="-290" on="1"/>
        <pt x="1" y="-169" on="1"/>
        <pt x="133" y="-151" on="0"/>
        <pt x="280" y="-103" on="0"/>
        <pt x="380" y="13" on="0"/>
        <pt x="403" y="126" on="1"/>
        <pt x="413" y="173" on="0"/>
        <pt x="420" y="232" on="1"/>
        <pt x="431" y="302" on="0"/>
        <pt x="435" y="320" on="1"/>
        <pt x="460" y="444" on="0"/>
        <pt x="616" y="576" on="0"/>
        <pt x="769" y="605" on="1"/>
        <pt x="651" y="629" on="0"/>
        <pt x="541" y="730" on="0"/>
        <pt x="541" y="818" on="1"/>
        <pt x="541" y="849" on="0"/>
        <pt x="549" y="892" on="1"/>
        <pt x="553" y="913" on="0"/>
        <pt x="568" y="970" on="1"/>
        <pt x="588" y="1046" on="0"/>
        <pt x="595" y="1086" on="1"/>
        <pt x="605" y="1135" on="0"/>
        <pt x="605" y="1177" on="1"/>
        <pt x="605" y="1250" on="0"/>
        <pt x="537" y="1328" on="0"/>
        <pt x="420" y="1364" on="0"/>
        <pt x="313" y="1379" on="1"/>
        <pt x="348" y="1500" on="1"/>
        <pt x="483" y="1487" on="0"/>
        <pt x="661" y="1428" on="0"/>
        <pt x="760" y="1303" on="0"/>
        <pt x="760" y="1199" on="1"/>
        <pt x="760" y="1149" on="0"/>
        <pt x="748" y="1086" on="1"/>
        <pt x="739" y="1041" on="0"/>
        <pt x="718" y="967" on="1"/>
        <pt x="711" y="942" on="0"/>
        <pt x="698" y="893" on="0"/>
        <pt x="695" y="875" on="1"/>
        <pt x="689" y="847" on="0"/>
        <pt x="689" y="822" on="1"/>
        <pt x="689" y="772" on="0"/>
        <pt x="746" y="712" on="0"/>
        <pt x="869" y="674" on="0"/>
        <pt x="979" y="658" on="1"/>
        <pt x="960" y="552" on="1"/>
      </contour>
    </TTGlyph>
    <TTGlyph name="bracketleft" xMin="138" yMin="-303" xMax="1106" yMax="1513">
      <contour>
        <pt x="501" y="1513" on="1"/>
        <pt x="1106" y="1513" on="1"/>
        <pt x="1080" y="1380" on="1"/>
        <pt x="626" y="1380" on="1"/>
        <pt x="316" y="-170" on="1"/>
        <pt x="770" y="-170" on="1"/>
        <pt x="743" y="-303" on="1"/>
        <pt x="138" y="-303" on="1"/>
      </contour>
    </TTGlyph>
    <TTGlyph name="bracketright" xMin="-14" yMin="-303" xMax="954" yMax="1513">
      <contour>
        <pt x="13" y="-170" on="1"/>
        <pt x="467" y="-170" on="1"/>
        <pt x="777" y="1380" on="1"/>
        <pt x="323" y="1380" on="1"/>
        <pt x="349" y="1513" on="1"/>
        <pt x="954" y="1513" on="1"/>
        <pt x="591" y="-303" on="1"/>
        <pt x="-14" y="-303" on="1"/>
      </contour>
    </TTGlyph>
    <TTGlyph name="breve" xMin="327" yMin="1244" xMax="932" yMax="1588">
      <component glyphName="uni0306" x="-104" y="0" flags="0x0"/>
    </TTGlyph>
    <TTGlyph name="bullet" xMin="429" yMin="539" xMax="687" yMax="789">
      <contour>
        <pt x="487" y="539" on="0"/>
        <pt x="429" y="594" on="0"/>
        <pt x="429" y="638" on="1"/>
        <pt x="429" y="679" on="0"/>
        <pt x="471" y="749" on="0"/>
        <pt x="541" y="789" on="0"/>
        <pt x="581" y="789" on="1"/>
        <pt x="629" y="789" on="0"/>
        <pt x="687" y="734" on="0"/>
        <pt x="687" y="690" on="1"/>
        <pt x="687" y="649" on="0"/>
        <pt x="645" y="579" on="0"/>
        <pt x="574" y="539" on="0"/>
        <pt x="534" y="539" on="1"/>
      </contour>
    </TTGlyph>
    <TTGlyph name="c" xMin="163" yMin="-19" xMax="926" yMax="1074">
      <contour>
        <pt x="804" y="1046" on="0"/>
        <pt x="656" y="1047" on="1"/>
        <pt x="492" y="1046" on="0"/>
        <pt x="266" y="781" on="0"/>
        <pt x="215" y="528" on="1"/>
        <pt x="193" y="419" on="0"/>
        <pt x="193" y="328" on="1"/>
        <pt x="193" y="171" on="0"/>
        <pt x="331" y="9" on="0"/>
        <pt x="466" y="9" on="1"/>
        <pt x="534" y="9" on="0"/>
        <pt x="652" y="43" on="0"/>
        <pt x="715" y="75" on="1"/>
        <pt x="720" y="48" on="1"/>
        <pt x="653" y="15" on="0"/>
        <pt x="531" y="-19" on="0"/>
        <pt x="460" y="-19" on="1"/>
        <pt x="314" y="-19" on="0"/>
        <pt x="163" y="158" on="0"/>
        <pt x="163" y="327" on="1"/>
        <pt x="163" y="420" on="0"/>
        <pt x="185" y="530" on="1"/>
        <pt x="237" y="794" on="0"/>
        <pt x="482" y="1074" on="0"/>
        <pt x="659" y="1074" on="1"/>
        <pt x="745" y="1074" on="0"/>
        <pt x="878" y="1016" on="0"/>
        <pt x="926" y="971" on="1"/>
        <pt x="909" y="949" on="1"/>
      </contour>
    </TTGlyph>
    <TTGlyph name="cacute" xMin="59" yMin="-19" xMax="991" yMax="1643">
      <component glyphName="c" x="-104" y="0" flags="0x0"/>
      <component glyphName="acutecomb" x="-75" y="0" flags="0x0"/>
    </TTGlyph>
    <TTGlyph name="caron" xMin="334" yMin="1248" xMax="965" yMax="1643">
      <component glyphName="uni030C" x="-104" y="0" flags="0x0"/>
    </TTGlyph>
    <TTGlyph name="ccaron" xMin="59" yMin="-19" xMax="994" yMax="1643">
      <component glyphName="c" x="-104" y="0" flags="0x0"/>
      <component glyphName="uni030C" x="-75" y="0" flags="0x0"/>
    </TTGlyph>
    <TTGlyph name="ccedilla" xMin="163" yMin="-303" xMax="926" yMax="1074">
      <contour>
        <pt x="804" y="1046" on="0"/>
        <pt x="656" y="1047" on="1"/>
        <pt x="492" y="1046" on="0"/>
        <pt x="266" y="781" on="0"/>
        <pt x="215" y="528" on="1"/>
        <pt x="193" y="419" on="0"/>
        <pt x="193" y="328" on="1"/>
        <pt x="193" y="171" on="0"/>
        <pt x="331" y="9" on="0"/>
        <pt x="466" y="9" on="1"/>
        <pt x="486" y="9" on="1"/>
        <pt x="487" y="26" on="1"/>
        <pt x="595" y="26" on="1"/>
        <pt x="646" y="40" on="0"/>
        <pt x="715" y="75" on="1"/>
        <pt x="720" y="48" on="1"/>
        <pt x="674" y="25" on="0"/>
        <pt x="620" y="6" on="1"/>
        <pt x="618" y="-47" on="0"/>
        <pt x="611" y="-84" on="1"/>
        <pt x="590" y="-192" on="0"/>
        <pt x="435" y="-303" on="0"/>
        <pt x="330" y="-303" on="1"/>
        <pt x="266" y="-303" on="0"/>
        <pt x="208" y="-287" on="1"/>
        <pt x="246" y="-161" on="1"/>
        <pt x="281" y="-166" on="0"/>
        <pt x="324" y="-166" on="1"/>
        <pt x="392" y="-166" on="0"/>
        <pt x="466" y="-110" on="0"/>
        <pt x="478" y="-50" on="1"/>
        <pt x="484" y="-19" on="1"/>
        <pt x="460" y="-19" on="1"/>
        <pt x="314" y="-19" on="0"/>
        <pt x="163" y="158" on="0"/>
        <pt x="163" y="327" on="1"/>
        <pt x="163" y="420" on="0"/>
        <pt x="185" y="530" on="1"/>
        <pt x="237" y="794" on="0"/>
        <pt x="482" y="1074" on="0"/>
        <pt x="659" y="1074" on="1"/>
        <pt x="745" y="1074" on="0"/>
        <pt x="878" y="1016" on="0"/>
        <pt x="926" y="971" on="1"/>
        <pt x="909" y="949" on="1"/>
      </contour>
    </TTGlyph>
    <TTGlyph name="ccircumflex" xMin="59" yMin="-19" xMax="915" yMax="1643">
      <component glyphName="c" x="-104" y="0" flags="0x0"/>
      <component glyphName="uni0302" x="-75" y="0" flags="0x0"/>
    </TTGlyph>
    <TTGlyph name="cdotaccent" xMin="59" yMin="-19" xMax="822" yMax="1521">
      <component glyphName="c" x="-104" y="0" flags="0x0"/>
      <component glyphName="uni0307" x="-75" y="0" flags="0x0"/>
    </TTGlyph>
    <TTGlyph name="cedilla" xMin="104" yMin="-303" xMax="516" yMax="27">
      <component glyphName="uni0327" x="-104" y="0" flags="0x0"/>
    </TTGlyph>
    <TTGlyph name="circumflex" xMin="255" yMin="1248" xMax="886" yMax="1643">
      <component glyphName="uni0302" x="-104" y="0" flags="0x0"/>
    </TTGlyph>
    <TTGlyph name="colon" xMin="279" yMin="-8" xMax="531" yMax="849">
      <component glyphName="period" x="-104" y="0" flags="0x0"/>
      <component glyphName="period" x="47" y="756" flags="0x4"/>
    </TTGlyph>
    <TTGlyph name="comma" xMin="136" yMin="-303" xMax="669" yMax="303">
      <contour>
        <pt x="136" y="-303" on="1"/>
        <pt x="395" y="303" on="1"/>
        <pt x="669" y="303" on="1"/>
        <pt x="262" y="-303" on="1"/>
      </contour>
    </TTGlyph>
    <TTGlyph name="copyright" xMin="-12" yMin="-174" xMax="1104" yMax="1384">
      <contour>
        <pt x="263" y="-174" on="0"/>
        <pt x="82" y="-52" on="0"/>
        <pt x="-12" y="177" on="0"/>
        <pt x="-12" y="336" on="1"/>
        <pt x="-12" y="464" on="0"/>
        <pt x="17" y="606" on="1"/>
        <pt x="65" y="844" on="0"/>
        <pt x="263" y="1195" on="0"/>
        <pt x="539" y="1384" on="0"/>
        <pt x="700" y="1384" on="1"/>
        <pt x="828" y="1384" on="0"/>
        <pt x="1010" y="1262" on="0"/>
        <pt x="1104" y="1033" on="0"/>
        <pt x="1104" y="874" on="1"/>
        <pt x="1104" y="746" on="0"/>
        <pt x="1075" y="604" on="1"/>
        <pt x="1028" y="367" on="0"/>
        <pt x="829" y="15" on="0"/>
        <pt x="553" y="-174" on="0"/>
        <pt x="391" y="-174" on="1"/>
      </contour>
      <contour>
        <pt x="544" y="-38" on="0"/>
        <pt x="745" y="123" on="0"/>
        <pt x="886" y="413" on="0"/>
        <pt x="925" y="608" on="1"/>
        <pt x="955" y="755" on="0"/>
        <pt x="955" y="875" on="1"/>
        <pt x="955" y="1053" on="0"/>
        <pt x="817" y="1248" on="0"/>
        <pt x="677" y="1248" on="1"/>
        <pt x="551" y="1248" on="0"/>
        <pt x="349" y="1089" on="0"/>
        <pt x="207" y="800" on="0"/>
        <pt x="168" y="606" on="1"/>
        <pt x="138" y="453" on="0"/>
        <pt x="138" y="341" on="1"/>
        <pt x="138" y="161" on="0"/>
        <pt x="278" y="-38" on="0"/>
        <pt x="418" y="-38" on="1"/>
      </contour>
      <contour>
        <pt x="401" y="303" on="0"/>
        <pt x="281" y="430" on="0"/>
        <pt x="281" y="532" on="1"/>
        <pt x="281" y="566" on="0"/>
        <pt x="289" y="606" on="1"/>
        <pt x="318" y="750" on="0"/>
        <pt x="505" y="908" on="0"/>
        <pt x="643" y="908" on="1"/>
        <pt x="683" y="908" on="0"/>
        <pt x="788" y="891" on="0"/>
        <pt x="823" y="879" on="1"/>
        <pt x="772" y="756" on="1"/>
        <pt x="708" y="772" on="0"/>
        <pt x="626" y="772" on="1"/>
        <pt x="558" y="772" on="0"/>
        <pt x="458" y="693" on="0"/>
        <pt x="440" y="604" on="1"/>
        <pt x="435" y="576" on="0"/>
        <pt x="435" y="557" on="1"/>
        <pt x="435" y="448" on="0"/>
        <pt x="568" y="448" on="1"/>
        <pt x="644" y="448" on="0"/>
        <pt x="714" y="465" on="1"/>
        <pt x="717" y="347" on="1"/>
        <pt x="619" y="303" on="0"/>
        <pt x="517" y="303" on="1"/>
      </contour>
    </TTGlyph>
    <TTGlyph name="d" xMin="113" yMin="-15" xMax="1059" yMax="1513">
      <contour>
        <pt x="221" y="-15" on="0"/>
        <pt x="113" y="124" on="0"/>
        <pt x="113" y="257" on="1"/>
        <pt x="113" y="336" on="0"/>
        <pt x="135" y="449" on="1"/>
        <pt x="174" y="645" on="0"/>
        <pt x="341" y="923" on="0"/>
        <pt x="560" y="1064" on="0"/>
        <pt x="678" y="1064" on="1"/>
        <pt x="797" y="1064" on="0"/>
        <pt x="929" y="1018" on="1"/>
        <pt x="1029" y="1513" on="1"/>
        <pt x="1059" y="1513" on="1"/>
        <pt x="757" y="0" on="1"/>
        <pt x="727" y="0" on="1"/>
        <pt x="784" y="289" on="1"/>
        <pt x="656" y="163" on="1"/>
        <pt x="572" y="79" on="0"/>
        <pt x="412" y="-15" on="0"/>
        <pt x="328" y="-15" on="1"/>
      </contour>
      <contour>
        <pt x="413" y="13" on="0"/>
        <pt x="566" y="105" on="0"/>
        <pt x="653" y="190" on="1"/>
        <pt x="791" y="323" on="1"/>
        <pt x="926" y="992" on="1"/>
        <pt x="798" y="1038" on="0"/>
        <pt x="682" y="1038" on="1"/>
        <pt x="569" y="1038" on="0"/>
        <pt x="361" y="904" on="0"/>
        <pt x="203" y="639" on="0"/>
        <pt x="165" y="449" on="1"/>
        <pt x="144" y="343" on="0"/>
        <pt x="144" y="260" on="1"/>
        <pt x="144" y="138" on="0"/>
        <pt x="240" y="13" on="0"/>
        <pt x="335" y="12" on="1"/>
      </contour>
    </TTGlyph>
    <TTGlyph name="dagger" xMin="125" yMin="-113" xMax="1061" yMax="1324">
      <contour>
        <pt x="504" y="772" on="1"/>
        <pt x="125" y="768" on="1"/>
        <pt x="154" y="911" on="1"/>
        <pt x="531" y="907" on="1"/>
        <pt x="609" y="1324" on="1"/>
        <pt x="772" y="1324" on="1"/>
        <pt x="682" y="907" on="1"/>
        <pt x="1061" y="911" on="1"/>
        <pt x="1032" y="768" on="1"/>
        <pt x="655" y="772" on="1"/>
        <pt x="478" y="-113" on="1"/>
        <pt x="327" y="-113" on="1"/>
      </contour>
    </TTGlyph>
    <TTGlyph name="dcroat" xMin="113" yMin="-15" xMax="1168" yMax="1513">
      <contour>
        <pt x="221" y="-15" on="0"/>
        <pt x="113" y="124" on="0"/>
        <pt x="113" y="257" on="1"/>
        <pt x="113" y="336" on="0"/>
        <pt x="135" y="449" on="1"/>
        <pt x="174" y="645" on="0"/>
        <pt x="341" y="923" on="0"/>
        <pt x="560" y="1064" on="0"/>
        <pt x="678" y="1064" on="1"/>
        <pt x="797" y="1064" on="0"/>
        <pt x="929" y="1018" on="1"/>
        <pt x="981" y="1272" on="1"/>
        <pt x="692" y="1272" on="1"/>
        <pt x="698" y="1299" on="1"/>
        <pt x="987" y="1299" on="1"/>
        <pt x="1029" y="1513" on="1"/>
        <pt x="1059" y="1513" on="1"/>
        <pt x="1017" y="1299" on="1"/>
        <pt x="1168" y="1299" on="1"/>
        <pt x="1162" y="1272" on="1"/>
        <pt x="1011" y="1272" on="1"/>
        <pt x="757" y="0" on="1"/>
        <pt x="727" y="0" on="1"/>
        <pt x="784" y="289" on="1"/>
        <pt x="656" y="163" on="1"/>
        <pt x="572" y="79" on="0"/>
        <pt x="412" y="-15" on="0"/>
        <pt x="328" y="-15" on="1"/>
      </contour>
      <contour>
        <pt x="413" y="13" on="0"/>
        <pt x="566" y="105" on="0"/>
        <pt x="653" y="190" on="1"/>
        <pt x="791" y="323" on="1"/>
        <pt x="926" y="992" on="1"/>
        <pt x="798" y="1038" on="0"/>
        <pt x="682" y="1038" on="1"/>
        <pt x="569" y="1038" on="0"/>
        <pt x="361" y="904" on="0"/>
        <pt x="203" y="639" on="0"/>
        <pt x="165" y="449" on="1"/>
        <pt x="144" y="343" on="0"/>
        <pt x="144" y="260" on="1"/>
        <pt x="144" y="138" on="0"/>
        <pt x="240" y="13" on="0"/>
        <pt x="335" y="12" on="1"/>
      </contour>
    </TTGlyph>
    <TTGlyph name="dieresis" xMin="385" yMin="1434" xMax="848" yMax="1519">
      <component glyphName="uni0308" x="-104" y="0" flags="0x0"/>
    </TTGlyph>
    <TTGlyph name="dollar" xMin="76" yMin="-303" xMax="1019" yMax="1664">
      <contour>
        <pt x="333" y="-15" on="1"/>
        <pt x="260" y="-8" on="0"/>
        <pt x="136" y="42" on="0"/>
        <pt x="76" y="82" on="1"/>
        <pt x="148" y="196" on="1"/>
        <pt x="202" y="163" on="0"/>
        <pt x="336" y="119" on="0"/>
        <pt x="400" y="119" on="1"/>
        <pt x="505" y="119" on="0"/>
        <pt x="652" y="229" on="0"/>
        <pt x="671" y="322" on="1"/>
        <pt x="676" y="349" on="0"/>
        <pt x="676" y="369" on="1"/>
        <pt x="676" y="421" on="0"/>
        <pt x="629" y="511" on="0"/>
        <pt x="559" y="583" on="0"/>
        <pt x="500" y="635" on="1"/>
        <pt x="433" y="694" on="0"/>
        <pt x="352" y="781" on="0"/>
        <pt x="295" y="897" on="0"/>
        <pt x="295" y="968" on="1"/>
        <pt x="295" y="999" on="0"/>
        <pt x="303" y="1041" on="1"/>
        <pt x="318" y="1118" on="0"/>
        <pt x="406" y="1258" on="0"/>
        <pt x="544" y="1357" on="0"/>
        <pt x="630" y="1373" on="1"/>
        <pt x="690" y="1664" on="1"/>
        <pt x="842" y="1664" on="1"/>
        <pt x="783" y="1375" on="1"/>
        <pt x="906" y="1359" on="0"/>
        <pt x="1019" y="1291" on="1"/>
        <pt x="943" y="1179" on="1"/>
        <pt x="820" y="1244" on="0"/>
        <pt x="698" y="1244" on="1"/>
        <pt x="634" y="1244" on="0"/>
        <pt x="533" y="1188" on="0"/>
        <pt x="469" y="1099" on="0"/>
        <pt x="460" y="1050" on="1"/>
        <pt x="455" y="1022" on="0"/>
        <pt x="455" y="1001" on="1"/>
        <pt x="455" y="949" on="0"/>
        <pt x="501" y="860" on="0"/>
        <pt x="570" y="789" on="0"/>
        <pt x="628" y="740" on="1"/>
        <pt x="695" y="682" on="0"/>
        <pt x="777" y="596" on="0"/>
        <pt x="834" y="478" on="0"/>
        <pt x="834" y="404" on="1"/>
        <pt x="834" y="363" on="0"/>
        <pt x="826" y="324" on="1"/>
        <pt x="811" y="248" on="0"/>
        <pt x="721" y="110" on="0"/>
        <pt x="576" y="11" on="0"/>
        <pt x="485" y="-7" on="1"/>
        <pt x="425" y="-303" on="1"/>
        <pt x="274" y="-303" on="1"/>
      </contour>
    </TTGlyph>
    <TTGlyph name="dotaccent" xMin="569" yMin="1432" xMax="662" yMax="1521">
      <component glyphName="uni0307" x="-104" y="0" flags="0x0"/>
    </TTGlyph>
    <TTGlyph name="dotlessi" xMin="101" yMin="0" xMax="769" yMax="1046">
      <contour>
        <pt x="765" y="0" on="1"/>
        <pt x="101" y="0" on="1"/>
        <pt x="105" y="23" on="1"/>
        <pt x="423" y="27" on="1"/>
        <pt x="622" y="1019" on="1"/>
        <pt x="324" y="1019" on="1"/>
        <pt x="328" y="1042" on="1"/>
        <pt x="642" y="1046" on="1"/>
        <pt x="657" y="1046" on="1"/>
        <pt x="453" y="27" on="1"/>
        <pt x="769" y="23" on="1"/>
      </contour>
    </TTGlyph>
    <TTGlyph name="dotlessi.sans" xMin="410" yMin="0" xMax="649" yMax="1043">
      <contour>
        <pt x="618" y="1043" on="1"/>
        <pt x="649" y="1043" on="1"/>
        <pt x="441" y="0" on="1"/>
        <pt x="410" y="0" on="1"/>
      </contour>
    </TTGlyph>
    <TTGlyph name="dotlessi.sans.prop" xMin="127" yMin="0" xMax="365" yMax="1043">
      <contour>
        <pt x="335" y="1043" on="1"/>
        <pt x="365" y="1043" on="1"/>
        <pt x="157" y="0" on="1"/>
        <pt x="127" y="0" on="1"/>
      </contour>
    </TTGlyph>
    <TTGlyph name="e" xMin="140" yMin="-19" xMax="876" yMax="1059">
      <contour>
        <pt x="301" y="-19" on="0"/>
        <pt x="140" y="158" on="0"/>
        <pt x="140" y="328" on="1"/>
        <pt x="140" y="410" on="0"/>
        <pt x="162" y="523" on="1"/>
        <pt x="195" y="689" on="0"/>
        <pt x="329" y="931" on="0"/>
        <pt x="517" y="1059" on="0"/>
        <pt x="630" y="1059" on="1"/>
        <pt x="748" y="1059" on="0"/>
        <pt x="876" y="918" on="0"/>
        <pt x="876" y="792" on="1"/>
        <pt x="876" y="689" on="0"/>
        <pt x="833" y="560" on="1"/>
        <pt x="200" y="560" on="1"/>
        <pt x="192" y="521" on="1"/>
        <pt x="171" y="416" on="0"/>
        <pt x="171" y="332" on="1"/>
        <pt x="171" y="173" on="0"/>
        <pt x="318" y="9" on="0"/>
        <pt x="461" y="9" on="1"/>
        <pt x="517" y="9" on="0"/>
        <pt x="646" y="42" on="0"/>
        <pt x="712" y="73" on="1"/>
        <pt x="718" y="46" on="1"/>
        <pt x="572" y="-19" on="0"/>
        <pt x="457" y="-19" on="1"/>
      </contour>
      <contour>
        <pt x="812" y="589" on="1"/>
        <pt x="845" y="702" on="0"/>
        <pt x="845" y="790" on="1"/>
        <pt x="845" y="906" on="0"/>
        <pt x="733" y="1033" on="0"/>
        <pt x="625" y="1032" on="1"/>
        <pt x="480" y="1033" on="0"/>
        <pt x="263" y="800" on="0"/>
        <pt x="207" y="587" on="1"/>
      </contour>
    </TTGlyph>
    <TTGlyph name="eacute" xMin="36" yMin="-19" xMax="953" yMax="1643">
      <component glyphName="e" x="-104" y="0" flags="0x0"/>
      <component glyphName="acutecomb" x="-113" y="0" flags="0x0"/>
    </TTGlyph>
    <TTGlyph name="ebreve" xMin="36" yMin="-19" xMax="923" yMax="1588">
      <component glyphName="e" x="-104" y="0" flags="0x0"/>
      <component glyphName="uni0306" x="-113" y="0" flags="0x0"/>
    </TTGlyph>
    <TTGlyph name="ecaron" xMin="36" yMin="-19" xMax="956" yMax="1643">
      <component glyphName="e" x="-104" y="0" flags="0x0"/>
      <component glyphName="uni030C" x="-113" y="0" flags="0x0"/>
    </TTGlyph>
    <TTGlyph name="ecircumflex" xMin="36" yMin="-19" xMax="877" yMax="1643">
      <component glyphName="e" x="-104" y="0" flags="0x0"/>
      <component glyphName="uni0302" x="-113" y="0" flags="0x0"/>
    </TTGlyph>
    <TTGlyph name="edieresis" xMin="36" yMin="-19" xMax="839" yMax="1519">
      <component glyphName="e" x="-104" y="0" flags="0x0"/>
      <component glyphName="uni0308" x="-113" y="0" flags="0x0"/>
    </TTGlyph>
    <TTGlyph name="edotaccent" xMin="36" yMin="-19" xMax="772" yMax="1521">
      <component glyphName="e" x="-104" y="0" flags="0x0"/>
      <component glyphName="uni0307" x="-113" y="0" flags="0x0"/>
    </TTGlyph>
    <TTGlyph name="egrave" xMin="36" yMin="-19" xMax="772" yMax="1643">
      <component glyphName="e" x="-104" y="0" flags="0x0"/>
      <component glyphName="gravecomb" x="-113" y="0" flags="0x0"/>
    </TTGlyph>
    <TTGlyph name="eight" xMin="49" yMin="-19" xMax="1023" yMax="1380">
      <contour>
        <pt x="233" y="-19" on="0"/>
        <pt x="49" y="124" on="0"/>
        <pt x="49" y="242" on="1"/>
        <pt x="49" y="277" on="0"/>
        <pt x="56" y="311" on="1"/>
        <pt x="82" y="441" on="0"/>
        <pt x="277" y="626" on="0"/>
        <pt x="430" y="709" on="1"/>
        <pt x="365" y="771" on="1"/>
        <pt x="304" y="827" on="0"/>
        <pt x="243" y="926" on="0"/>
        <pt x="243" y="993" on="1"/>
        <pt x="243" y="1026" on="0"/>
        <pt x="250" y="1060" on="1"/>
        <pt x="267" y="1149" on="0"/>
        <pt x="393" y="1295" on="0"/>
        <pt x="586" y="1380" on="0"/>
        <pt x="700" y="1380" on="1"/>
        <pt x="798" y="1380" on="0"/>
        <pt x="945" y="1312" on="0"/>
        <pt x="1023" y="1190" on="0"/>
        <pt x="1023" y="1111" on="1"/>
        <pt x="1023" y="1085" on="0"/>
        <pt x="1016" y="1045" on="1"/>
        <pt x="1001" y="970" on="0"/>
        <pt x="916" y="850" on="0"/>
        <pt x="796" y="752" on="0"/>
        <pt x="697" y="685" on="1"/>
        <pt x="775" y="612" on="1"/>
        <pt x="851" y="541" on="0"/>
        <pt x="916" y="423" on="0"/>
        <pt x="916" y="362" on="1"/>
        <pt x="916" y="335" on="0"/>
        <pt x="910" y="305" on="1"/>
        <pt x="893" y="221" on="0"/>
        <pt x="763" y="72" on="0"/>
        <pt x="551" y="-19" on="0"/>
        <pt x="419" y="-19" on="1"/>
      </contour>
      <contour>
        <pt x="212" y="300" on="0"/>
        <pt x="212" y="284" on="1"/>
        <pt x="212" y="241" on="0"/>
        <pt x="258" y="166" on="0"/>
        <pt x="362" y="117" on="0"/>
        <pt x="444" y="117" on="1"/>
        <pt x="529" y="117" on="0"/>
        <pt x="660" y="165" on="0"/>
        <pt x="740" y="250" on="0"/>
        <pt x="751" y="305" on="1"/>
        <pt x="755" y="322" on="0"/>
        <pt x="755" y="343" on="1"/>
        <pt x="755" y="379" on="0"/>
        <pt x="713" y="449" on="0"/>
        <pt x="660" y="498" on="1"/>
        <pt x="525" y="621" on="1"/>
        <pt x="383" y="551" on="0"/>
        <pt x="234" y="407" on="0"/>
        <pt x="215" y="313" on="1"/>
      </contour>
      <contour>
        <pt x="405" y="1038" on="0"/>
        <pt x="405" y="1021" on="1"/>
        <pt x="405" y="980" on="0"/>
        <pt x="442" y="918" on="0"/>
        <pt x="483" y="880" on="1"/>
        <pt x="611" y="765" on="1"/>
        <pt x="693" y="824" on="0"/>
        <pt x="779" y="895" on="0"/>
        <pt x="846" y="988" on="0"/>
        <pt x="858" y="1047" on="1"/>
        <pt x="862" y="1064" on="0"/>
        <pt x="862" y="1087" on="1"/>
        <pt x="862" y="1154" on="0"/>
        <pt x="768" y="1246" on="0"/>
        <pt x="672" y="1246" on="1"/>
        <pt x="566" y="1246" on="0"/>
        <pt x="426" y="1147" on="0"/>
        <pt x="410" y="1066" on="1"/>
      </contour>
    </TTGlyph>
    <TTGlyph name="ellipsis" xMin="29" yMin="-23" xMax="854" yMax="189">
      <contour>
        <pt x="79" y="-23" on="0"/>
        <pt x="29" y="23" on="0"/>
        <pt x="29" y="60" on="1"/>
        <pt x="29" y="97" on="0"/>
        <pt x="64" y="156" on="0"/>
        <pt x="124" y="189" on="0"/>
        <pt x="159" y="189" on="1"/>
        <pt x="200" y="189" on="0"/>
        <pt x="249" y="143" on="0"/>
        <pt x="249" y="105" on="1"/>
        <pt x="249" y="69" on="0"/>
        <pt x="214" y="10" on="0"/>
        <pt x="154" y="-23" on="0"/>
        <pt x="119" y="-23" on="1"/>
      </contour>
      <contour>
        <pt x="381" y="-23" on="0"/>
        <pt x="332" y="23" on="0"/>
        <pt x="332" y="60" on="1"/>
        <pt x="332" y="116" on="0"/>
        <pt x="407" y="189" on="0"/>
        <pt x="461" y="189" on="1"/>
        <pt x="502" y="189" on="0"/>
        <pt x="552" y="144" on="0"/>
        <pt x="552" y="106" on="1"/>
        <pt x="552" y="69" on="0"/>
        <pt x="516" y="10" on="0"/>
        <pt x="456" y="-23" on="0"/>
        <pt x="421" y="-23" on="1"/>
      </contour>
      <contour>
        <pt x="684" y="-23" on="0"/>
        <pt x="634" y="23" on="0"/>
        <pt x="634" y="60" on="1"/>
        <pt x="634" y="97" on="0"/>
        <pt x="669" y="156" on="0"/>
        <pt x="729" y="189" on="0"/>
        <pt x="764" y="189" on="1"/>
        <pt x="805" y="189" on="0"/>
        <pt x="854" y="143" on="0"/>
        <pt x="854" y="105" on="1"/>
        <pt x="854" y="69" on="0"/>
        <pt x="819" y="10" on="0"/>
        <pt x="759" y="-23" on="0"/>
        <pt x="724" y="-23" on="1"/>
      </contour>
    </TTGlyph>
    <TTGlyph name="emacron" xMin="36" yMin="-19" xMax="860" yMax="1505">
      <component glyphName="e" x="-104" y="0" flags="0x0"/>
      <component glyphName="uni0304" x="-113" y="0" flags="0x0"/>
    </TTGlyph>
    <TTGlyph name="emdash" xMin="27" yMin="658" xMax="1092" yMax="685">
      <contour>
        <pt x="33" y="685" on="1"/>
        <pt x="1092" y="685" on="1"/>
        <pt x="1086" y="658" on="1"/>
        <pt x="27" y="658" on="1"/>
      </contour>
    </TTGlyph>
    <TTGlyph name="endash" xMin="27" yMin="658" xMax="1092" yMax="685">
      <contour>
        <pt x="33" y="685" on="1"/>
        <pt x="1092" y="685" on="1"/>
        <pt x="1086" y="658" on="1"/>
        <pt x="27" y="658" on="1"/>
      </contour>
    </TTGlyph>
    <TTGlyph name="eogonek" xMin="140" yMin="-303" xMax="876" yMax="1059">
      <contour>
        <pt x="301" y="-19" on="0"/>
        <pt x="140" y="158" on="0"/>
        <pt x="140" y="328" on="1"/>
        <pt x="140" y="410" on="0"/>
        <pt x="162" y="523" on="1"/>
        <pt x="195" y="689" on="0"/>
        <pt x="329" y="931" on="0"/>
        <pt x="517" y="1059" on="0"/>
        <pt x="630" y="1059" on="1"/>
        <pt x="748" y="1059" on="0"/>
        <pt x="876" y="918" on="0"/>
        <pt x="876" y="792" on="1"/>
        <pt x="876" y="689" on="0"/>
        <pt x="833" y="560" on="1"/>
        <pt x="200" y="560" on="1"/>
        <pt x="192" y="521" on="1"/>
        <pt x="171" y="416" on="0"/>
        <pt x="171" y="332" on="1"/>
        <pt x="171" y="173" on="0"/>
        <pt x="318" y="9" on="0"/>
        <pt x="461" y="9" on="1"/>
        <pt x="517" y="9" on="0"/>
        <pt x="646" y="42" on="0"/>
        <pt x="712" y="73" on="1"/>
        <pt x="718" y="46" on="1"/>
        <pt x="631" y="-10" on="0"/>
        <pt x="530" y="-118" on="0"/>
        <pt x="520" y="-175" on="1"/>
        <pt x="516" y="-190" on="0"/>
        <pt x="516" y="-205" on="1"/>
        <pt x="516" y="-239" on="0"/>
        <pt x="559" y="-274" on="0"/>
        <pt x="599" y="-275" on="1"/>
        <pt x="638" y="-273" on="0"/>
        <pt x="677" y="-255" on="1"/>
        <pt x="678" y="-283" on="1"/>
        <pt x="633" y="-303" on="0"/>
        <pt x="589" y="-303" on="1"/>
        <pt x="539" y="-303" on="0"/>
        <pt x="484" y="-256" on="0"/>
        <pt x="484" y="-212" on="1"/>
        <pt x="484" y="-198" on="0"/>
        <pt x="487" y="-181" on="1"/>
        <pt x="509" y="-72" on="0"/>
        <pt x="663" y="24" on="1"/>
        <pt x="550" y="-19" on="0"/>
        <pt x="457" y="-19" on="1"/>
      </contour>
      <contour>
        <pt x="812" y="589" on="1"/>
        <pt x="845" y="702" on="0"/>
        <pt x="845" y="790" on="1"/>
        <pt x="845" y="906" on="0"/>
        <pt x="733" y="1033" on="0"/>
        <pt x="625" y="1032" on="1"/>
        <pt x="480" y="1033" on="0"/>
        <pt x="263" y="800" on="0"/>
        <pt x="207" y="587" on="1"/>
      </contour>
    </TTGlyph>
    <TTGlyph name="equal" xMin="26" yMin="461" xMax="1097" yMax="900">
      <contour>
        <pt x="114" y="900" on="1"/>
        <pt x="1097" y="900" on="1"/>
        <pt x="1070" y="764" on="1"/>
        <pt x="87" y="764" on="1"/>
      </contour>
      <contour>
        <pt x="53" y="598" on="1"/>
        <pt x="1036" y="598" on="1"/>
        <pt x="1009" y="461" on="1"/>
        <pt x="26" y="461" on="1"/>
      </contour>
    </TTGlyph>
    <TTGlyph name="exclam" xMin="383" yMin="-8" xMax="727" yMax="1362">
      <contour>
        <pt x="668" y="1362" on="1"/>
        <pt x="727" y="1362" on="1"/>
        <pt x="542" y="529" on="1"/>
        <pt x="521" y="529" on="1"/>
      </contour>
      <contour>
        <pt x="406" y="-8" on="0"/>
        <pt x="383" y="16" on="0"/>
        <pt x="383" y="34" on="1"/>
        <pt x="383" y="58" on="0"/>
        <pt x="419" y="93" on="0"/>
        <pt x="442" y="93" on="1"/>
        <pt x="461" y="93" on="0"/>
        <pt x="484" y="69" on="0"/>
        <pt x="484" y="51" on="1"/>
        <pt x="484" y="27" on="0"/>
        <pt x="448" y="-8" on="0"/>
        <pt x="424" y="-7" on="1"/>
      </contour>
    </TTGlyph>
    <TTGlyph name="exclamdown" xMin="335" yMin="-303" xMax="679" yMax="1067">
      <contour>
        <pt x="394" y="-303" on="1"/>
        <pt x="335" y="-303" on="1"/>
        <pt x="521" y="530" on="1"/>
        <pt x="542" y="530" on="1"/>
      </contour>
      <contour>
        <pt x="656" y="1067" on="0"/>
        <pt x="679" y="1043" on="0"/>
        <pt x="679" y="1025" on="1"/>
        <pt x="679" y="1001" on="0"/>
        <pt x="643" y="966" on="0"/>
        <pt x="620" y="966" on="1"/>
        <pt x="601" y="966" on="0"/>
        <pt x="578" y="990" on="0"/>
        <pt x="578" y="1008" on="1"/>
        <pt x="578" y="1032" on="0"/>
        <pt x="614" y="1067" on="0"/>
        <pt x="638" y="1066" on="1"/>
      </contour>
    </TTGlyph>
    <TTGlyph name="f" xMin="102" yMin="-328" xMax="1085" yMax="1536">
      <contour>
        <pt x="233" y="-229" on="0"/>
        <pt x="394" y="-26" on="0"/>
        <pt x="426" y="137" on="1"/>
        <pt x="564" y="826" on="1"/>
        <pt x="247" y="826" on="1"/>
        <pt x="252" y="853" on="1"/>
        <pt x="569" y="853" on="1"/>
        <pt x="644" y="1226" on="1"/>
        <pt x="673" y="1372" on="0"/>
        <pt x="829" y="1536" on="0"/>
        <pt x="940" y="1536" on="1"/>
        <pt x="1009" y="1536" on="0"/>
        <pt x="1085" y="1501" on="1"/>
        <pt x="1074" y="1476" on="1"/>
        <pt x="1047" y="1490" on="0"/>
        <pt x="977" y="1507" on="0"/>
        <pt x="938" y="1508" on="1"/>
        <pt x="839" y="1507" on="0"/>
        <pt x="700" y="1358" on="0"/>
        <pt x="674" y="1225" on="1"/>
        <pt x="599" y="853" on="1"/>
        <pt x="946" y="853" on="1"/>
        <pt x="941" y="826" on="1"/>
        <pt x="594" y="826" on="1"/>
        <pt x="456" y="136" on="1"/>
        <pt x="421" y="-38" on="0"/>
        <pt x="248" y="-253" on="0"/>
        <pt x="111" y="-328" on="1"/>
        <pt x="102" y="-303" on="1"/>
      </contour>
    </TTGlyph>
    <TTGlyph name="five" xMin="-18" yMin="-321" xMax="978" yMax="1210">
      <contour>
        <pt x="204" y="-167" on="0"/>
        <pt x="489" y="-63" on="0"/>
        <pt x="652" y="102" on="0"/>
        <pt x="677" y="224" on="1"/>
        <pt x="683" y="253" on="0"/>
        <pt x="683" y="280" on="1"/>
        <pt x="683" y="343" on="0"/>
        <pt x="624" y="443" on="0"/>
        <pt x="497" y="503" on="0"/>
        <pt x="402" y="503" on="1"/>
        <pt x="294" y="503" on="0"/>
        <pt x="157" y="484" on="1"/>
        <pt x="301" y="1210" on="1"/>
        <pt x="978" y="1210" on="1"/>
        <pt x="951" y="1074" on="1"/>
        <pt x="425" y="1074" on="1"/>
        <pt x="335" y="631" on="1"/>
        <pt x="403" y="637" on="0"/>
        <pt x="459" y="637" on="1"/>
        <pt x="592" y="637" on="0"/>
        <pt x="766" y="555" on="0"/>
        <pt x="849" y="413" on="0"/>
        <pt x="849" y="321" on="1"/>
        <pt x="849" y="277" on="0"/>
        <pt x="840" y="230" on="1"/>
        <pt x="748" y="-226" on="0"/>
        <pt x="-18" y="-321" on="1"/>
        <pt x="-15" y="-199" on="1"/>
      </contour>
    </TTGlyph>
    <TTGlyph name="florin" xMin="247" yMin="0" xMax="1085" yMax="1536">
      <contour>
        <pt x="564" y="826" on="1"/>
        <pt x="247" y="826" on="1"/>
        <pt x="252" y="853" on="1"/>
        <pt x="569" y="853" on="1"/>
        <pt x="644" y="1226" on="1"/>
        <pt x="673" y="1372" on="0"/>
        <pt x="829" y="1536" on="0"/>
        <pt x="940" y="1536" on="1"/>
        <pt x="1009" y="1536" on="0"/>
        <pt x="1085" y="1501" on="1"/>
        <pt x="1074" y="1476" on="1"/>
        <pt x="1047" y="1490" on="0"/>
        <pt x="977" y="1507" on="0"/>
        <pt x="938" y="1508" on="1"/>
        <pt x="839" y="1507" on="0"/>
        <pt x="700" y="1359" on="0"/>
        <pt x="674" y="1225" on="1"/>
        <pt x="599" y="853" on="1"/>
        <pt x="946" y="853" on="1"/>
        <pt x="941" y="826" on="1"/>
        <pt x="594" y="826" on="1"/>
        <pt x="429" y="0" on="1"/>
        <pt x="399" y="0" on="1"/>
      </contour>
    </TTGlyph>
    <TTGlyph name="four" xMin="9" yMin="-151" xMax="905" yMax="1210">
      <contour>
        <pt x="577" y="151" on="1"/>
        <pt x="9" y="151" on="1"/>
        <pt x="28" y="248" on="1"/>
        <pt x="650" y="1210" on="1"/>
        <pt x="806" y="1210" on="1"/>
        <pt x="200" y="284" on="1"/>
        <pt x="603" y="284" on="1"/>
        <pt x="689" y="709" on="1"/>
        <pt x="840" y="709" on="1"/>
        <pt x="754" y="284" on="1"/>
        <pt x="905" y="284" on="1"/>
        <pt x="879" y="151" on="1"/>
        <pt x="728" y="151" on="1"/>
        <pt x="667" y="-151" on="1"/>
        <pt x="516" y="-151" on="1"/>
      </contour>
    </TTGlyph>
    <TTGlyph name="g" xMin="8" yMin="-318" xMax="957" yMax="1064">
      <contour>
        <pt x="247" y="136" on="0"/>
        <pt x="134" y="262" on="0"/>
        <pt x="134" y="383" on="1"/>
        <pt x="134" y="442" on="0"/>
        <pt x="150" y="525" on="1"/>
        <pt x="184" y="697" on="0"/>
        <pt x="344" y="940" on="0"/>
        <pt x="560" y="1064" on="0"/>
        <pt x="678" y="1064" on="1"/>
        <pt x="819" y="1064" on="0"/>
        <pt x="957" y="1009" on="1"/>
        <pt x="776" y="96" on="1"/>
        <pt x="749" y="-36" on="0"/>
        <pt x="622" y="-223" on="0"/>
        <pt x="444" y="-318" on="0"/>
        <pt x="340" y="-318" on="1"/>
        <pt x="161" y="-318" on="0"/>
        <pt x="8" y="-188" on="1"/>
        <pt x="22" y="-167" on="1"/>
        <pt x="164" y="-289" on="0"/>
        <pt x="340" y="-290" on="1"/>
        <pt x="439" y="-289" on="0"/>
        <pt x="605" y="-202" on="0"/>
        <pt x="720" y="-29" on="0"/>
        <pt x="746" y="96" on="1"/>
        <pt x="815" y="442" on="1"/>
        <pt x="686" y="315" on="1"/>
        <pt x="602" y="231" on="0"/>
        <pt x="442" y="136" on="0"/>
        <pt x="358" y="136" on="1"/>
      </contour>
      <contour>
        <pt x="444" y="165" on="0"/>
        <pt x="597" y="257" on="0"/>
        <pt x="684" y="343" on="1"/>
        <pt x="822" y="476" on="1"/>
        <pt x="926" y="992" on="1"/>
        <pt x="798" y="1038" on="0"/>
        <pt x="682" y="1038" on="1"/>
        <pt x="569" y="1038" on="0"/>
        <pt x="365" y="921" on="0"/>
        <pt x="214" y="690" on="0"/>
        <pt x="181" y="525" on="1"/>
        <pt x="165" y="442" on="0"/>
        <pt x="165" y="387" on="1"/>
        <pt x="165" y="166" on="0"/>
        <pt x="365" y="164" on="1"/>
      </contour>
    </TTGlyph>
    <TTGlyph name="gbreve" xMin="-96" yMin="-318" xMax="951" yMax="1588">
      <component glyphName="g" x="-104" y="0" flags="0x0"/>
      <component glyphName="uni0306" x="-85" y="0" flags="0x0"/>
    </TTGlyph>
    <TTGlyph name="gcaron" xMin="-96" yMin="-318" xMax="984" yMax="1643">
      <component glyphName="g" x="-104" y="0" flags="0x0"/>
      <component glyphName="uni030C" x="-85" y="0" flags="0x0"/>
    </TTGlyph>
    <TTGlyph name="gcircumflex" xMin="-96" yMin="-318" xMax="905" yMax="1643">
      <component glyphName="g" x="-104" y="0" flags="0x0"/>
      <component glyphName="uni0302" x="-85" y="0" flags="0x0"/>
    </TTGlyph>
    <TTGlyph name="gdotaccent" xMin="-96" yMin="-318" xMax="853" yMax="1521">
      <component glyphName="g" x="-104" y="0" flags="0x0"/>
      <component glyphName="uni0307" x="-85" y="0" flags="0x0"/>
    </TTGlyph>
    <TTGlyph name="germandbls" xMin="-203" yMin="-328" xMax="941" yMax="1532">
      <contour>
        <pt x="-72" y="-229" on="0"/>
        <pt x="89" y="-26" on="0"/>
        <pt x="121" y="137" on="1"/>
        <pt x="331" y="1185" on="1"/>
        <pt x="354" y="1296" on="0"/>
        <pt x="460" y="1452" on="0"/>
        <pt x="612" y="1532" on="0"/>
        <pt x="701" y="1532" on="1"/>
        <pt x="815" y="1532" on="0"/>
        <pt x="941" y="1412" on="0"/>
        <pt x="941" y="1307" on="1"/>
        <pt x="941" y="1274" on="0"/>
        <pt x="933" y="1232" on="1"/>
        <pt x="919" y="1163" on="0"/>
        <pt x="859" y="1056" on="0"/>
        <pt x="789" y="981" on="0"/>
        <pt x="735" y="931" on="1"/>
        <pt x="690" y="891" on="0"/>
        <pt x="635" y="834" on="0"/>
        <pt x="592" y="762" on="0"/>
        <pt x="584" y="719" on="1"/>
        <pt x="580" y="700" on="0"/>
        <pt x="580" y="681" on="1"/>
        <pt x="580" y="640" on="0"/>
        <pt x="617" y="580" on="0"/>
        <pt x="672" y="538" on="0"/>
        <pt x="720" y="509" on="1"/>
        <pt x="773" y="477" on="0"/>
        <pt x="837" y="426" on="0"/>
        <pt x="882" y="348" on="0"/>
        <pt x="882" y="294" on="1"/>
        <pt x="882" y="269" on="0"/>
        <pt x="876" y="237" on="1"/>
        <pt x="863" y="173" on="0"/>
        <pt x="770" y="55" on="0"/>
        <pt x="629" y="-19" on="0"/>
        <pt x="547" y="-19" on="1"/>
        <pt x="497" y="-19" on="0"/>
        <pt x="426" y="5" on="0"/>
        <pt x="381" y="30" on="1"/>
        <pt x="391" y="50" on="1"/>
        <pt x="426" y="29" on="0"/>
        <pt x="496" y="8" on="0"/>
        <pt x="545" y="7" on="1"/>
        <pt x="620" y="7" on="0"/>
        <pt x="750" y="74" on="0"/>
        <pt x="834" y="181" on="0"/>
        <pt x="846" y="240" on="1"/>
        <pt x="851" y="263" on="0"/>
        <pt x="851" y="291" on="1"/>
        <pt x="851" y="340" on="0"/>
        <pt x="809" y="411" on="0"/>
        <pt x="748" y="457" on="0"/>
        <pt x="697" y="488" on="1"/>
        <pt x="648" y="517" on="0"/>
        <pt x="589" y="562" on="0"/>
        <pt x="549" y="628" on="0"/>
        <pt x="549" y="674" on="1"/>
        <pt x="549" y="693" on="0"/>
        <pt x="554" y="721" on="1"/>
        <pt x="563" y="768" on="0"/>
        <pt x="608" y="844" on="0"/>
        <pt x="663" y="901" on="0"/>
        <pt x="710" y="942" on="1"/>
        <pt x="763" y="989" on="0"/>
        <pt x="831" y="1061" on="0"/>
        <pt x="889" y="1164" on="0"/>
        <pt x="902" y="1231" on="1"/>
        <pt x="910" y="1273" on="0"/>
        <pt x="910" y="1304" on="1"/>
        <pt x="910" y="1398" on="0"/>
        <pt x="799" y="1505" on="0"/>
        <pt x="697" y="1505" on="1"/>
        <pt x="616" y="1505" on="0"/>
        <pt x="478" y="1431" on="0"/>
        <pt x="381" y="1286" on="0"/>
        <pt x="360" y="1183" on="1"/>
        <pt x="151" y="136" on="1"/>
        <pt x="116" y="-38" on="0"/>
        <pt x="-56" y="-253" on="0"/>
        <pt x="-194" y="-328" on="1"/>
        <pt x="-203" y="-303" on="1"/>
      </contour>
    </TTGlyph>
    <TTGlyph name="grave" xMin="514" yMin="756" xMax="805" yMax="1362">
      <contour>
        <pt x="514" y="1362" on="1"/>
        <pt x="788" y="1362" on="1"/>
        <pt x="805" y="756" on="1"/>
        <pt x="679" y="756" on="1"/>
      </contour>
    </TTGlyph>
    <TTGlyph name="gravecomb" xMin="441" yMin="1248" xMax="767" yMax="1643">
      <contour>
        <pt x="625" y="1248" on="1"/>
        <pt x="441" y="1643" on="1"/>
        <pt x="701" y="1643" on="1"/>
        <pt x="767" y="1248" on="1"/>
      </contour>
    </TTGlyph>
    <TTGlyph name="gravecomb.case" xMin="487" yMin="1475" xMax="813" yMax="1870">
      <contour>
        <pt x="671" y="1475" on="1"/>
        <pt x="487" y="1870" on="1"/>
        <pt x="747" y="1870" on="1"/>
        <pt x="813" y="1475" on="1"/>
      </contour>
    </TTGlyph>
    <TTGlyph name="greater" xMin="33" yMin="-68" xMax="979" yMax="1432">
      <contour>
        <pt x="802" y="671" on="1"/>
        <pt x="293" y="1231" on="1"/>
        <pt x="333" y="1432" on="1"/>
        <pt x="979" y="717" on="1"/>
        <pt x="965" y="647" on="1"/>
        <pt x="33" y="-68" on="1"/>
        <pt x="69" y="110" on="1"/>
      </contour>
    </TTGlyph>
    <TTGlyph name="h" xMin="94" yMin="0" xMax="925" yMax="1513">
      <contour>
        <pt x="396" y="1513" on="1"/>
        <pt x="426" y="1513" on="1"/>
        <pt x="275" y="757" on="1"/>
        <pt x="408" y="880" on="1"/>
        <pt x="473" y="940" on="0"/>
        <pt x="570" y="1013" on="0"/>
        <pt x="677" y="1059" on="0"/>
        <pt x="736" y="1059" on="1"/>
        <pt x="829" y="1059" on="0"/>
        <pt x="925" y="969" on="0"/>
        <pt x="925" y="881" on="1"/>
        <pt x="925" y="841" on="0"/>
        <pt x="917" y="802" on="1"/>
        <pt x="757" y="0" on="1"/>
        <pt x="727" y="0" on="1"/>
        <pt x="887" y="803" on="1"/>
        <pt x="895" y="848" on="0"/>
        <pt x="895" y="878" on="1"/>
        <pt x="895" y="955" on="0"/>
        <pt x="811" y="1030" on="0"/>
        <pt x="727" y="1030" on="1"/>
        <pt x="673" y="1030" on="0"/>
        <pt x="572" y="986" on="0"/>
        <pt x="477" y="913" on="0"/>
        <pt x="411" y="853" on="1"/>
        <pt x="269" y="725" on="1"/>
        <pt x="124" y="0" on="1"/>
        <pt x="94" y="0" on="1"/>
      </contour>
    </TTGlyph>
    <TTGlyph name="h.short" xMin="94" yMin="0" xMax="925" yMax="1362">
      <contour>
        <pt x="366" y="1362" on="1"/>
        <pt x="396" y="1362" on="1"/>
        <pt x="275" y="757" on="1"/>
        <pt x="408" y="880" on="1"/>
        <pt x="473" y="940" on="0"/>
        <pt x="570" y="1013" on="0"/>
        <pt x="677" y="1059" on="0"/>
        <pt x="736" y="1059" on="1"/>
        <pt x="829" y="1059" on="0"/>
        <pt x="925" y="969" on="0"/>
        <pt x="925" y="881" on="1"/>
        <pt x="925" y="841" on="0"/>
        <pt x="917" y="802" on="1"/>
        <pt x="757" y="0" on="1"/>
        <pt x="727" y="0" on="1"/>
        <pt x="887" y="803" on="1"/>
        <pt x="895" y="848" on="0"/>
        <pt x="895" y="878" on="1"/>
        <pt x="895" y="955" on="0"/>
        <pt x="811" y="1030" on="0"/>
        <pt x="727" y="1030" on="1"/>
        <pt x="673" y="1030" on="0"/>
        <pt x="572" y="986" on="0"/>
        <pt x="477" y="913" on="0"/>
        <pt x="411" y="853" on="1"/>
        <pt x="269" y="725" on="1"/>
        <pt x="124" y="0" on="1"/>
        <pt x="94" y="0" on="1"/>
      </contour>
    </TTGlyph>
    <TTGlyph name="hbar" xMin="94" yMin="0" xMax="925" yMax="1513">
      <contour>
        <pt x="350" y="1280" on="1"/>
        <pt x="199" y="1280" on="1"/>
        <pt x="204" y="1307" on="1"/>
        <pt x="355" y="1307" on="1"/>
        <pt x="396" y="1513" on="1"/>
        <pt x="426" y="1513" on="1"/>
        <pt x="385" y="1307" on="1"/>
        <pt x="643" y="1307" on="1"/>
        <pt x="638" y="1280" on="1"/>
        <pt x="380" y="1280" on="1"/>
        <pt x="275" y="757" on="1"/>
        <pt x="408" y="880" on="1"/>
        <pt x="473" y="940" on="0"/>
        <pt x="570" y="1013" on="0"/>
        <pt x="677" y="1059" on="0"/>
        <pt x="736" y="1059" on="1"/>
        <pt x="829" y="1059" on="0"/>
        <pt x="925" y="969" on="0"/>
        <pt x="925" y="881" on="1"/>
        <pt x="925" y="841" on="0"/>
        <pt x="917" y="802" on="1"/>
        <pt x="757" y="0" on="1"/>
        <pt x="727" y="0" on="1"/>
        <pt x="887" y="803" on="1"/>
        <pt x="895" y="848" on="0"/>
        <pt x="895" y="878" on="1"/>
        <pt x="895" y="955" on="0"/>
        <pt x="811" y="1030" on="0"/>
        <pt x="727" y="1030" on="1"/>
        <pt x="673" y="1030" on="0"/>
        <pt x="572" y="986" on="0"/>
        <pt x="477" y="913" on="0"/>
        <pt x="411" y="853" on="1"/>
        <pt x="269" y="725" on="1"/>
        <pt x="124" y="0" on="1"/>
        <pt x="94" y="0" on="1"/>
      </contour>
    </TTGlyph>
    <TTGlyph name="hcircumflex" xMin="-10" yMin="0" xMax="932" yMax="1870">
      <component glyphName="h.short" x="-104" y="0" flags="0x0"/>
      <component glyphName="uni0302.case" x="-104" y="0" flags="0x0"/>
    </TTGlyph>
    <TTGlyph name="hyphen" xMin="177" yMin="650" xMax="939" yMax="677">
      <contour>
        <pt x="182" y="677" on="1"/>
        <pt x="939" y="677" on="1"/>
        <pt x="934" y="650" on="1"/>
        <pt x="177" y="650" on="1"/>
      </contour>
    </TTGlyph>
    <TTGlyph name="i" xMin="-3" yMin="0" xMax="665" yMax="1521">
      <component glyphName="dotlessi" x="-104" y="0" flags="0x0"/>
      <component glyphName="uni0307" x="-105" y="0" flags="0x0"/>
    </TTGlyph>
    <TTGlyph name="i.sans" xMin="306" yMin="0" xMax="661" yMax="1521">
      <component glyphName="dotlessi.sans" x="-104" y="0" flags="0x0"/>
      <component glyphName="uni0307" x="-105" y="0" flags="0x0"/>
    </TTGlyph>
    <TTGlyph name="i.sans.prop" xMin="23" yMin="0" xMax="377" yMax="1521">
      <component glyphName="dotlessi.sans.prop" x="-104" y="0" flags="0x0"/>
      <component glyphName="uni0307" x="-389" y="0" flags="0x0"/>
    </TTGlyph>
    <TTGlyph name="iacute" xMin="-3" yMin="0" xMax="961" yMax="1643">
      <component glyphName="dotlessi" x="-104" y="0" flags="0x0"/>
      <component glyphName="acutecomb" x="-105" y="0" flags="0x0"/>
    </TTGlyph>
    <TTGlyph name="ibreve" xMin="-3" yMin="0" xMax="931" yMax="1588">
      <component glyphName="dotlessi" x="-104" y="0" flags="0x0"/>
      <component glyphName="uni0306" x="-105" y="0" flags="0x0"/>
    </TTGlyph>
    <TTGlyph name="icircumflex" xMin="-3" yMin="0" xMax="885" yMax="1643">
      <component glyphName="dotlessi" x="-104" y="0" flags="0x0"/>
      <component glyphName="uni0302" x="-105" y="0" flags="0x0"/>
    </TTGlyph>
    <TTGlyph name="idieresis" xMin="-3" yMin="0" xMax="847" yMax="1519">
      <component glyphName="dotlessi" x="-104" y="0" flags="0x0"/>
      <component glyphName="uni0308" x="-105" y="0" flags="0x0"/>
    </TTGlyph>
    <TTGlyph name="igrave" xMin="-3" yMin="0" xMax="665" yMax="1643">
      <component glyphName="dotlessi" x="-104" y="0" flags="0x0"/>
      <component glyphName="gravecomb" x="-105" y="0" flags="0x0"/>
    </TTGlyph>
    <TTGlyph name="imacron" xMin="-3" yMin="0" xMax="868" yMax="1505">
      <component glyphName="dotlessi" x="-104" y="0" flags="0x0"/>
      <component glyphName="uni0304" x="-105" y="0" flags="0x0"/>
    </TTGlyph>
    <TTGlyph name="iogonek" xMin="101" yMin="-303" xMax="769" yMax="1521">
      <contour>
        <pt x="765" y="0" on="1"/>
        <pt x="765" y="0" on="1"/>
        <pt x="667" y="-25" on="0"/>
        <pt x="541" y="-117" on="0"/>
        <pt x="529" y="-182" on="1"/>
        <pt x="526" y="-196" on="0"/>
        <pt x="526" y="-208" on="1"/>
        <pt x="526" y="-241" on="0"/>
        <pt x="570" y="-274" on="0"/>
        <pt x="611" y="-275" on="1"/>
        <pt x="649" y="-273" on="0"/>
        <pt x="688" y="-255" on="1"/>
        <pt x="689" y="-283" on="1"/>
        <pt x="644" y="-303" on="0"/>
        <pt x="600" y="-303" on="1"/>
        <pt x="550" y="-303" on="0"/>
        <pt x="494" y="-258" on="0"/>
        <pt x="494" y="-216" on="1"/>
        <pt x="494" y="-202" on="0"/>
        <pt x="497" y="-187" on="1"/>
        <pt x="511" y="-122" on="0"/>
        <pt x="628" y="-28" on="0"/>
        <pt x="716" y="0" on="1"/>
        <pt x="101" y="0" on="1"/>
        <pt x="105" y="23" on="1"/>
        <pt x="423" y="27" on="1"/>
        <pt x="622" y="1019" on="1"/>
        <pt x="324" y="1019" on="1"/>
        <pt x="328" y="1042" on="1"/>
        <pt x="642" y="1046" on="1"/>
        <pt x="657" y="1046" on="1"/>
        <pt x="453" y="27" on="1"/>
        <pt x="769" y="23" on="1"/>
      </contour>
      <contour>
        <pt x="692" y="1432" on="0"/>
        <pt x="672" y="1457" on="0"/>
        <pt x="675" y="1477" on="1"/>
        <pt x="679" y="1496" on="0"/>
        <pt x="709" y="1520" on="0"/>
        <pt x="728" y="1521" on="1"/>
        <pt x="744" y="1520" on="0"/>
        <pt x="765" y="1500" on="0"/>
        <pt x="765" y="1485" on="1"/>
        <pt x="765" y="1462" on="0"/>
        <pt x="733" y="1432" on="0"/>
        <pt x="711" y="1432" on="1"/>
      </contour>
    </TTGlyph>
    <TTGlyph name="itilde" xMin="-3" yMin="0" xMax="957" yMax="1562">
      <component glyphName="dotlessi" x="-104" y="0" flags="0x0"/>
      <component glyphName="tildecomb" x="-105" y="0" flags="0x0"/>
    </TTGlyph>
    <TTGlyph name="j" xMin="-10" yMin="-303" xMax="717" yMax="1521">
      <component glyphName="uni0237" x="-104" y="0" flags="0x0"/>
      <component glyphName="uni0307" x="-49" y="0" flags="0x0"/>
    </TTGlyph>
    <TTGlyph name="j.sans" xMin="-10" yMin="-303" xMax="717" yMax="1521">
      <component glyphName="uni0237" x="-104" y="0" flags="0x0"/>
      <component glyphName="uni0307" x="-49" y="0" flags="0x0"/>
    </TTGlyph>
    <TTGlyph name="j.sans.prop" xMin="-10" yMin="-303" xMax="717" yMax="1521">
      <component glyphName="uni0237" x="-104" y="0" flags="0x0"/>
      <component glyphName="uni0307" x="-49" y="0" flags="0x0"/>
    </TTGlyph>
    <TTGlyph name="jcircumflex" xMin="-10" yMin="-303" xMax="941" yMax="1643">
      <component glyphName="uni0237" x="-104" y="0" flags="0x0"/>
      <component glyphName="uni0302" x="-49" y="0" flags="0x0"/>
    </TTGlyph>
    <TTGlyph name="k" xMin="47" yMin="0" xMax="1031" yMax="1513">
      <contour>
        <pt x="47" y="0" on="1"/>
        <pt x="349" y="1513" on="1"/>
        <pt x="501" y="1513" on="1"/>
        <pt x="320" y="607" on="1"/>
        <pt x="851" y="1059" on="1"/>
        <pt x="1031" y="1059" on="1"/>
        <pt x="440" y="563" on="1"/>
        <pt x="842" y="0" on="1"/>
        <pt x="641" y="0" on="1"/>
        <pt x="298" y="496" on="1"/>
        <pt x="199" y="0" on="1"/>
      </contour>
    </TTGlyph>
    <TTGlyph name="l" xMin="94" yMin="0" xMax="761" yMax="1515">
      <contour>
        <pt x="98" y="23" on="1"/>
        <pt x="415" y="27" on="1"/>
        <pt x="707" y="1488" on="1"/>
        <pt x="410" y="1488" on="1"/>
        <pt x="415" y="1511" on="1"/>
        <pt x="727" y="1515" on="1"/>
        <pt x="744" y="1515" on="1"/>
        <pt x="446" y="27" on="1"/>
        <pt x="761" y="23" on="1"/>
        <pt x="757" y="0" on="1"/>
        <pt x="94" y="0" on="1"/>
      </contour>
    </TTGlyph>
    <TTGlyph name="l.sans" xMin="410" yMin="0" xMax="743" yMax="1513">
      <contour>
        <pt x="712" y="1513" on="1"/>
        <pt x="743" y="1513" on="1"/>
        <pt x="441" y="0" on="1"/>
        <pt x="410" y="0" on="1"/>
      </contour>
    </TTGlyph>
    <TTGlyph name="l.sans.prop" xMin="127" yMin="0" xMax="459" yMax="1513">
      <contour>
        <pt x="429" y="1513" on="1"/>
        <pt x="459" y="1513" on="1"/>
        <pt x="157" y="0" on="1"/>
        <pt x="127" y="0" on="1"/>
      </contour>
    </TTGlyph>
    <TTGlyph name="lacute" xMin="-10" yMin="0" xMax="1052" yMax="2021">
      <component glyphName="l" x="-104" y="0" flags="0x0"/>
      <component glyphName="acutecomb.case" x="-60" y="151" flags="0x4"/>
    </TTGlyph>
    <TTGlyph name="less" xMin="144" yMin="-70" xMax="1090" yMax="1430">
      <contour>
        <pt x="321" y="692" on="1"/>
        <pt x="830" y="131" on="1"/>
        <pt x="790" y="-70" on="1"/>
        <pt x="144" y="645" on="1"/>
        <pt x="158" y="715" on="1"/>
        <pt x="1090" y="1430" on="1"/>
        <pt x="1054" y="1252" on="1"/>
      </contour>
    </TTGlyph>
    <TTGlyph name="m" xMin="-1" yMin="0" xMax="1033" yMax="1059">
      <contour>
        <pt x="30" y="0" on="1"/>
        <pt x="-1" y="0" on="1"/>
        <pt x="207" y="1043" on="1"/>
        <pt x="238" y="1043" on="1"/>
        <pt x="182" y="761" on="1"/>
        <pt x="255" y="867" on="1"/>
        <pt x="324" y="967" on="0"/>
        <pt x="445" y="1059" on="0"/>
        <pt x="509" y="1059" on="1"/>
        <pt x="565" y="1059" on="0"/>
        <pt x="622" y="997" on="0"/>
        <pt x="622" y="938" on="1"/>
        <pt x="622" y="906" on="0"/>
        <pt x="615" y="872" on="1"/>
        <pt x="593" y="763" on="1"/>
        <pt x="666" y="868" on="1"/>
        <pt x="736" y="968" on="0"/>
        <pt x="857" y="1059" on="0"/>
        <pt x="920" y="1059" on="1"/>
        <pt x="1033" y="1059" on="0"/>
        <pt x="1033" y="939" on="1"/>
        <pt x="1033" y="907" on="0"/>
        <pt x="1026" y="872" on="1"/>
        <pt x="852" y="0" on="1"/>
        <pt x="821" y="0" on="1"/>
        <pt x="996" y="875" on="1"/>
        <pt x="1002" y="908" on="0"/>
        <pt x="1002" y="934" on="1"/>
        <pt x="1002" y="1031" on="0"/>
        <pt x="909" y="1031" on="1"/>
        <pt x="853" y="1031" on="0"/>
        <pt x="737" y="937" on="0"/>
        <pt x="668" y="838" on="1"/>
        <pt x="585" y="720" on="1"/>
        <pt x="441" y="0" on="1"/>
        <pt x="410" y="0" on="1"/>
        <pt x="585" y="875" on="1"/>
        <pt x="592" y="914" on="0"/>
        <pt x="592" y="934" on="1"/>
        <pt x="592" y="1031" on="0"/>
        <pt x="498" y="1031" on="1"/>
        <pt x="441" y="1031" on="0"/>
        <pt x="326" y="936" on="0"/>
        <pt x="257" y="837" on="1"/>
        <pt x="173" y="718" on="1"/>
      </contour>
    </TTGlyph>
    <TTGlyph name="macron" xMin="370" yMin="1475" xMax="869" yMax="1505">
      <component glyphName="uni0304" x="-104" y="0" flags="0x0"/>
    </TTGlyph>
    <TTGlyph name="minus" xMin="67" yMin="667" xMax="1056" yMax="695">
      <contour>
        <pt x="73" y="695" on="1"/>
        <pt x="1056" y="695" on="1"/>
        <pt x="1050" y="667" on="1"/>
        <pt x="67" y="667" on="1"/>
      </contour>
    </TTGlyph>
    <TTGlyph name="multiply" xMin="99" yMin="292" xMax="1023" yMax="1070">
      <contour>
        <pt x="99" y="313" on="1"/>
        <pt x="540" y="681" on="1"/>
        <pt x="246" y="1048" on="1"/>
        <pt x="272" y="1070" on="1"/>
        <pt x="566" y="702" on="1"/>
        <pt x="1007" y="1070" on="1"/>
        <pt x="1023" y="1048" on="1"/>
        <pt x="583" y="681" on="1"/>
        <pt x="876" y="313" on="1"/>
        <pt x="851" y="292" on="1"/>
        <pt x="557" y="660" on="1"/>
        <pt x="116" y="292" on="1"/>
      </contour>
    </TTGlyph>
    <TTGlyph name="n" xMin="94" yMin="0" xMax="925" yMax="1059">
      <contour>
        <pt x="302" y="1043" on="1"/>
        <pt x="332" y="1043" on="1"/>
        <pt x="275" y="757" on="1"/>
        <pt x="408" y="880" on="1"/>
        <pt x="473" y="940" on="0"/>
        <pt x="570" y="1013" on="0"/>
        <pt x="677" y="1059" on="0"/>
        <pt x="736" y="1059" on="1"/>
        <pt x="829" y="1059" on="0"/>
        <pt x="925" y="969" on="0"/>
        <pt x="925" y="881" on="1"/>
        <pt x="925" y="841" on="0"/>
        <pt x="917" y="802" on="1"/>
        <pt x="757" y="0" on="1"/>
        <pt x="727" y="0" on="1"/>
        <pt x="887" y="803" on="1"/>
        <pt x="895" y="848" on="0"/>
        <pt x="895" y="878" on="1"/>
        <pt x="895" y="955" on="0"/>
        <pt x="811" y="1030" on="0"/>
        <pt x="727" y="1030" on="1"/>
        <pt x="673" y="1030" on="0"/>
        <pt x="572" y="986" on="0"/>
        <pt x="477" y="913" on="0"/>
        <pt x="411" y="853" on="1"/>
        <pt x="269" y="725" on="1"/>
        <pt x="124" y="0" on="1"/>
        <pt x="94" y="0" on="1"/>
      </contour>
    </TTGlyph>
    <TTGlyph name="nacute" xMin="-10" yMin="0" xMax="962" yMax="1643">
      <component glyphName="n" x="-104" y="0" flags="0x0"/>
      <component glyphName="acutecomb" x="-104" y="0" flags="0x0"/>
    </TTGlyph>
    <TTGlyph name="ncaron" xMin="-10" yMin="0" xMax="965" yMax="1643">
      <component glyphName="n" x="-104" y="0" flags="0x0"/>
      <component glyphName="uni030C" x="-104" y="0" flags="0x0"/>
    </TTGlyph>
    <TTGlyph name="nine" xMin="91" yMin="-314" xMax="968" yMax="1227">
      <contour>
        <pt x="266" y="-145" on="0"/>
        <pt x="509" y="-2" on="0"/>
        <pt x="682" y="242" on="0"/>
        <pt x="738" y="434" on="1"/>
        <pt x="664" y="374" on="0"/>
        <pt x="509" y="306" on="0"/>
        <pt x="423" y="306" on="1"/>
        <pt x="345" y="306" on="0"/>
        <pt x="213" y="374" on="0"/>
        <pt x="132" y="518" on="0"/>
        <pt x="132" y="625" on="1"/>
        <pt x="132" y="690" on="0"/>
        <pt x="146" y="759" on="1"/>
        <pt x="172" y="893" on="0"/>
        <pt x="317" y="1106" on="0"/>
        <pt x="526" y="1227" on="0"/>
        <pt x="645" y="1227" on="1"/>
        <pt x="803" y="1227" on="0"/>
        <pt x="968" y="1025" on="0"/>
        <pt x="968" y="829" on="1"/>
        <pt x="968" y="718" on="0"/>
        <pt x="939" y="570" on="1"/>
        <pt x="887" y="311" on="0"/>
        <pt x="672" y="-49" on="0"/>
        <pt x="334" y="-268" on="0"/>
        <pt x="95" y="-314" on="1"/>
        <pt x="91" y="-191" on="1"/>
      </contour>
      <contour>
        <pt x="299" y="696" on="0"/>
        <pt x="299" y="647" on="1"/>
        <pt x="299" y="547" on="0"/>
        <pt x="395" y="443" on="0"/>
        <pt x="480" y="443" on="1"/>
        <pt x="612" y="443" on="0"/>
        <pt x="775" y="588" on="1"/>
        <pt x="779" y="604" on="1"/>
        <pt x="804" y="729" on="0"/>
        <pt x="804" y="826" on="1"/>
        <pt x="804" y="957" on="0"/>
        <pt x="710" y="1091" on="0"/>
        <pt x="620" y="1091" on="1"/>
        <pt x="546" y="1091" on="0"/>
        <pt x="420" y="1006" on="0"/>
        <pt x="331" y="853" on="0"/>
        <pt x="311" y="754" on="1"/>
      </contour>
    </TTGlyph>
    <TTGlyph name="ntilde" xMin="-10" yMin="0" xMax="958" yMax="1562">
      <component glyphName="n" x="-104" y="0" flags="0x0"/>
      <component glyphName="tildecomb" x="-104" y="0" flags="0x0"/>
    </TTGlyph>
    <TTGlyph name="numbersign" xMin="50" yMin="-38" xMax="1078" yMax="1399">
      <contour>
        <pt x="243" y="390" on="1"/>
        <pt x="50" y="390" on="1"/>
        <pt x="76" y="522" on="1"/>
        <pt x="269" y="522" on="1"/>
        <pt x="337" y="862" on="1"/>
        <pt x="144" y="862" on="1"/>
        <pt x="171" y="995" on="1"/>
        <pt x="364" y="995" on="1"/>
        <pt x="445" y="1399" on="1"/>
        <pt x="588" y="1399" on="1"/>
        <pt x="507" y="995" on="1"/>
        <pt x="742" y="995" on="1"/>
        <pt x="823" y="1399" on="1"/>
        <pt x="966" y="1399" on="1"/>
        <pt x="885" y="995" on="1"/>
        <pt x="1078" y="995" on="1"/>
        <pt x="1051" y="862" on="1"/>
        <pt x="858" y="862" on="1"/>
        <pt x="790" y="522" on="1"/>
        <pt x="983" y="522" on="1"/>
        <pt x="957" y="390" on="1"/>
        <pt x="764" y="390" on="1"/>
        <pt x="678" y="-38" on="1"/>
        <pt x="535" y="-38" on="1"/>
        <pt x="621" y="390" on="1"/>
        <pt x="386" y="390" on="1"/>
        <pt x="300" y="-38" on="1"/>
        <pt x="157" y="-38" on="1"/>
      </contour>
      <contour>
        <pt x="647" y="522" on="1"/>
        <pt x="715" y="862" on="1"/>
        <pt x="480" y="862" on="1"/>
        <pt x="412" y="522" on="1"/>
      </contour>
    </TTGlyph>
    <TTGlyph name="o" xMin="129" yMin="-19" xMax="931" yMax="1063">
      <contour>
        <pt x="280" y="-19" on="0"/>
        <pt x="129" y="169" on="0"/>
        <pt x="129" y="337" on="1"/>
        <pt x="129" y="420" on="0"/>
        <pt x="149" y="523" on="1"/>
        <pt x="180" y="679" on="0"/>
        <pt x="320" y="924" on="0"/>
        <pt x="519" y="1062" on="0"/>
        <pt x="636" y="1062" on="1"/>
        <pt x="785" y="1063" on="0"/>
        <pt x="931" y="874" on="0"/>
        <pt x="931" y="711" on="1"/>
        <pt x="931" y="629" on="0"/>
        <pt x="910" y="521" on="1"/>
        <pt x="878" y="364" on="0"/>
        <pt x="732" y="118" on="0"/>
        <pt x="532" y="-19" on="0"/>
        <pt x="422" y="-19" on="1"/>
      </contour>
      <contour>
        <pt x="528" y="8" on="0"/>
        <pt x="714" y="138" on="0"/>
        <pt x="849" y="372" on="0"/>
        <pt x="879" y="523" on="1"/>
        <pt x="900" y="625" on="0"/>
        <pt x="900" y="713" on="1"/>
        <pt x="900" y="865" on="0"/>
        <pt x="768" y="1036" on="0"/>
        <pt x="633" y="1036" on="1"/>
        <pt x="523" y="1036" on="0"/>
        <pt x="339" y="906" on="0"/>
        <pt x="210" y="673" on="0"/>
        <pt x="180" y="521" on="1"/>
        <pt x="160" y="424" on="0"/>
        <pt x="160" y="335" on="1"/>
        <pt x="160" y="179" on="0"/>
        <pt x="296" y="8" on="0"/>
        <pt x="425" y="8" on="1"/>
      </contour>
    </TTGlyph>
    <TTGlyph name="oacute" xMin="25" yMin="-19" xMax="962" yMax="1643">
      <component glyphName="o" x="-104" y="0" flags="0x0"/>
      <component glyphName="acutecomb" x="-104" y="0" flags="0x0"/>
    </TTGlyph>
    <TTGlyph name="obreve" xMin="25" yMin="-19" xMax="932" yMax="1588">
      <component glyphName="o" x="-104" y="0" flags="0x0"/>
      <component glyphName="uni0306" x="-104" y="0" flags="0x0"/>
    </TTGlyph>
    <TTGlyph name="ocircumflex" xMin="25" yMin="-19" xMax="886" yMax="1643">
      <component glyphName="o" x="-104" y="0" flags="0x0"/>
      <component glyphName="uni0302" x="-104" y="0" flags="0x0"/>
    </TTGlyph>
    <TTGlyph name="odieresis" xMin="25" yMin="-19" xMax="848" yMax="1519">
      <component glyphName="o" x="-104" y="0" flags="0x0"/>
      <component glyphName="uni0308" x="-104" y="0" flags="0x0"/>
    </TTGlyph>
    <TTGlyph name="ogonek" xMin="184" yMin="-303" xMax="455" yMax="13">
      <component glyphName="uni0328" x="-104" y="0" flags="0x0"/>
    </TTGlyph>
    <TTGlyph name="ograve" xMin="25" yMin="-19" xMax="827" yMax="1643">
      <component glyphName="o" x="-104" y="0" flags="0x0"/>
      <component glyphName="gravecomb" x="-104" y="0" flags="0x0"/>
    </TTGlyph>
    <TTGlyph name="omacron" xMin="25" yMin="-19" xMax="869" yMax="1505">
      <component glyphName="o" x="-104" y="0" flags="0x0"/>
      <component glyphName="uni0304" x="-104" y="0" flags="0x0"/>
    </TTGlyph>
    <TTGlyph name="one" xMin="110" yMin="0" xMax="790" yMax="1233">
      <contour>
        <pt x="114" y="23" on="1"/>
        <pt x="438" y="27" on="1"/>
        <pt x="673" y="1201" on="1"/>
        <pt x="287" y="1089" on="1"/>
        <pt x="286" y="1115" on="1"/>
        <pt x="690" y="1233" on="1"/>
        <pt x="709" y="1233" on="1"/>
        <pt x="468" y="27" on="1"/>
        <pt x="790" y="23" on="1"/>
        <pt x="786" y="0" on="1"/>
        <pt x="110" y="0" on="1"/>
      </contour>
    </TTGlyph>
    <TTGlyph name="otilde" xMin="25" yMin="-19" xMax="958" yMax="1562">
      <component glyphName="o" x="-104" y="0" flags="0x0"/>
      <component glyphName="tildecomb" x="-104" y="0" flags="0x0"/>
    </TTGlyph>
    <TTGlyph name="p" xMin="33" yMin="-303" xMax="947" yMax="1059">
      <contour>
        <pt x="302" y="1043" on="1"/>
        <pt x="332" y="1043" on="1"/>
        <pt x="275" y="755" on="1"/>
        <pt x="403" y="881" on="1"/>
        <pt x="489" y="966" on="0"/>
        <pt x="647" y="1059" on="0"/>
        <pt x="731" y="1059" on="1"/>
        <pt x="838" y="1059" on="0"/>
        <pt x="947" y="920" on="0"/>
        <pt x="947" y="788" on="1"/>
        <pt x="947" y="706" on="0"/>
        <pt x="926" y="602" on="1"/>
        <pt x="886" y="403" on="0"/>
        <pt x="718" y="122" on="0"/>
        <pt x="498" y="-21" on="0"/>
        <pt x="379" y="-21" on="1"/>
        <pt x="259" y="-21" on="0"/>
        <pt x="130" y="26" on="1"/>
        <pt x="63" y="-303" on="1"/>
        <pt x="33" y="-303" on="1"/>
      </contour>
      <contour>
        <pt x="490" y="6" on="0"/>
        <pt x="698" y="142" on="0"/>
        <pt x="857" y="411" on="0"/>
        <pt x="895" y="602" on="1"/>
        <pt x="916" y="707" on="0"/>
        <pt x="916" y="787" on="1"/>
        <pt x="916" y="908" on="0"/>
        <pt x="819" y="1031" on="0"/>
        <pt x="724" y="1031" on="1"/>
        <pt x="646" y="1031" on="0"/>
        <pt x="493" y="938" on="0"/>
        <pt x="406" y="853" on="1"/>
        <pt x="268" y="720" on="1"/>
        <pt x="133" y="52" on="1"/>
        <pt x="183" y="32" on="0"/>
        <pt x="312" y="6" on="0"/>
        <pt x="377" y="5" on="1"/>
      </contour>
    </TTGlyph>
    <TTGlyph name="parenleft" xMin="279" yMin="-290" xMax="1095" yMax="1500">
      <contour>
        <pt x="389" y="981" on="0"/>
        <pt x="764" y="1456" on="0"/>
        <pt x="1095" y="1500" on="1"/>
        <pt x="1090" y="1373" on="1"/>
        <pt x="903" y="1340" on="0"/>
        <pt x="661" y="1138" on="0"/>
        <pt x="521" y="827" on="0"/>
        <pt x="476" y="604" on="1"/>
        <pt x="437" y="409" on="0"/>
        <pt x="437" y="278" on="1"/>
        <pt x="437" y="93" on="0"/>
        <pt x="597" y="-128" on="0"/>
        <pt x="781" y="-163" on="1"/>
        <pt x="739" y="-290" on="1"/>
        <pt x="498" y="-256" on="0"/>
        <pt x="279" y="48" on="0"/>
        <pt x="279" y="291" on="1"/>
        <pt x="279" y="429" on="0"/>
        <pt x="314" y="606" on="1"/>
      </contour>
    </TTGlyph>
    <TTGlyph name="parenright" xMin="155" yMin="-290" xMax="970" yMax="1500">
      <contour>
        <pt x="861" y="229" on="0"/>
        <pt x="485" y="-246" on="0"/>
        <pt x="155" y="-290" on="1"/>
        <pt x="159" y="-163" on="1"/>
        <pt x="347" y="-130" on="0"/>
        <pt x="589" y="72" on="0"/>
        <pt x="729" y="383" on="0"/>
        <pt x="773" y="606" on="1"/>
        <pt x="812" y="803" on="0"/>
        <pt x="812" y="933" on="1"/>
        <pt x="812" y="1118" on="0"/>
        <pt x="653" y="1338" on="0"/>
        <pt x="468" y="1373" on="1"/>
        <pt x="511" y="1500" on="1"/>
        <pt x="752" y="1466" on="0"/>
        <pt x="970" y="1163" on="0"/>
        <pt x="970" y="919" on="1"/>
        <pt x="970" y="781" on="0"/>
        <pt x="935" y="604" on="1"/>
      </contour>
    </TTGlyph>
    <TTGlyph name="percent" xMin="-55" yMin="-19" xMax="1178" yMax="1380">
      <contour>
        <pt x="1019" y="1210" on="1"/>
        <pt x="1178" y="1210" on="1"/>
        <pt x="104" y="151" on="1"/>
        <pt x="-55" y="151" on="1"/>
      </contour>
      <contour>
        <pt x="601" y="-19" on="0"/>
        <pt x="509" y="88" on="0"/>
        <pt x="509" y="186" on="1"/>
        <pt x="509" y="229" on="0"/>
        <pt x="520" y="287" on="1"/>
        <pt x="548" y="430" on="0"/>
        <pt x="699" y="588" on="0"/>
        <pt x="806" y="588" on="1"/>
        <pt x="891" y="588" on="0"/>
        <pt x="983" y="483" on="0"/>
        <pt x="983" y="387" on="1"/>
        <pt x="983" y="343" on="0"/>
        <pt x="972" y="285" on="1"/>
        <pt x="943" y="141" on="0"/>
        <pt x="793" y="-19" on="0"/>
        <pt x="687" y="-19" on="1"/>
      </contour>
      <contour>
        <pt x="754" y="104" on="0"/>
        <pt x="821" y="190" on="0"/>
        <pt x="840" y="287" on="1"/>
        <pt x="851" y="344" on="0"/>
        <pt x="851" y="377" on="1"/>
        <pt x="851" y="467" on="0"/>
        <pt x="782" y="467" on="1"/>
        <pt x="735" y="467" on="0"/>
        <pt x="669" y="381" on="0"/>
        <pt x="650" y="285" on="1"/>
        <pt x="639" y="227" on="0"/>
        <pt x="639" y="194" on="1"/>
        <pt x="639" y="146" on="0"/>
        <pt x="673" y="104" on="0"/>
        <pt x="707" y="104" on="1"/>
      </contour>
      <contour>
        <pt x="231" y="773" on="0"/>
        <pt x="139" y="879" on="0"/>
        <pt x="139" y="976" on="1"/>
        <pt x="139" y="1028" on="0"/>
        <pt x="150" y="1079" on="1"/>
        <pt x="178" y="1222" on="0"/>
        <pt x="329" y="1380" on="0"/>
        <pt x="436" y="1380" on="1"/>
        <pt x="521" y="1380" on="0"/>
        <pt x="612" y="1276" on="0"/>
        <pt x="612" y="1180" on="1"/>
        <pt x="612" y="1135" on="0"/>
        <pt x="601" y="1077" on="1"/>
        <pt x="572" y="934" on="0"/>
        <pt x="422" y="773" on="0"/>
        <pt x="316" y="773" on="1"/>
      </contour>
      <contour>
        <pt x="384" y="896" on="0"/>
        <pt x="451" y="982" on="0"/>
        <pt x="470" y="1079" on="1"/>
        <pt x="480" y="1130" on="0"/>
        <pt x="480" y="1168" on="1"/>
        <pt x="480" y="1216" on="0"/>
        <pt x="445" y="1259" on="0"/>
        <pt x="412" y="1259" on="1"/>
        <pt x="365" y="1259" on="0"/>
        <pt x="298" y="1173" on="0"/>
        <pt x="279" y="1077" on="1"/>
        <pt x="268" y="1020" on="0"/>
        <pt x="268" y="987" on="1"/>
        <pt x="268" y="896" on="0"/>
        <pt x="337" y="896" on="1"/>
      </contour>
    </TTGlyph>
    <TTGlyph name="period" xMin="383" yMin="-8" xMax="484" yMax="93">
      <contour>
        <pt x="406" y="-8" on="0"/>
        <pt x="383" y="16" on="0"/>
        <pt x="383" y="34" on="1"/>
        <pt x="383" y="58" on="0"/>
        <pt x="419" y="93" on="0"/>
        <pt x="442" y="93" on="1"/>
        <pt x="461" y="93" on="0"/>
        <pt x="484" y="69" on="0"/>
        <pt x="484" y="51" on="1"/>
        <pt x="484" y="27" on="0"/>
        <pt x="448" y="-8" on="0"/>
        <pt x="424" y="-7" on="1"/>
      </contour>
    </TTGlyph>
    <TTGlyph name="periodcentered" xMin="520" yMin="627" xMax="596" yMax="700">
      <contour>
        <pt x="536" y="628" on="0"/>
        <pt x="520" y="649" on="0"/>
        <pt x="522" y="665" on="1"/>
        <pt x="526" y="681" on="0"/>
        <pt x="549" y="700" on="0"/>
        <pt x="564" y="700" on="1"/>
        <pt x="580" y="700" on="0"/>
        <pt x="596" y="679" on="0"/>
        <pt x="594" y="663" on="1"/>
        <pt x="590" y="647" on="0"/>
        <pt x="567" y="628" on="0"/>
        <pt x="551" y="627" on="1"/>
      </contour>
    </TTGlyph>
    <TTGlyph name="pi" xMin="94" yMin="0" xMax="965" yMax="1043">
      <contour>
        <pt x="757" y="0" on="1"/>
        <pt x="727" y="0" on="1"/>
        <pt x="930" y="1016" on="1"/>
        <pt x="327" y="1016" on="1"/>
        <pt x="124" y="0" on="1"/>
        <pt x="94" y="0" on="1"/>
        <pt x="302" y="1043" on="1"/>
        <pt x="965" y="1043" on="1"/>
      </contour>
    </TTGlyph>
    <TTGlyph name="plus" xMin="67" yMin="189" xMax="1056" yMax="1172">
      <contour>
        <pt x="543" y="667" on="1"/>
        <pt x="67" y="667" on="1"/>
        <pt x="73" y="695" on="1"/>
        <pt x="549" y="695" on="1"/>
        <pt x="644" y="1172" on="1"/>
        <pt x="675" y="1172" on="1"/>
        <pt x="580" y="695" on="1"/>
        <pt x="1056" y="695" on="1"/>
        <pt x="1050" y="667" on="1"/>
        <pt x="574" y="667" on="1"/>
        <pt x="478" y="189" on="1"/>
        <pt x="447" y="189" on="1"/>
      </contour>
    </TTGlyph>
    <TTGlyph name="plusminus" xMin="-160" yMin="54" xMax="982" yMax="1323">
      <component glyphName="minus" x="-227" y="-613" flags="0x4"/>
      <component glyphName="plus" x="-74" y="151" flags="0x4"/>
    </TTGlyph>
    <TTGlyph name="q" xMin="113" yMin="-303" xMax="957" yMax="1064">
      <contour>
        <pt x="784" y="289" on="1"/>
        <pt x="656" y="163" on="1"/>
        <pt x="572" y="79" on="0"/>
        <pt x="412" y="-15" on="0"/>
        <pt x="328" y="-15" on="1"/>
        <pt x="221" y="-15" on="0"/>
        <pt x="113" y="124" on="0"/>
        <pt x="113" y="257" on="1"/>
        <pt x="113" y="336" on="0"/>
        <pt x="135" y="449" on="1"/>
        <pt x="174" y="645" on="0"/>
        <pt x="341" y="923" on="0"/>
        <pt x="560" y="1064" on="0"/>
        <pt x="678" y="1064" on="1"/>
        <pt x="819" y="1064" on="0"/>
        <pt x="957" y="1009" on="1"/>
        <pt x="696" y="-303" on="1"/>
        <pt x="666" y="-303" on="1"/>
      </contour>
      <contour>
        <pt x="413" y="13" on="0"/>
        <pt x="566" y="105" on="0"/>
        <pt x="653" y="190" on="1"/>
        <pt x="791" y="323" on="1"/>
        <pt x="926" y="992" on="1"/>
        <pt x="798" y="1038" on="0"/>
        <pt x="682" y="1038" on="1"/>
        <pt x="569" y="1038" on="0"/>
        <pt x="361" y="904" on="0"/>
        <pt x="203" y="639" on="0"/>
        <pt x="165" y="449" on="1"/>
        <pt x="144" y="343" on="0"/>
        <pt x="144" y="260" on="1"/>
        <pt x="144" y="138" on="0"/>
        <pt x="240" y="13" on="0"/>
        <pt x="335" y="12" on="1"/>
      </contour>
    </TTGlyph>
    <TTGlyph name="question" xMin="293" yMin="-8" xMax="1021" yMax="1380">
      <contour>
        <pt x="581" y="629" on="0"/>
        <pt x="732" y="759" on="0"/>
        <pt x="824" y="897" on="0"/>
        <pt x="840" y="975" on="1"/>
        <pt x="847" y="1009" on="0"/>
        <pt x="847" y="1044" on="1"/>
        <pt x="847" y="1140" on="0"/>
        <pt x="720" y="1244" on="0"/>
        <pt x="596" y="1244" on="1"/>
        <pt x="533" y="1244" on="0"/>
        <pt x="370" y="1213" on="0"/>
        <pt x="307" y="1193" on="1"/>
        <pt x="293" y="1301" on="1"/>
        <pt x="376" y="1335" on="0"/>
        <pt x="561" y="1380" on="0"/>
        <pt x="648" y="1380" on="1"/>
        <pt x="765" y="1380" on="0"/>
        <pt x="933" y="1306" on="0"/>
        <pt x="1021" y="1168" on="0"/>
        <pt x="1021" y="1074" on="1"/>
        <pt x="1021" y="1033" on="0"/>
        <pt x="1012" y="986" on="1"/>
        <pt x="982" y="835" on="0"/>
        <pt x="727" y="572" on="0"/>
        <pt x="526" y="453" on="1"/>
        <pt x="465" y="549" on="1"/>
      </contour>
      <contour>
        <pt x="406" y="-8" on="0"/>
        <pt x="383" y="16" on="0"/>
        <pt x="383" y="34" on="1"/>
        <pt x="383" y="58" on="0"/>
        <pt x="419" y="93" on="0"/>
        <pt x="442" y="93" on="1"/>
        <pt x="461" y="93" on="0"/>
        <pt x="484" y="69" on="0"/>
        <pt x="484" y="51" on="1"/>
        <pt x="484" y="27" on="0"/>
        <pt x="448" y="-8" on="0"/>
        <pt x="424" y="-7" on="1"/>
      </contour>
    </TTGlyph>
    <TTGlyph name="questiondown" xMin="41" yMin="-321" xMax="769" yMax="1067">
      <contour>
        <pt x="423" y="391" on="0"/>
        <pt x="245" y="199" on="0"/>
        <pt x="222" y="84" on="1"/>
        <pt x="215" y="50" on="0"/>
        <pt x="215" y="15" on="1"/>
        <pt x="215" y="-81" on="0"/>
        <pt x="342" y="-185" on="0"/>
        <pt x="467" y="-185" on="1"/>
        <pt x="530" y="-185" on="0"/>
        <pt x="692" y="-154" on="0"/>
        <pt x="755" y="-134" on="1"/>
        <pt x="769" y="-242" on="1"/>
        <pt x="686" y="-276" on="0"/>
        <pt x="502" y="-321" on="0"/>
        <pt x="415" y="-321" on="1"/>
        <pt x="298" y="-321" on="0"/>
        <pt x="129" y="-246" on="0"/>
        <pt x="41" y="-108" on="0"/>
        <pt x="41" y="-14" on="1"/>
        <pt x="41" y="28" on="0"/>
        <pt x="50" y="73" on="1"/>
        <pt x="80" y="224" on="0"/>
        <pt x="335" y="487" on="0"/>
        <pt x="536" y="606" on="1"/>
        <pt x="598" y="510" on="1"/>
      </contour>
      <contour>
        <pt x="656" y="1067" on="0"/>
        <pt x="679" y="1043" on="0"/>
        <pt x="679" y="1025" on="1"/>
        <pt x="679" y="1001" on="0"/>
        <pt x="643" y="966" on="0"/>
        <pt x="620" y="966" on="1"/>
        <pt x="601" y="966" on="0"/>
        <pt x="578" y="990" on="0"/>
        <pt x="578" y="1008" on="1"/>
        <pt x="578" y="1032" on="0"/>
        <pt x="614" y="1067" on="0"/>
        <pt x="638" y="1066" on="1"/>
      </contour>
    </TTGlyph>
    <TTGlyph name="quotedbl" xMin="196" yMin="756" xMax="934" yMax="1362">
      <component glyphName="quotesingle" x="-320" y="0" flags="0x0"/>
      <component glyphName="quotesingle" x="112" y="0" flags="0x0"/>
    </TTGlyph>
    <TTGlyph name="quotedblbase" xMin="-242" yMin="-314" xMax="813" yMax="323">
      <component glyphName="quoteright" x="-547" y="-1059" flags="0x4"/>
      <component glyphName="quoteright" x="-44" y="-1059" flags="0x4"/>
    </TTGlyph>
    <TTGlyph name="quotedblleft" xMin="157" yMin="800" xMax="1213" yMax="1437">
      <contour>
        <pt x="740" y="800" on="0"/>
        <pt x="660" y="882" on="0"/>
        <pt x="660" y="960" on="1"/>
        <pt x="660" y="993" on="0"/>
        <pt x="667" y="1028" on="1"/>
        <pt x="701" y="1194" on="0"/>
        <pt x="977" y="1403" on="0"/>
        <pt x="1209" y="1437" on="1"/>
        <pt x="1213" y="1320" on="1"/>
        <pt x="1068" y="1292" on="0"/>
        <pt x="893" y="1201" on="0"/>
        <pt x="883" y="1152" on="1"/>
        <pt x="882" y="1149" on="0"/>
        <pt x="882" y="1144" on="1"/>
        <pt x="882" y="1117" on="0"/>
        <pt x="928" y="1093" on="1"/>
        <pt x="960" y="1077" on="0"/>
        <pt x="992" y="1022" on="0"/>
        <pt x="992" y="988" on="1"/>
        <pt x="992" y="974" on="0"/>
        <pt x="989" y="957" on="1"/>
        <pt x="975" y="888" on="0"/>
        <pt x="874" y="800" on="0"/>
        <pt x="804" y="800" on="1"/>
      </contour>
      <contour>
        <pt x="237" y="800" on="0"/>
        <pt x="157" y="882" on="0"/>
        <pt x="157" y="960" on="1"/>
        <pt x="157" y="993" on="0"/>
        <pt x="164" y="1028" on="1"/>
        <pt x="198" y="1194" on="0"/>
        <pt x="474" y="1403" on="0"/>
        <pt x="706" y="1437" on="1"/>
        <pt x="710" y="1320" on="1"/>
        <pt x="565" y="1292" on="0"/>
        <pt x="390" y="1201" on="0"/>
        <pt x="380" y="1152" on="1"/>
        <pt x="379" y="1149" on="0"/>
        <pt x="379" y="1144" on="1"/>
        <pt x="379" y="1117" on="0"/>
        <pt x="425" y="1093" on="1"/>
        <pt x="457" y="1077" on="0"/>
        <pt x="489" y="1022" on="0"/>
        <pt x="489" y="988" on="1"/>
        <pt x="489" y="974" on="0"/>
        <pt x="486" y="957" on="1"/>
        <pt x="472" y="888" on="0"/>
        <pt x="371" y="800" on="0"/>
        <pt x="301" y="800" on="1"/>
      </contour>
    </TTGlyph>
    <TTGlyph name="quotedblright" xMin="-30" yMin="745" xMax="1025" yMax="1382">
      <component glyphName="quoteright" x="-335" y="0" flags="0x0"/>
      <component glyphName="quoteright" x="168" y="0" flags="0x0"/>
    </TTGlyph>
    <TTGlyph name="quoteleft" xMin="429" yMin="800" xMax="982" yMax="1437">
      <contour>
        <pt x="509" y="800" on="0"/>
        <pt x="429" y="882" on="0"/>
        <pt x="429" y="960" on="1"/>
        <pt x="429" y="993" on="0"/>
        <pt x="436" y="1028" on="1"/>
        <pt x="470" y="1194" on="0"/>
        <pt x="746" y="1403" on="0"/>
        <pt x="978" y="1437" on="1"/>
        <pt x="982" y="1320" on="1"/>
        <pt x="837" y="1292" on="0"/>
        <pt x="662" y="1201" on="0"/>
        <pt x="652" y="1152" on="1"/>
        <pt x="651" y="1149" on="0"/>
        <pt x="651" y="1144" on="1"/>
        <pt x="651" y="1117" on="0"/>
        <pt x="697" y="1093" on="1"/>
        <pt x="729" y="1077" on="0"/>
        <pt x="761" y="1022" on="0"/>
        <pt x="761" y="988" on="1"/>
        <pt x="761" y="974" on="0"/>
        <pt x="758" y="957" on="1"/>
        <pt x="744" y="888" on="0"/>
        <pt x="643" y="800" on="0"/>
        <pt x="573" y="800" on="1"/>
      </contour>
    </TTGlyph>
    <TTGlyph name="quoteright" xMin="305" yMin="745" xMax="857" yMax="1382">
      <contour>
        <pt x="778" y="1382" on="0"/>
        <pt x="857" y="1301" on="0"/>
        <pt x="857" y="1224" on="1"/>
        <pt x="857" y="1189" on="0"/>
        <pt x="850" y="1154" on="1"/>
        <pt x="817" y="988" on="0"/>
        <pt x="542" y="779" on="0"/>
        <pt x="309" y="745" on="1"/>
        <pt x="305" y="862" on="1"/>
        <pt x="450" y="890" on="0"/>
        <pt x="625" y="981" on="0"/>
        <pt x="635" y="1030" on="1"/>
        <pt x="636" y="1033" on="0"/>
        <pt x="636" y="1038" on="1"/>
        <pt x="636" y="1065" on="0"/>
        <pt x="590" y="1089" on="1"/>
        <pt x="558" y="1105" on="0"/>
        <pt x="526" y="1159" on="0"/>
        <pt x="526" y="1193" on="1"/>
        <pt x="526" y="1209" on="0"/>
        <pt x="529" y="1225" on="1"/>
        <pt x="543" y="1294" on="0"/>
        <pt x="644" y="1382" on="0"/>
        <pt x="714" y="1382" on="1"/>
      </contour>
    </TTGlyph>
    <TTGlyph name="quotesinglbase" xMin="-11" yMin="-314" xMax="541" yMax="323">
      <component glyphName="quoteright" x="-316" y="-1059" flags="0x4"/>
    </TTGlyph>
    <TTGlyph name="quotesingle" xMin="516" yMin="756" xMax="822" yMax="1362">
      <contour>
        <pt x="573" y="1362" on="1"/>
        <pt x="822" y="1362" on="1"/>
        <pt x="637" y="756" on="1"/>
        <pt x="516" y="756" on="1"/>
      </contour>
    </TTGlyph>
    <TTGlyph name="r" xMin="226" yMin="0" xMax="1009" yMax="1059">
      <contour>
        <pt x="959" y="1059" on="0"/>
        <pt x="1009" y="1047" on="1"/>
        <pt x="1001" y="1017" on="1"/>
        <pt x="949" y="1029" on="0"/>
        <pt x="896" y="1029" on="1"/>
        <pt x="830" y="1029" on="0"/>
        <pt x="712" y="974" on="0"/>
        <pt x="612" y="886" on="0"/>
        <pt x="552" y="821" on="1"/>
        <pt x="408" y="666" on="1"/>
        <pt x="275" y="0" on="1"/>
        <pt x="245" y="0" on="1"/>
        <pt x="449" y="1019" on="1"/>
        <pt x="226" y="1019" on="1"/>
        <pt x="230" y="1042" on="1"/>
        <pt x="469" y="1046" on="1"/>
        <pt x="484" y="1046" on="1"/>
        <pt x="415" y="700" on="1"/>
        <pt x="549" y="850" on="1"/>
        <pt x="608" y="915" on="0"/>
        <pt x="711" y="1004" on="0"/>
        <pt x="833" y="1059" on="0"/>
        <pt x="902" y="1059" on="1"/>
      </contour>
    </TTGlyph>
    <TTGlyph name="racute" xMin="122" yMin="0" xMax="1012" yMax="1643">
      <component glyphName="r" x="-104" y="0" flags="0x0"/>
      <component glyphName="acutecomb" x="-54" y="0" flags="0x0"/>
    </TTGlyph>
    <TTGlyph name="rcaron" xMin="122" yMin="0" xMax="1015" yMax="1643">
      <component glyphName="r" x="-104" y="0" flags="0x0"/>
      <component glyphName="uni030C" x="-54" y="0" flags="0x0"/>
    </TTGlyph>
    <TTGlyph name="ring" xMin="364" yMin="1216" xMax="857" yMax="1675">
      <component glyphName="uni030A" x="-104" y="0" flags="0x0"/>
    </TTGlyph>
    <TTGlyph name="s" xMin="127" yMin="-17" xMax="884" yMax="1062">
      <contour>
        <pt x="322" y="-17" on="0"/>
        <pt x="182" y="22" on="0"/>
        <pt x="127" y="54" on="1"/>
        <pt x="138" y="76" on="1"/>
        <pt x="192" y="46" on="0"/>
        <pt x="327" y="11" on="0"/>
        <pt x="401" y="11" on="1"/>
        <pt x="488" y="11" on="0"/>
        <pt x="624" y="75" on="0"/>
        <pt x="709" y="184" on="0"/>
        <pt x="722" y="250" on="1"/>
        <pt x="727" y="273" on="0"/>
        <pt x="727" y="301" on="1"/>
        <pt x="727" y="360" on="0"/>
        <pt x="667" y="444" on="0"/>
        <pt x="580" y="497" on="0"/>
        <pt x="507" y="532" on="1"/>
        <pt x="433" y="568" on="0"/>
        <pt x="347" y="621" on="0"/>
        <pt x="287" y="705" on="0"/>
        <pt x="287" y="765" on="1"/>
        <pt x="287" y="794" on="0"/>
        <pt x="292" y="816" on="1"/>
        <pt x="305" y="883" on="0"/>
        <pt x="397" y="995" on="0"/>
        <pt x="546" y="1062" on="0"/>
        <pt x="642" y="1062" on="1"/>
        <pt x="709" y="1062" on="0"/>
        <pt x="836" y="1026" on="0"/>
        <pt x="884" y="1001" on="1"/>
        <pt x="873" y="977" on="1"/>
        <pt x="825" y="1001" on="0"/>
        <pt x="705" y="1034" on="0"/>
        <pt x="643" y="1035" on="1"/>
        <pt x="555" y="1035" on="0"/>
        <pt x="417" y="975" on="0"/>
        <pt x="334" y="876" on="0"/>
        <pt x="323" y="816" on="1"/>
        <pt x="318" y="789" on="0"/>
        <pt x="318" y="771" on="1"/>
        <pt x="318" y="718" on="0"/>
        <pt x="374" y="642" on="0"/>
        <pt x="456" y="592" on="0"/>
        <pt x="527" y="559" on="1"/>
        <pt x="603" y="523" on="0"/>
        <pt x="695" y="465" on="0"/>
        <pt x="759" y="374" on="0"/>
        <pt x="759" y="308" on="1"/>
        <pt x="759" y="282" on="0"/>
        <pt x="753" y="250" on="1"/>
        <pt x="738" y="177" on="0"/>
        <pt x="644" y="55" on="0"/>
        <pt x="494" y="-17" on="0"/>
        <pt x="398" y="-17" on="1"/>
      </contour>
    </TTGlyph>
    <TTGlyph name="sacute" xMin="23" yMin="-17" xMax="963" yMax="1643">
      <component glyphName="s" x="-104" y="0" flags="0x0"/>
      <component glyphName="acutecomb" x="-103" y="0" flags="0x0"/>
    </TTGlyph>
    <TTGlyph name="scaron" xMin="23" yMin="-17" xMax="966" yMax="1643">
      <component glyphName="s" x="-104" y="0" flags="0x0"/>
      <component glyphName="uni030C" x="-103" y="0" flags="0x0"/>
    </TTGlyph>
    <TTGlyph name="scedilla" xMin="127" yMin="-303" xMax="884" yMax="1062">
      <contour>
        <pt x="322" y="-17" on="0"/>
        <pt x="182" y="22" on="0"/>
        <pt x="127" y="54" on="1"/>
        <pt x="138" y="76" on="1"/>
        <pt x="192" y="46" on="0"/>
        <pt x="327" y="11" on="0"/>
        <pt x="401" y="11" on="1"/>
        <pt x="415" y="11" on="0"/>
        <pt x="439" y="13" on="1"/>
        <pt x="441" y="26" on="1"/>
        <pt x="510" y="26" on="1"/>
        <pt x="595" y="51" on="0"/>
        <pt x="707" y="172" on="0"/>
        <pt x="722" y="250" on="1"/>
        <pt x="727" y="273" on="0"/>
        <pt x="727" y="301" on="1"/>
        <pt x="727" y="360" on="0"/>
        <pt x="667" y="444" on="0"/>
        <pt x="580" y="497" on="0"/>
        <pt x="507" y="532" on="1"/>
        <pt x="433" y="568" on="0"/>
        <pt x="347" y="621" on="0"/>
        <pt x="287" y="705" on="0"/>
        <pt x="287" y="765" on="1"/>
        <pt x="287" y="794" on="0"/>
        <pt x="292" y="816" on="1"/>
        <pt x="305" y="883" on="0"/>
        <pt x="397" y="995" on="0"/>
        <pt x="546" y="1062" on="0"/>
        <pt x="642" y="1062" on="1"/>
        <pt x="709" y="1062" on="0"/>
        <pt x="836" y="1026" on="0"/>
        <pt x="884" y="1001" on="1"/>
        <pt x="873" y="977" on="1"/>
        <pt x="825" y="1001" on="0"/>
        <pt x="705" y="1034" on="0"/>
        <pt x="643" y="1035" on="1"/>
        <pt x="555" y="1035" on="0"/>
        <pt x="417" y="975" on="0"/>
        <pt x="334" y="876" on="0"/>
        <pt x="323" y="816" on="1"/>
        <pt x="318" y="789" on="0"/>
        <pt x="318" y="771" on="1"/>
        <pt x="318" y="718" on="0"/>
        <pt x="374" y="642" on="0"/>
        <pt x="456" y="592" on="0"/>
        <pt x="527" y="559" on="1"/>
        <pt x="603" y="523" on="0"/>
        <pt x="695" y="465" on="0"/>
        <pt x="759" y="374" on="0"/>
        <pt x="759" y="308" on="1"/>
        <pt x="759" y="282" on="0"/>
        <pt x="753" y="250" on="1"/>
        <pt x="737" y="176" on="0"/>
        <pt x="646" y="56" on="0"/>
        <pt x="574" y="21" on="1"/>
        <pt x="576" y="-28" on="0"/>
        <pt x="565" y="-84" on="1"/>
        <pt x="544" y="-192" on="0"/>
        <pt x="389" y="-303" on="0"/>
        <pt x="284" y="-303" on="1"/>
        <pt x="220" y="-303" on="0"/>
        <pt x="162" y="-287" on="1"/>
        <pt x="200" y="-161" on="1"/>
        <pt x="235" y="-166" on="0"/>
        <pt x="278" y="-166" on="1"/>
        <pt x="346" y="-166" on="0"/>
        <pt x="420" y="-110" on="0"/>
        <pt x="432" y="-50" on="1"/>
        <pt x="438" y="-15" on="1"/>
        <pt x="414" y="-17" on="0"/>
        <pt x="398" y="-17" on="1"/>
      </contour>
    </TTGlyph>
    <TTGlyph name="scircumflex" xMin="23" yMin="-17" xMax="887" yMax="1643">
      <component glyphName="s" x="-104" y="0" flags="0x0"/>
      <component glyphName="uni0302" x="-103" y="0" flags="0x0"/>
    </TTGlyph>
    <TTGlyph name="semicolon" xMin="4" yMin="-303" xMax="540" yMax="849">
      <component glyphName="comma" x="-132" y="0" flags="0x0"/>
      <component glyphName="period" x="56" y="756" flags="0x4"/>
    </TTGlyph>
    <TTGlyph name="seven" xMin="138" yMin="-304" xMax="1046" yMax="1210">
      <contour>
        <pt x="231" y="-6" on="0"/>
        <pt x="453" y="465" on="0"/>
        <pt x="685" y="831" on="0"/>
        <pt x="850" y="1060" on="1"/>
        <pt x="259" y="1059" on="1"/>
        <pt x="289" y="1210" on="1"/>
        <pt x="1046" y="1210" on="1"/>
        <pt x="1020" y="1077" on="1"/>
        <pt x="838" y="831" on="0"/>
        <pt x="582" y="420" on="0"/>
        <pt x="375" y="-30" on="0"/>
        <pt x="289" y="-304" on="1"/>
        <pt x="138" y="-302" on="1"/>
      </contour>
    </TTGlyph>
    <TTGlyph name="six" xMin="103" yMin="-23" xMax="954" yMax="1380">
      <contour>
        <pt x="276" y="-23" on="0"/>
        <pt x="103" y="186" on="0"/>
        <pt x="103" y="378" on="1"/>
        <pt x="103" y="476" on="0"/>
        <pt x="125" y="587" on="1"/>
        <pt x="171" y="816" on="0"/>
        <pt x="372" y="1137" on="0"/>
        <pt x="708" y="1338" on="0"/>
        <pt x="954" y="1380" on="1"/>
        <pt x="954" y="1258" on="1"/>
        <pt x="777" y="1220" on="0"/>
        <pt x="541" y="1102" on="0"/>
        <pt x="383" y="912" on="0"/>
        <pt x="335" y="764" on="1"/>
        <pt x="411" y="827" on="0"/>
        <pt x="569" y="898" on="0"/>
        <pt x="660" y="898" on="1"/>
        <pt x="746" y="898" on="0"/>
        <pt x="873" y="822" on="0"/>
        <pt x="942" y="679" on="0"/>
        <pt x="942" y="581" on="1"/>
        <pt x="942" y="520" on="0"/>
        <pt x="929" y="455" on="1"/>
        <pt x="902" y="320" on="0"/>
        <pt x="753" y="102" on="0"/>
        <pt x="544" y="-23" on="0"/>
        <pt x="431" y="-23" on="1"/>
      </contour>
      <contour>
        <pt x="269" y="481" on="0"/>
        <pt x="269" y="381" on="1"/>
        <pt x="269" y="247" on="0"/>
        <pt x="366" y="113" on="0"/>
        <pt x="456" y="113" on="1"/>
        <pt x="571" y="113" on="0"/>
        <pt x="731" y="298" on="0"/>
        <pt x="763" y="459" on="1"/>
        <pt x="774" y="511" on="0"/>
        <pt x="774" y="562" on="1"/>
        <pt x="774" y="662" on="0"/>
        <pt x="680" y="762" on="0"/>
        <pt x="596" y="762" on="1"/>
        <pt x="461" y="762" on="0"/>
        <pt x="298" y="616" on="1"/>
        <pt x="293" y="598" on="1"/>
      </contour>
    </TTGlyph>
    <TTGlyph name="slash" xMin="-10" yMin="-303" xMax="1106" yMax="1513">
      <contour>
        <pt x="962" y="1513" on="1"/>
        <pt x="1106" y="1513" on="1"/>
        <pt x="134" y="-303" on="1"/>
        <pt x="-10" y="-303" on="1"/>
      </contour>
    </TTGlyph>
    <TTGlyph name="t" xMin="259" yMin="-19" xMax="913" yMax="1346">
      <contour>
        <pt x="438" y="-19" on="0"/>
        <pt x="342" y="77" on="0"/>
        <pt x="342" y="174" on="1"/>
        <pt x="342" y="223" on="0"/>
        <pt x="354" y="284" on="1"/>
        <pt x="500" y="1016" on="1"/>
        <pt x="259" y="1016" on="1"/>
        <pt x="264" y="1043" on="1"/>
        <pt x="505" y="1043" on="1"/>
        <pt x="566" y="1346" on="1"/>
        <pt x="597" y="1346" on="1"/>
        <pt x="536" y="1043" on="1"/>
        <pt x="913" y="1043" on="1"/>
        <pt x="908" y="1016" on="1"/>
        <pt x="531" y="1016" on="1"/>
        <pt x="384" y="284" on="1"/>
        <pt x="372" y="226" on="0"/>
        <pt x="372" y="179" on="1"/>
        <pt x="372" y="92" on="0"/>
        <pt x="455" y="9" on="0"/>
        <pt x="538" y="9" on="1"/>
        <pt x="619" y="9" on="0"/>
        <pt x="716" y="48" on="1"/>
        <pt x="719" y="23" on="1"/>
        <pt x="668" y="4" on="0"/>
        <pt x="575" y="-19" on="0"/>
        <pt x="529" y="-19" on="1"/>
      </contour>
    </TTGlyph>
    <TTGlyph name="thorn" xMin="33" yMin="-303" xMax="947" yMax="1513">
      <contour>
        <pt x="396" y="1513" on="1"/>
        <pt x="426" y="1513" on="1"/>
        <pt x="275" y="755" on="1"/>
        <pt x="403" y="881" on="1"/>
        <pt x="489" y="966" on="0"/>
        <pt x="647" y="1059" on="0"/>
        <pt x="731" y="1059" on="1"/>
        <pt x="838" y="1059" on="0"/>
        <pt x="947" y="920" on="0"/>
        <pt x="947" y="788" on="1"/>
        <pt x="947" y="706" on="0"/>
        <pt x="926" y="602" on="1"/>
        <pt x="886" y="403" on="0"/>
        <pt x="718" y="122" on="0"/>
        <pt x="498" y="-21" on="0"/>
        <pt x="379" y="-21" on="1"/>
        <pt x="259" y="-21" on="0"/>
        <pt x="130" y="26" on="1"/>
        <pt x="63" y="-303" on="1"/>
        <pt x="33" y="-303" on="1"/>
      </contour>
      <contour>
        <pt x="490" y="6" on="0"/>
        <pt x="698" y="142" on="0"/>
        <pt x="857" y="411" on="0"/>
        <pt x="895" y="602" on="1"/>
        <pt x="916" y="707" on="0"/>
        <pt x="916" y="787" on="1"/>
        <pt x="916" y="908" on="0"/>
        <pt x="819" y="1031" on="0"/>
        <pt x="724" y="1031" on="1"/>
        <pt x="646" y="1031" on="0"/>
        <pt x="493" y="938" on="0"/>
        <pt x="406" y="853" on="1"/>
        <pt x="268" y="720" on="1"/>
        <pt x="133" y="52" on="1"/>
        <pt x="183" y="32" on="0"/>
        <pt x="312" y="6" on="0"/>
        <pt x="377" y="5" on="1"/>
      </contour>
    </TTGlyph>
    <TTGlyph name="three" xMin="-14" yMin="-321" xMax="954" yMax="1233">
      <contour>
        <pt x="311" y="-151" on="0"/>
        <pt x="643" y="41" on="0"/>
        <pt x="675" y="201" on="1"/>
        <pt x="681" y="230" on="0"/>
        <pt x="681" y="255" on="1"/>
        <pt x="681" y="347" on="0"/>
        <pt x="531" y="454" on="0"/>
        <pt x="372" y="454" on="1"/>
        <pt x="266" y="454" on="1"/>
        <pt x="294" y="590" on="1"/>
        <pt x="340" y="590" on="1"/>
        <pt x="482" y="590" on="0"/>
        <pt x="669" y="675" on="0"/>
        <pt x="764" y="806" on="0"/>
        <pt x="779" y="882" on="1"/>
        <pt x="785" y="914" on="0"/>
        <pt x="785" y="941" on="1"/>
        <pt x="785" y="1016" on="0"/>
        <pt x="698" y="1101" on="0"/>
        <pt x="614" y="1101" on="1"/>
        <pt x="524" y="1101" on="0"/>
        <pt x="364" y="1007" on="0"/>
        <pt x="275" y="926" on="1"/>
        <pt x="200" y="1013" on="1"/>
        <pt x="301" y="1113" on="0"/>
        <pt x="517" y="1233" on="0"/>
        <pt x="652" y="1233" on="1"/>
        <pt x="745" y="1233" on="0"/>
        <pt x="882" y="1167" on="0"/>
        <pt x="954" y="1050" on="0"/>
        <pt x="954" y="975" on="1"/>
        <pt x="954" y="941" on="0"/>
        <pt x="947" y="909" on="1"/>
        <pt x="922" y="783" on="0"/>
        <pt x="734" y="589" on="0"/>
        <pt x="581" y="543" on="1"/>
        <pt x="716" y="515" on="0"/>
        <pt x="846" y="377" on="0"/>
        <pt x="846" y="277" on="1"/>
        <pt x="846" y="243" on="0"/>
        <pt x="838" y="203" on="1"/>
        <pt x="812" y="72" on="0"/>
        <pt x="609" y="-141" on="0"/>
        <pt x="245" y="-289" on="0"/>
        <pt x="-14" y="-321" on="1"/>
        <pt x="-11" y="-199" on="1"/>
      </contour>
    </TTGlyph>
    <TTGlyph name="tilde" xMin="250" yMin="1244" xMax="958" yMax="1562">
      <component glyphName="tildecomb" x="-104" y="0" flags="0x0"/>
    </TTGlyph>
    <TTGlyph name="tildecomb" xMin="354" yMin="1244" xMax="1062" yMax="1562">
      <contour>
        <pt x="398" y="1562" on="0"/>
        <pt x="610" y="1562" on="1"/>
        <pt x="655" y="1562" on="0"/>
        <pt x="717" y="1530" on="0"/>
        <pt x="752" y="1486" on="0"/>
        <pt x="771" y="1452" on="1"/>
        <pt x="789" y="1420" on="0"/>
        <pt x="815" y="1392" on="0"/>
        <pt x="835" y="1392" on="1"/>
        <pt x="865" y="1392" on="0"/>
        <pt x="909" y="1466" on="0"/>
        <pt x="927" y="1559" on="1"/>
        <pt x="1062" y="1557" on="1"/>
        <pt x="1038" y="1391" on="0"/>
        <pt x="910" y="1244" on="0"/>
        <pt x="808" y="1244" on="1"/>
        <pt x="761" y="1244" on="0"/>
        <pt x="697" y="1277" on="0"/>
        <pt x="661" y="1322" on="0"/>
        <pt x="642" y="1356" on="1"/>
        <pt x="624" y="1387" on="0"/>
        <pt x="598" y="1415" on="0"/>
        <pt x="579" y="1415" on="1"/>
        <pt x="546" y="1415" on="0"/>
        <pt x="504" y="1340" on="0"/>
        <pt x="489" y="1247" on="1"/>
        <pt x="354" y="1249" on="1"/>
      </contour>
    </TTGlyph>
    <TTGlyph name="tildecomb.case" xMin="399" yMin="1471" xMax="1107" yMax="1789">
      <contour>
        <pt x="444" y="1789" on="0"/>
        <pt x="655" y="1789" on="1"/>
        <pt x="700" y="1789" on="0"/>
        <pt x="762" y="1757" on="0"/>
        <pt x="797" y="1713" on="0"/>
        <pt x="816" y="1679" on="1"/>
        <pt x="834" y="1647" on="0"/>
        <pt x="860" y="1619" on="0"/>
        <pt x="880" y="1619" on="1"/>
        <pt x="910" y="1619" on="0"/>
        <pt x="954" y="1693" on="0"/>
        <pt x="972" y="1786" on="1"/>
        <pt x="1107" y="1784" on="1"/>
        <pt x="1084" y="1619" on="0"/>
        <pt x="955" y="1471" on="0"/>
        <pt x="853" y="1471" on="1"/>
        <pt x="806" y="1471" on="0"/>
        <pt x="742" y="1503" on="0"/>
        <pt x="706" y="1548" on="0"/>
        <pt x="687" y="1582" on="1"/>
        <pt x="669" y="1613" on="0"/>
        <pt x="643" y="1641" on="0"/>
        <pt x="624" y="1641" on="1"/>
        <pt x="591" y="1641" on="0"/>
        <pt x="550" y="1567" on="0"/>
        <pt x="534" y="1474" on="1"/>
        <pt x="399" y="1476" on="1"/>
      </contour>
    </TTGlyph>
    <TTGlyph name="triagdn" xMin="108" yMin="144" xMax="1167" yMax="1059">
      <contour>
        <pt x="108" y="1059" on="1"/>
        <pt x="1167" y="1059" on="1"/>
        <pt x="453" y="144" on="1"/>
      </contour>
    </TTGlyph>
    <TTGlyph name="triaglf" xMin="-44" yMin="144" xMax="978" yMax="1203">
      <component glyphName="uni25C0" x="-104" y="0" flags="0x0"/>
    </TTGlyph>
    <TTGlyph name="triagrt" xMin="-67" yMin="144" xMax="955" yMax="1203">
      <component glyphName="uni25B6" x="-104" y="0" flags="0x0"/>
    </TTGlyph>
    <TTGlyph name="triagup" xMin="-44" yMin="303" xMax="1015" yMax="1218">
      <contour>
        <pt x="668" y="1218" on="1"/>
        <pt x="1015" y="303" on="1"/>
        <pt x="-44" y="303" on="1"/>
      </contour>
    </TTGlyph>
    <TTGlyph name="two" xMin="90" yMin="0" xMax="911" yMax="1233">
      <contour>
        <pt x="347" y="189" on="0"/>
        <pt x="667" y="459" on="0"/>
        <pt x="840" y="709" on="0"/>
        <pt x="866" y="840" on="1"/>
        <pt x="878" y="900" on="0"/>
        <pt x="878" y="952" on="1"/>
        <pt x="878" y="1072" on="0"/>
        <pt x="756" y="1205" on="0"/>
        <pt x="645" y="1205" on="1"/>
        <pt x="561" y="1205" on="0"/>
        <pt x="393" y="1134" on="0"/>
        <pt x="293" y="1057" on="1"/>
        <pt x="282" y="1080" on="1"/>
        <pt x="382" y="1160" on="0"/>
        <pt x="558" y="1233" on="0"/>
        <pt x="649" y="1233" on="1"/>
        <pt x="773" y="1233" on="0"/>
        <pt x="911" y="1084" on="0"/>
        <pt x="911" y="953" on="1"/>
        <pt x="911" y="900" on="0"/>
        <pt x="899" y="840" on="1"/>
        <pt x="871" y="704" on="0"/>
        <pt x="696" y="448" on="0"/>
        <pt x="378" y="180" on="0"/>
        <pt x="133" y="27" on="1"/>
        <pt x="758" y="28" on="1"/>
        <pt x="753" y="0" on="1"/>
        <pt x="90" y="0" on="1"/>
        <pt x="94" y="28" on="1"/>
      </contour>
    </TTGlyph>
    <TTGlyph name="u" xMin="134" yMin="-15" xMax="965" yMax="1043">
      <contour>
        <pt x="230" y="-15" on="0"/>
        <pt x="134" y="75" on="0"/>
        <pt x="134" y="162" on="1"/>
        <pt x="134" y="202" on="0"/>
        <pt x="142" y="241" on="1"/>
        <pt x="302" y="1043" on="1"/>
        <pt x="332" y="1043" on="1"/>
        <pt x="172" y="240" on="1"/>
        <pt x="164" y="195" on="0"/>
        <pt x="164" y="164" on="1"/>
        <pt x="164" y="13" on="0"/>
        <pt x="330" y="13" on="1"/>
        <pt x="384" y="13" on="0"/>
        <pt x="486" y="57" on="0"/>
        <pt x="581" y="130" on="0"/>
        <pt x="648" y="190" on="1"/>
        <pt x="790" y="319" on="1"/>
        <pt x="935" y="1043" on="1"/>
        <pt x="965" y="1043" on="1"/>
        <pt x="757" y="0" on="1"/>
        <pt x="727" y="0" on="1"/>
        <pt x="784" y="286" on="1"/>
        <pt x="651" y="164" on="1"/>
        <pt x="584" y="103" on="0"/>
        <pt x="489" y="30" on="0"/>
        <pt x="382" y="-15" on="0"/>
        <pt x="323" y="-15" on="1"/>
      </contour>
    </TTGlyph>
    <TTGlyph name="uacute" xMin="30" yMin="-15" xMax="962" yMax="1643">
      <component glyphName="u" x="-104" y="0" flags="0x0"/>
      <component glyphName="acutecomb" x="-104" y="0" flags="0x0"/>
    </TTGlyph>
    <TTGlyph name="ubreve" xMin="30" yMin="-15" xMax="932" yMax="1588">
      <component glyphName="u" x="-104" y="0" flags="0x0"/>
      <component glyphName="uni0306" x="-104" y="0" flags="0x0"/>
    </TTGlyph>
    <TTGlyph name="ucircumflex" xMin="30" yMin="-15" xMax="886" yMax="1643">
      <component glyphName="u" x="-104" y="0" flags="0x0"/>
      <component glyphName="uni0302" x="-104" y="0" flags="0x0"/>
    </TTGlyph>
    <TTGlyph name="udieresis" xMin="30" yMin="-15" xMax="861" yMax="1519">
      <component glyphName="u" x="-104" y="0" flags="0x0"/>
      <component glyphName="uni0308" x="-104" y="0" flags="0x0"/>
    </TTGlyph>
    <TTGlyph name="ugrave" xMin="30" yMin="-15" xMax="861" yMax="1643">
      <component glyphName="u" x="-104" y="0" flags="0x0"/>
      <component glyphName="gravecomb" x="-104" y="0" flags="0x0"/>
    </TTGlyph>
    <TTGlyph name="umacron" xMin="30" yMin="-15" xMax="869" yMax="1505">
      <component glyphName="u" x="-104" y="0" flags="0x0"/>
      <component glyphName="uni0304" x="-104" y="0" flags="0x0"/>
    </TTGlyph>
    <TTGlyph name="underscore" xMin="47" yMin="0" xMax="831" yMax="136">
      <contour>
        <pt x="804" y="0" on="1"/>
        <pt x="47" y="0" on="1"/>
        <pt x="74" y="136" on="1"/>
        <pt x="831" y="136" on="1"/>
      </contour>
    </TTGlyph>
    <TTGlyph name="uni004A0301" xMin="4" yMin="-23" xMax="1039" yMax="1870">
      <component glyphName="J" x="-104" y="0" flags="0x0"/>
      <component glyphName="acutecomb.case" x="-73" y="0" flags="0x0"/>
    </TTGlyph>
    <TTGlyph name="uni006A0301" xMin="-10" yMin="-303" xMax="1017" yMax="1643">
      <component glyphName="uni0237" x="-104" y="0" flags="0x0"/>
      <component glyphName="acutecomb" x="-49" y="0" flags="0x0"/>
    </TTGlyph>
    <TTGlyph name="uni00AD" xMin="73" yMin="650" xMax="835" yMax="677">
      <component glyphName="hyphen" x="-104" y="0" flags="0x0"/>
    </TTGlyph>
    <TTGlyph name="uni00B5" xMin="33" yMin="-303" xMax="965" yMax="1043">
      <contour>
        <pt x="302" y="1043" on="1"/>
        <pt x="332" y="1043" on="1"/>
        <pt x="172" y="240" on="1"/>
        <pt x="164" y="195" on="0"/>
        <pt x="164" y="164" on="1"/>
        <pt x="164" y="13" on="0"/>
        <pt x="330" y="13" on="1"/>
        <pt x="384" y="13" on="0"/>
        <pt x="486" y="57" on="0"/>
        <pt x="581" y="130" on="0"/>
        <pt x="648" y="190" on="1"/>
        <pt x="790" y="319" on="1"/>
        <pt x="935" y="1043" on="1"/>
        <pt x="965" y="1043" on="1"/>
        <pt x="757" y="0" on="1"/>
        <pt x="727" y="0" on="1"/>
        <pt x="784" y="286" on="1"/>
        <pt x="651" y="164" on="1"/>
        <pt x="584" y="103" on="0"/>
        <pt x="489" y="30" on="0"/>
        <pt x="382" y="-15" on="0"/>
        <pt x="323" y="-15" on="1"/>
        <pt x="176" y="-15" on="0"/>
        <pt x="143" y="95" on="1"/>
        <pt x="63" y="-303" on="1"/>
        <pt x="33" y="-303" on="1"/>
      </contour>
    </TTGlyph>
    <TTGlyph name="uni0122" xMin="172" yMin="-303" xMax="1004" yMax="1382">
      <contour>
        <pt x="172" y="-21" on="0"/>
        <pt x="172" y="370" on="1"/>
        <pt x="172" y="501" on="0"/>
        <pt x="207" y="682" on="1"/>
        <pt x="278" y="1030" on="0"/>
        <pt x="556" y="1382" on="0"/>
        <pt x="761" y="1382" on="1"/>
        <pt x="827" y="1382" on="0"/>
        <pt x="944" y="1341" on="0"/>
        <pt x="1004" y="1296" on="1"/>
        <pt x="990" y="1274" on="1"/>
        <pt x="882" y="1353" on="0"/>
        <pt x="758" y="1355" on="1"/>
        <pt x="566" y="1354" on="0"/>
        <pt x="305" y="1015" on="0"/>
        <pt x="238" y="680" on="1"/>
        <pt x="202" y="500" on="0"/>
        <pt x="202" y="369" on="1"/>
        <pt x="202" y="188" on="0"/>
        <pt x="341" y="8" on="0"/>
        <pt x="481" y="7" on="1"/>
        <pt x="612" y="9" on="0"/>
        <pt x="739" y="64" on="1"/>
        <pt x="831" y="523" on="1"/>
        <pt x="518" y="523" on="1"/>
        <pt x="524" y="551" on="1"/>
        <pt x="867" y="551" on="1"/>
        <pt x="767" y="46" on="1"/>
        <pt x="618" y="-21" on="0"/>
        <pt x="475" y="-21" on="1"/>
      </contour>
      <contour>
        <pt x="299" y="-91" on="1"/>
        <pt x="545" y="-91" on="1"/>
        <pt x="334" y="-303" on="1"/>
        <pt x="219" y="-303" on="1"/>
      </contour>
    </TTGlyph>
    <TTGlyph name="uni0123" xMin="8" yMin="-318" xMax="979" yMax="1566">
      <contour>
        <pt x="247" y="136" on="0"/>
        <pt x="134" y="262" on="0"/>
        <pt x="134" y="383" on="1"/>
        <pt x="134" y="442" on="0"/>
        <pt x="150" y="525" on="1"/>
        <pt x="184" y="697" on="0"/>
        <pt x="344" y="940" on="0"/>
        <pt x="560" y="1064" on="0"/>
        <pt x="678" y="1064" on="1"/>
        <pt x="819" y="1064" on="0"/>
        <pt x="957" y="1009" on="1"/>
        <pt x="776" y="96" on="1"/>
        <pt x="749" y="-36" on="0"/>
        <pt x="622" y="-223" on="0"/>
        <pt x="444" y="-318" on="0"/>
        <pt x="340" y="-318" on="1"/>
        <pt x="161" y="-318" on="0"/>
        <pt x="8" y="-188" on="1"/>
        <pt x="22" y="-167" on="1"/>
        <pt x="164" y="-289" on="0"/>
        <pt x="340" y="-290" on="1"/>
        <pt x="439" y="-289" on="0"/>
        <pt x="605" y="-202" on="0"/>
        <pt x="720" y="-29" on="0"/>
        <pt x="746" y="96" on="1"/>
        <pt x="815" y="442" on="1"/>
        <pt x="686" y="315" on="1"/>
        <pt x="602" y="231" on="0"/>
        <pt x="442" y="136" on="0"/>
        <pt x="358" y="136" on="1"/>
      </contour>
      <contour>
        <pt x="444" y="165" on="0"/>
        <pt x="597" y="257" on="0"/>
        <pt x="684" y="343" on="1"/>
        <pt x="822" y="476" on="1"/>
        <pt x="926" y="992" on="1"/>
        <pt x="798" y="1038" on="0"/>
        <pt x="682" y="1038" on="1"/>
        <pt x="569" y="1038" on="0"/>
        <pt x="365" y="921" on="0"/>
        <pt x="214" y="690" on="0"/>
        <pt x="181" y="525" on="1"/>
        <pt x="165" y="442" on="0"/>
        <pt x="165" y="387" on="1"/>
        <pt x="165" y="166" on="0"/>
        <pt x="365" y="164" on="1"/>
      </contour>
      <contour>
        <pt x="841" y="1566" on="1"/>
        <pt x="979" y="1566" on="1"/>
        <pt x="822" y="1237" on="1"/>
        <pt x="555" y="1237" on="1"/>
      </contour>
    </TTGlyph>
    <TTGlyph name="uni0136" xMin="94" yMin="-303" xMax="1059" yMax="1362">
      <contour>
        <pt x="366" y="1362" on="1"/>
        <pt x="396" y="1362" on="1"/>
        <pt x="264" y="702" on="1"/>
        <pt x="1021" y="1362" on="1"/>
        <pt x="1059" y="1362" on="1"/>
        <pt x="291" y="696" on="1"/>
        <pt x="817" y="0" on="1"/>
        <pt x="777" y="0" on="1"/>
        <pt x="261" y="687" on="1"/>
        <pt x="124" y="0" on="1"/>
        <pt x="94" y="0" on="1"/>
      </contour>
      <contour>
        <pt x="299" y="-91" on="1"/>
        <pt x="545" y="-91" on="1"/>
        <pt x="334" y="-303" on="1"/>
        <pt x="219" y="-303" on="1"/>
      </contour>
    </TTGlyph>
    <TTGlyph name="uni0137" xMin="47" yMin="-303" xMax="1031" yMax="1513">
      <contour>
        <pt x="47" y="0" on="1"/>
        <pt x="349" y="1513" on="1"/>
        <pt x="501" y="1513" on="1"/>
        <pt x="320" y="607" on="1"/>
        <pt x="851" y="1059" on="1"/>
        <pt x="1031" y="1059" on="1"/>
        <pt x="440" y="563" on="1"/>
        <pt x="842" y="0" on="1"/>
        <pt x="641" y="0" on="1"/>
        <pt x="298" y="496" on="1"/>
        <pt x="199" y="0" on="1"/>
      </contour>
      <contour>
        <pt x="299" y="-91" on="1"/>
        <pt x="545" y="-91" on="1"/>
        <pt x="334" y="-303" on="1"/>
        <pt x="219" y="-303" on="1"/>
      </contour>
    </TTGlyph>
    <TTGlyph name="uni013B" xMin="94" yMin="-303" xMax="762" yMax="1362">
      <contour>
        <pt x="366" y="1362" on="1"/>
        <pt x="396" y="1362" on="1"/>
        <pt x="129" y="28" on="1"/>
        <pt x="762" y="28" on="1"/>
        <pt x="757" y="0" on="1"/>
        <pt x="94" y="0" on="1"/>
      </contour>
      <contour>
        <pt x="299" y="-91" on="1"/>
        <pt x="545" y="-91" on="1"/>
        <pt x="334" y="-303" on="1"/>
        <pt x="219" y="-303" on="1"/>
      </contour>
    </TTGlyph>
    <TTGlyph name="uni013C" xMin="94" yMin="-303" xMax="761" yMax="1515">
      <contour>
        <pt x="98" y="23" on="1"/>
        <pt x="415" y="27" on="1"/>
        <pt x="707" y="1488" on="1"/>
        <pt x="410" y="1488" on="1"/>
        <pt x="415" y="1511" on="1"/>
        <pt x="727" y="1515" on="1"/>
        <pt x="744" y="1515" on="1"/>
        <pt x="446" y="27" on="1"/>
        <pt x="761" y="23" on="1"/>
        <pt x="757" y="0" on="1"/>
        <pt x="94" y="0" on="1"/>
      </contour>
      <contour>
        <pt x="299" y="-91" on="1"/>
        <pt x="545" y="-91" on="1"/>
        <pt x="334" y="-303" on="1"/>
        <pt x="219" y="-303" on="1"/>
      </contour>
    </TTGlyph>
    <TTGlyph name="uni0145" xMin="94" yMin="-303" xMax="1029" yMax="1362">
      <contour>
        <pt x="366" y="1362" on="1"/>
        <pt x="399" y="1362" on="1"/>
        <pt x="744" y="78" on="1"/>
        <pt x="1001" y="1362" on="1"/>
        <pt x="1029" y="1362" on="1"/>
        <pt x="757" y="0" on="1"/>
        <pt x="732" y="0" on="1"/>
        <pt x="382" y="1300" on="1"/>
        <pt x="122" y="0" on="1"/>
        <pt x="94" y="0" on="1"/>
      </contour>
      <contour>
        <pt x="299" y="-91" on="1"/>
        <pt x="545" y="-91" on="1"/>
        <pt x="334" y="-303" on="1"/>
        <pt x="219" y="-303" on="1"/>
      </contour>
    </TTGlyph>
    <TTGlyph name="uni0146" xMin="94" yMin="-303" xMax="925" yMax="1059">
      <contour>
        <pt x="302" y="1043" on="1"/>
        <pt x="332" y="1043" on="1"/>
        <pt x="275" y="757" on="1"/>
        <pt x="408" y="880" on="1"/>
        <pt x="473" y="940" on="0"/>
        <pt x="570" y="1013" on="0"/>
        <pt x="677" y="1059" on="0"/>
        <pt x="736" y="1059" on="1"/>
        <pt x="829" y="1059" on="0"/>
        <pt x="925" y="969" on="0"/>
        <pt x="925" y="881" on="1"/>
        <pt x="925" y="841" on="0"/>
        <pt x="917" y="802" on="1"/>
        <pt x="757" y="0" on="1"/>
        <pt x="727" y="0" on="1"/>
        <pt x="887" y="803" on="1"/>
        <pt x="895" y="848" on="0"/>
        <pt x="895" y="878" on="1"/>
        <pt x="895" y="955" on="0"/>
        <pt x="811" y="1030" on="0"/>
        <pt x="727" y="1030" on="1"/>
        <pt x="673" y="1030" on="0"/>
        <pt x="572" y="986" on="0"/>
        <pt x="477" y="913" on="0"/>
        <pt x="411" y="853" on="1"/>
        <pt x="269" y="725" on="1"/>
        <pt x="124" y="0" on="1"/>
        <pt x="94" y="0" on="1"/>
      </contour>
      <contour>
        <pt x="299" y="-91" on="1"/>
        <pt x="545" y="-91" on="1"/>
        <pt x="334" y="-303" on="1"/>
        <pt x="219" y="-303" on="1"/>
      </contour>
    </TTGlyph>
    <TTGlyph name="uni0156" xMin="94" yMin="-303" xMax="958" yMax="1362">
      <contour>
        <pt x="366" y="1362" on="1"/>
        <pt x="625" y="1362" on="1"/>
        <pt x="791" y="1362" on="0"/>
        <pt x="958" y="1219" on="0"/>
        <pt x="958" y="1089" on="1"/>
        <pt x="958" y="1041" on="0"/>
        <pt x="948" y="992" on="1"/>
        <pt x="914" y="829" on="0"/>
        <pt x="699" y="630" on="0"/>
        <pt x="526" y="623" on="1"/>
        <pt x="789" y="0" on="1"/>
        <pt x="751" y="0" on="1"/>
        <pt x="492" y="622" on="1"/>
        <pt x="248" y="622" on="1"/>
        <pt x="124" y="0" on="1"/>
        <pt x="94" y="0" on="1"/>
      </contour>
      <contour>
        <pt x="672" y="649" on="0"/>
        <pt x="885" y="834" on="0"/>
        <pt x="916" y="993" on="1"/>
        <pt x="926" y="1040" on="0"/>
        <pt x="926" y="1087" on="1"/>
        <pt x="926" y="1205" on="0"/>
        <pt x="775" y="1333" on="0"/>
        <pt x="622" y="1334" on="1"/>
        <pt x="391" y="1334" on="1"/>
        <pt x="254" y="649" on="1"/>
        <pt x="502" y="649" on="1"/>
      </contour>
      <contour>
        <pt x="299" y="-91" on="1"/>
        <pt x="545" y="-91" on="1"/>
        <pt x="334" y="-303" on="1"/>
        <pt x="219" y="-303" on="1"/>
      </contour>
    </TTGlyph>
    <TTGlyph name="uni0157" xMin="55" yMin="-303" xMax="1009" yMax="1059">
      <contour>
        <pt x="959" y="1059" on="0"/>
        <pt x="1009" y="1047" on="1"/>
        <pt x="1001" y="1017" on="1"/>
        <pt x="949" y="1029" on="0"/>
        <pt x="896" y="1029" on="1"/>
        <pt x="830" y="1029" on="0"/>
        <pt x="712" y="974" on="0"/>
        <pt x="612" y="886" on="0"/>
        <pt x="552" y="821" on="1"/>
        <pt x="408" y="666" on="1"/>
        <pt x="275" y="0" on="1"/>
        <pt x="245" y="0" on="1"/>
        <pt x="449" y="1019" on="1"/>
        <pt x="226" y="1019" on="1"/>
        <pt x="230" y="1042" on="1"/>
        <pt x="469" y="1046" on="1"/>
        <pt x="484" y="1046" on="1"/>
        <pt x="415" y="700" on="1"/>
        <pt x="549" y="850" on="1"/>
        <pt x="608" y="915" on="0"/>
        <pt x="711" y="1004" on="0"/>
        <pt x="833" y="1059" on="0"/>
        <pt x="902" y="1059" on="1"/>
      </contour>
      <contour>
        <pt x="135" y="-91" on="1"/>
        <pt x="381" y="-91" on="1"/>
        <pt x="170" y="-303" on="1"/>
        <pt x="55" y="-303" on="1"/>
      </contour>
    </TTGlyph>
    <TTGlyph name="uni0162" xMin="79" yMin="-303" xMax="1066" yMax="1362">
      <contour>
        <pt x="137" y="-303" on="0"/>
        <pt x="79" y="-287" on="1"/>
        <pt x="117" y="-161" on="1"/>
        <pt x="152" y="-166" on="0"/>
        <pt x="195" y="-166" on="1"/>
        <pt x="263" y="-166" on="0"/>
        <pt x="337" y="-110" on="0"/>
        <pt x="349" y="-50" on="1"/>
        <pt x="355" y="-21" on="0"/>
        <pt x="358" y="27" on="1"/>
        <pt x="415" y="26" on="1"/>
        <pt x="677" y="1334" on="1"/>
        <pt x="324" y="1334" on="1"/>
        <pt x="329" y="1362" on="1"/>
        <pt x="1066" y="1362" on="1"/>
        <pt x="1061" y="1334" on="1"/>
        <pt x="708" y="1334" on="1"/>
        <pt x="446" y="26" on="1"/>
        <pt x="491" y="25" on="1"/>
        <pt x="491" y="-35" on="0"/>
        <pt x="482" y="-84" on="1"/>
        <pt x="461" y="-192" on="0"/>
        <pt x="306" y="-303" on="0"/>
        <pt x="201" y="-303" on="1"/>
      </contour>
    </TTGlyph>
    <TTGlyph name="uni0163" xMin="209" yMin="-303" xMax="913" yMax="1346">
      <contour>
        <pt x="267" y="-303" on="0"/>
        <pt x="209" y="-287" on="1"/>
        <pt x="247" y="-161" on="1"/>
        <pt x="282" y="-166" on="0"/>
        <pt x="325" y="-166" on="1"/>
        <pt x="393" y="-166" on="0"/>
        <pt x="467" y="-110" on="0"/>
        <pt x="479" y="-50" on="1"/>
        <pt x="485" y="-16" on="1"/>
        <pt x="342" y="6" on="0"/>
        <pt x="342" y="174" on="1"/>
        <pt x="342" y="223" on="0"/>
        <pt x="354" y="284" on="1"/>
        <pt x="500" y="1016" on="1"/>
        <pt x="259" y="1016" on="1"/>
        <pt x="264" y="1043" on="1"/>
        <pt x="505" y="1043" on="1"/>
        <pt x="566" y="1346" on="1"/>
        <pt x="597" y="1346" on="1"/>
        <pt x="536" y="1043" on="1"/>
        <pt x="913" y="1043" on="1"/>
        <pt x="908" y="1016" on="1"/>
        <pt x="531" y="1016" on="1"/>
        <pt x="384" y="284" on="1"/>
        <pt x="373" y="230" on="0"/>
        <pt x="373" y="180" on="1"/>
        <pt x="373" y="108" on="0"/>
        <pt x="430" y="26" on="0"/>
        <pt x="487" y="15" on="1"/>
        <pt x="488" y="27" on="1"/>
        <pt x="621" y="25" on="1"/>
        <pt x="622" y="22" on="0"/>
        <pt x="621" y="19" on="1"/>
        <pt x="668" y="28" on="0"/>
        <pt x="716" y="48" on="1"/>
        <pt x="719" y="23" on="1"/>
        <pt x="672" y="5" on="0"/>
        <pt x="621" y="-9" on="1"/>
        <pt x="616" y="-64" on="0"/>
        <pt x="612" y="-84" on="1"/>
        <pt x="591" y="-192" on="0"/>
        <pt x="436" y="-303" on="0"/>
        <pt x="331" y="-303" on="1"/>
      </contour>
    </TTGlyph>
</ttFont>
